<?xml version="1.0" encoding="utf-8"?>
<!-- Generator: Adobe Illustrator 18.0.0, SVG Export Plug-In . SVG Version: 6.00 Build 0)  -->
<!DOCTYPE svg PUBLIC "-//W3C//DTD SVG 1.0//EN" "http://www.w3.org/TR/2001/REC-SVG-20010904/DTD/svg10.dtd">
<svg version="1.0" id="Capa_1" xmlns="http://www.w3.org/2000/svg" xmlns:xlink="http://www.w3.org/1999/xlink" x="0px" y="0px"
	 viewBox="0 0 244 38" enable-background="new 0 0 244 38" xml:space="preserve">
<path fill="#FFFFFF" d="M196.5,10.3c1.4,0,2.5-1.1,2.5-2.4c0-1.3-1.1-2.4-2.5-2.4s-2.5,1.1-2.5,2.4C194.1,9.2,195.2,10.3,196.5,10.3
	z M56.2,14L56.2,14c-2.8,0-5,2.2-5,5s2.2,5,4.9,5h0.1c2.7,0,4.9-2.2,4.9-5S58.9,14,56.2,14z M141.1,17.1c-1.1,0-2,0.9-2,2
	c0,1.1,0.9,2,2,2s2-0.9,2-2C143.2,18,142.2,17.1,141.1,17.1z M215.1,5.5h-8.5v2.7h4.9v15.1h-4.9v2.8H220v-2.8h-4.9V5.5z M230.1,11.8
	c-4.3,0-6.9,3.2-6.9,7.4c0,4.9,2.7,7.2,7.3,7.2c1.8,0,3.9-0.3,5.4-0.9l-0.3-2.8c-1.2,0.6-3.1,0.9-4.5,0.9c-2.5,0-4.2-1.2-4.2-3.6
	c0-0.1,0-0.1,0-0.2h9.4c0.1-0.6,0.1-1.2,0.1-1.7C236.4,14.7,234.3,11.8,230.1,11.8z M226.9,17.4c0.2-1.8,1.5-3,3.1-3
	c1.6,0,2.8,1.1,2.8,3H226.9z M198.4,12.1h-8.4v2.7h4.8v8.5h-4.9v2.8h13.2v-2.8h-4.6V12.1z M240.2,24.8c0.3,0,0.5-0.2,0.5-0.5
	c0-0.3-0.2-0.4-0.6-0.4h-0.5v1.7h0.3v-0.8h0l0.5,0.8h0.3l-0.4-0.5C240.3,24.9,240.2,24.8,240.2,24.8z M239.9,24.6v-0.5h0.2
	c0.2,0,0.3,0.1,0.3,0.2c0,0.1-0.1,0.3-0.4,0.3H239.9z M240.1,23.2c-0.8,0-1.5,0.7-1.5,1.5c0,0.8,0.6,1.5,1.5,1.5
	c0.8,0,1.5-0.7,1.5-1.5C241.6,23.9,241,23.2,240.1,23.2z M240.1,25.9c-0.7,0-1.2-0.6-1.2-1.2c0-0.7,0.5-1.2,1.2-1.2
	c0.7,0,1.2,0.6,1.2,1.2C241.3,25.4,240.8,25.9,240.1,25.9z M177,11.1v2.3h-4.8v2.9h4.8v9.9h3.6v-9.9h5.6v-2.9h-5.6v-2.1
	c0-2.2,0.9-3.1,2.6-3.1c1.2,0,2.3,0.2,3.2,0.5l0.3-2.9c-1-0.3-2.2-0.4-3.4-0.4C179.1,5.3,177,7.1,177,11.1z M97.9,23.3
	c-2.7,0-4.4-1.6-4.4-4.1c0-2.6,1.8-4.3,4.5-4.3c1.2,0,2.5,0.3,3.5,0.7l0.5-3.2c-1.1-0.3-2.5-0.5-3.9-0.5c-5.7,0-8.6,3.4-8.6,7.8
	c0,4.3,2.6,6.9,7.6,6.9c1.7,0,3.6-0.3,5-0.8l-0.4-3.1C100.6,23,99.2,23.3,97.9,23.3z M166.5,17.1c-1.1,0-2,0.9-2,2c0,1.1,0.9,2,2,2
	c1.1,0,2-0.9,2-2C168.5,18,167.6,17.1,166.5,17.1z M118.7,16.7c0-3-1.5-4.9-6.2-4.9c-1.9,0-3.7,0.3-5.1,0.9l0.3,3
	c1.2-0.7,3-1.1,4.3-1.1c2.1,0,3.1,0.8,3.1,2.2v0.8c-5.3,0-8.6,1.7-8.6,5.1c0,2.3,1.5,3.8,4.1,3.8c2.1,0,4.1-1.2,4.9-2.7h0
	c-0.1,0.8-0.1,1.6-0.1,2.4h3.4c-0.1-1.2-0.1-2.5-0.1-3.6V16.7z M115.1,20.3c0,1.7-1.5,3.4-3.4,3.4c-1.1,0-1.8-0.6-1.8-1.5
	c0-1.2,1-2.2,5.2-2.2V20.3z M70.6,33.2h16.9v-2H70.6V33.2z M63.6,1L63.6,1c-8.8,0-8.8,0-8.9,0c-8.6,0.2-15.9,6.9-17.3,15.9
	c0,0-0.5,2.4-0.5,2.5c-0.7,4.3-3.9,7.5-7.7,7.6c-0.5,0-5.3,0-8.4,0c-4.8-0.1-8.4-3.6-8.4-8c0-4.3,3.4-7.9,7.7-8c0.9,0,10.1,0,10.6,0
	c2.7,0,5-2.2,5-5c0-2.7-2.2-5-5-5c-0.1,0-10.6,0-10.9,0c-4.7,0.2-9,2.1-12.3,5.5C4.2,9.9,2.4,14.3,2.4,19c0,9.9,8,17.8,18.2,18
	c0,0,0.1,0,0.1,0h0c8.6,0,8.6,0,8.7,0c8.6-0.2,15.9-6.9,17.3-15.9c0,0,0.5-2.4,0.5-2.5c0.7-4.3,3.9-7.5,7.7-7.6c0.5,0,5.4,0,8.7,0
	c2.7,0,5-2.2,5-5C68.6,3.2,66.4,1,63.6,1z M28.9,5.8l2.1,0c0.1,0,0.1,0.1,0.1,0.1S31,6.1,31,6.1h-2.1c-0.1,0-0.1-0.1-0.1-0.1
	C28.7,5.9,28.8,5.8,28.9,5.8z M25.3,5.8l1.8,0c0.1,0,0.1,0.1,0.1,0.1c0,0.1-0.1,0.1-0.1,0.1h-1.8c-0.1,0-0.1-0.1-0.1-0.1
	S25.2,5.8,25.3,5.8z M21.7,5.8l1.8,0c0.1,0,0.1,0.1,0.1,0.1c0,0.1-0.1,0.1-0.1,0.1l-1.8,0c-0.1,0-0.1-0.1-0.1-0.1
	C21.6,5.9,21.6,5.8,21.7,5.8z M18.1,6c0.6-0.1,1.2-0.2,1.8-0.2C20,5.8,20,5.9,20,6c0,0.1-0.1,0.1-0.1,0.1c-0.6,0-1.2,0.1-1.8,0.2
	c0,0,0,0,0,0c-0.1,0-0.1,0-0.1-0.1C18,6.1,18,6.1,18.1,6z M14.7,7.1c0.5-0.3,1.1-0.5,1.7-0.7c0.1,0,0.2,0,0.2,0.1
	c0,0.1,0,0.2-0.1,0.2c-0.6,0.2-1.1,0.4-1.6,0.7c0,0,0,0-0.1,0c-0.1,0-0.1,0-0.1-0.1C14.6,7.3,14.6,7.2,14.7,7.1z M7.2,18.7
	c0-0.6,0.1-1.2,0.2-1.8c0-0.1,0.1-0.1,0.2-0.1c0.1,0,0.1,0.1,0.1,0.2c-0.1,0.6-0.1,1.2-0.2,1.8c0,0.1-0.1,0.1-0.1,0.1h0
	C7.3,18.9,7.2,18.8,7.2,18.7z M7.8,22.4C7.8,22.4,7.8,22.4,7.8,22.4c-0.1,0-0.2,0-0.2-0.1c-0.2-0.6-0.3-1.2-0.3-1.8
	c0-0.1,0-0.1,0.1-0.2c0.1,0,0.1,0,0.2,0.1c0.1,0.6,0.2,1.2,0.3,1.7C7.9,22.3,7.9,22.4,7.8,22.4z M7.9,15.3
	C7.9,15.3,7.9,15.3,7.9,15.3c-0.1,0-0.2-0.1-0.1-0.2C8,14.6,8.2,14,8.4,13.5c0-0.1,0.1-0.1,0.2-0.1c0.1,0,0.1,0.1,0.1,0.2
	c-0.2,0.5-0.5,1.1-0.6,1.7C8.1,15.3,8,15.3,7.9,15.3z M9.2,25.7C9.2,25.7,9.2,25.7,9.2,25.7c-0.1,0-0.2,0-0.2-0.1
	c-0.3-0.5-0.6-1.1-0.8-1.6c0-0.1,0-0.2,0.1-0.2c0.1,0,0.2,0,0.2,0.1C8.7,24.5,9,25,9.3,25.5C9.3,25.6,9.3,25.6,9.2,25.7z M9.4,12.1
	C9.4,12.1,9.4,12.1,9.4,12.1C9.3,12,9.3,12,9.3,11.9c0.3-0.5,0.7-1,1.1-1.4c0.1-0.1,0.1-0.1,0.2,0c0.1,0.1,0.1,0.1,0,0.2
	c-0.4,0.4-0.7,0.9-1.1,1.4C9.5,12.1,9.5,12.1,9.4,12.1z M11.5,28.4c0,0-0.1,0-0.1,0c0,0-0.1,0-0.1,0c-0.4-0.4-0.9-0.9-1.2-1.3
	c0-0.1,0-0.2,0-0.2c0.1,0,0.1,0,0.2,0c0.4,0.5,0.8,0.9,1.2,1.3C11.6,28.3,11.6,28.4,11.5,28.4z M11.8,9.4c0,0-0.1,0-0.1,0
	c-0.1-0.1,0-0.1,0-0.2c0.5-0.4,0.9-0.8,1.4-1.1c0.1,0,0.2,0,0.2,0c0,0.1,0,0.2,0,0.2C12.8,8.6,12.3,9,11.8,9.4
	C11.8,9.4,11.8,9.4,11.8,9.4z M14.4,30.5c0,0-0.1,0.1-0.1,0.1c0,0,0,0-0.1,0c-0.5-0.3-1.1-0.6-1.5-0.9c-0.1,0-0.1-0.1,0-0.2
	c0-0.1,0.1-0.1,0.2,0c0.5,0.3,1,0.7,1.5,0.9C14.4,30.3,14.5,30.4,14.4,30.5z M17.7,31.8C17.6,31.8,17.6,31.8,17.7,31.8
	c-0.6-0.1-1.2-0.3-1.8-0.5c-0.1,0-0.1-0.1-0.1-0.2c0-0.1,0.1-0.1,0.2-0.1c0.5,0.2,1.1,0.4,1.7,0.5c0.1,0,0.1,0.1,0.1,0.2
	C17.8,31.7,17.7,31.8,17.7,31.8z M21.2,32.2h-0.5c-0.4,0-0.9,0-1.3-0.1c-0.1,0-0.1-0.1-0.1-0.2c0-0.1,0.1-0.1,0.2-0.1
	c0.4,0,0.8,0.1,1.3,0.1h0.5c0.1,0,0.1,0.1,0.1,0.1C21.3,32.1,21.3,32.2,21.2,32.2z M24.8,32.2l-1.8,0c-0.1,0-0.1-0.1-0.1-0.1
	c0-0.1,0.1-0.1,0.1-0.1l1.8,0c0.1,0,0.1,0.1,0.1,0.1C24.9,32.1,24.9,32.2,24.8,32.2z M28.4,32.2l-1.8,0c-0.1,0-0.1-0.1-0.1-0.1
	c0-0.1,0.1-0.1,0.1-0.1l1.8,0c0.1,0,0.1,0.1,0.1,0.1C28.5,32.1,28.5,32.2,28.4,32.2z M32,31.8c-0.6,0.1-1.2,0.3-1.8,0.3c0,0,0,0,0,0
	c-0.1,0-0.1-0.1-0.1-0.1c0-0.1,0-0.1,0.1-0.2c0.6-0.1,1.2-0.2,1.7-0.3c0.1,0,0.2,0,0.2,0.1C32.1,31.7,32.1,31.8,32,31.8z M35.3,30.4
	c-0.5,0.3-1.1,0.6-1.6,0.8c0,0,0,0-0.1,0c-0.1,0-0.1,0-0.1-0.1c0-0.1,0-0.2,0.1-0.2c0.5-0.2,1.1-0.5,1.6-0.8c0.1,0,0.2,0,0.2,0
	C35.4,30.3,35.4,30.4,35.3,30.4z M38.1,28.1c-0.4,0.4-0.9,0.8-1.3,1.2c0,0-0.1,0-0.1,0c0,0-0.1,0-0.1-0.1c0-0.1,0-0.2,0-0.2
	c0.5-0.4,0.9-0.8,1.3-1.2c0.1-0.1,0.1-0.1,0.2,0C38.2,28,38.2,28.1,38.1,28.1z M40.2,25.2c-0.3,0.5-0.6,1-1,1.5c0,0-0.1,0.1-0.1,0.1
	c0,0-0.1,0-0.1,0c-0.1,0-0.1-0.1,0-0.2c0.3-0.5,0.7-1,1-1.5c0-0.1,0.1-0.1,0.2-0.1C40.3,25.1,40.3,25.2,40.2,25.2z M41,23.6
	c0,0.1-0.1,0.1-0.1,0.1c0,0,0,0-0.1,0c-0.1,0-0.1-0.1-0.1-0.2c0.2-0.5,0.4-1.1,0.6-1.7c0-0.1,0.1-0.1,0.2-0.1s0.1,0.1,0.1,0.2
	C41.4,22.5,41.2,23,41,23.6z M42,20.1c0,0.1-0.1,0.1-0.1,0.1c0,0,0,0,0,0c-0.1,0-0.1-0.1-0.1-0.2l0.4-1.8c0-0.1,0.1-0.1,0.2-0.1
	c0.1,0,0.1,0.1,0.1,0.2L42,20.1z M42.7,16.6c0,0.1-0.1,0.1-0.1,0.1c0,0,0,0,0,0c-0.1,0-0.1-0.1-0.1-0.2c0.1-0.6,0.3-1.2,0.5-1.7
	c0-0.1,0.1-0.1,0.2-0.1c0.1,0,0.1,0.1,0.1,0.2C43,15.5,42.8,16,42.7,16.6z M44.8,11.8c-0.3,0.5-0.6,1-0.9,1.5c0,0-0.1,0.1-0.1,0.1
	c0,0,0,0-0.1,0c-0.1,0-0.1-0.1-0.1-0.2c0.3-0.5,0.6-1.1,0.9-1.6c0-0.1,0.1-0.1,0.2,0C44.8,11.6,44.9,11.7,44.8,11.8z M47.2,9.1
	c-0.4,0.4-0.9,0.8-1.3,1.2c0,0-0.1,0-0.1,0c0,0-0.1,0-0.1,0c-0.1-0.1-0.1-0.1,0-0.2c0.4-0.5,0.8-0.9,1.3-1.3c0.1-0.1,0.1,0,0.2,0
	C47.2,9,47.2,9.1,47.2,9.1z M50.1,7.2c-0.5,0.2-1.1,0.5-1.5,0.9c0,0-0.1,0-0.1,0c0,0-0.1,0-0.1-0.1c0-0.1,0-0.2,0-0.2
	c0.5-0.3,1-0.6,1.6-0.9c0.1,0,0.2,0,0.2,0.1C50.2,7.1,50.2,7.2,50.1,7.2z M53.5,6.2c-0.6,0.1-1.2,0.2-1.7,0.4c0,0,0,0,0,0
	c-0.1,0-0.1,0-0.1-0.1c0-0.1,0-0.2,0.1-0.2c0.6-0.2,1.2-0.3,1.8-0.4c0.1,0,0.2,0,0.2,0.1C53.6,6.1,53.6,6.2,53.5,6.2z M57.1,6.1
	h-1.8c-0.1,0-0.1-0.1-0.1-0.1c0-0.1,0.1-0.1,0.1-0.1l1.8,0c0.1,0,0.1,0.1,0.1,0.1C57.2,6.1,57.2,6.1,57.1,6.1z M60.7,6.1l-1.8,0
	c0,0-0.1,0-0.1-0.1c0,0,0.1,0.1,0.1,0.1L60.7,6.1c0.1,0,0.1-0.1,0.1-0.1c0-0.1-0.1-0.1-0.1-0.1l-1.8,0c-0.1,0-0.1,0-0.1,0.1
	c0,0,0.1-0.1,0.1-0.1l1.8,0c0.1,0,0.1,0.1,0.1,0.1C60.8,6.1,60.7,6.1,60.7,6.1z M64.3,6.1l-1.8,0c-0.1,0-0.2-0.1-0.2-0.1
	c0-0.1,0-0.1,0.1-0.1l1.8,0c0.1,0,0.1,0.1,0.1,0.1C64.4,6.1,64.4,6.1,64.3,6.1z M154.2,11.8c-4.3,0-7.3,3.2-7.3,7.5
	c0,5,2.7,7.1,6.7,7.1c4.2,0,7.3-3.2,7.3-7.6C160.9,14,158.2,11.8,154.2,11.8z M153.8,23.3c-2.1,0-3.3-1.5-3.3-4.3s1.7-4.1,3.3-4.1
	c2.1,0,3.2,1.5,3.2,4.2C157.1,21.9,155.7,23.3,153.8,23.3z M129.8,15.6L129.8,15.6c0.2-1.2,0.2-2.6,0.2-3.5h-7.1v2.7h3.8v8.5h-3.8
	v2.8H134v-2.8h-3.8V21c0-3.2,1.4-6,4.3-6c0.8,0,1.5,0.2,2.1,0.5l0.7-3.4c-0.8-0.2-1.5-0.3-2.4-0.3C132.4,11.8,130.7,13.3,129.8,15.6
	z"/>
</svg>
