<?xml version="1.0" encoding="utf-8"?>
<!-- Generator: Adobe Illustrator 18.0.0, SVG Export Plug-In . SVG Version: 6.00 Build 0)  -->
<!DOCTYPE svg PUBLIC "-//W3C//DTD SVG 1.0//EN" "http://www.w3.org/TR/2001/REC-SVG-20010904/DTD/svg10.dtd">
<svg version="1.0" id="Capa_1" xmlns="http://www.w3.org/2000/svg" xmlns:xlink="http://www.w3.org/1999/xlink" x="0px" y="0px"
	 viewBox="0 0 88 88" enable-background="new 0 0 88 88" xml:space="preserve">
<g>
	<path fill="none" d="M78.2,35.6c0-15.6-13.8-27.9-29.8-25.5c-12.6,1.9-22.5,13.2-22.3,25.9c0.2,9.2,4.6,17.2,12.1,21.7v7.1
		c0,1.5,2.3,2.7,3.7,2.7h21c1.5,0,2.7-1.2,2.7-2.7v-7.1C73,53.3,78.2,45,78.2,35.6"/>
	<path fill="none" d="M64.3,75c0-1.4-1.1-2.5-2.5-2.5H40.6c-1.4,0-2.5,1.1-2.5,2.5v7.5c0,1.4,1.1,2.5,2.5,2.5h21.2
		c1.4,0,2.5-1.1,2.5-2.5V75z"/>
	<path fill="#E5007D" d="M31.9,59.8c0.2,0.1,0.6,0.3,1.2,0.3h21c0.7,0,1.2-0.2,1.4-0.3v-7c0-0.7,0.3-1.3,0.9-1.6
		c7.1-4.3,11.4-12,11.4-20.5c0-13.2-10.8-23.9-24.1-23.9c-1.2,0-2.5,0.1-3.8,0.3C28.4,8.8,19.4,19.4,19.6,31.1
		C19.7,39.5,24,47,31,51.2c0.6,0.3,0.9,0.9,0.9,1.6V59.8z M54.2,63.8h-21c-2.9,0-5-1.6-5-3.9v-6.1C20.6,48.9,16,40.5,15.9,31.2
		C15.6,17.6,26,5.4,39.5,3.3C40.9,3.1,42.4,3,43.8,3c15.3,0,27.8,12.4,27.8,27.6c0,9.5-4.6,18.1-12.3,23.2v6.1
		C59.3,62.2,57.2,63.8,54.2,63.8"/>
	<path fill="#F39200" d="M32.5,68.8c-0.3,0-0.6,0.3-0.6,0.6v7.5c0,0.3,0.3,0.6,0.6,0.6h21.2c0.3,0,0.6-0.3,0.6-0.6v-7.5
		c0-0.3-0.3-0.6-0.6-0.6H32.5z M53.7,81.3H32.5c-2.4,0-4.4-2-4.4-4.4v-7.5c0-2.4,2-4.4,4.4-4.4h21.2c2.4,0,4.4,2,4.4,4.4v7.5
		C58.1,79.3,56.1,81.3,53.7,81.3"/>
</g>
</svg>
