<?xml version="1.0" encoding="utf-8"?>
<!-- Generator: Adobe Illustrator 18.0.0, SVG Export Plug-In . SVG Version: 6.00 Build 0)  -->
<!DOCTYPE svg PUBLIC "-//W3C//DTD SVG 1.1//EN" "http://www.w3.org/Graphics/SVG/1.1/DTD/svg11.dtd">
<svg version="1.1" id="Capa_1" xmlns="http://www.w3.org/2000/svg" xmlns:xlink="http://www.w3.org/1999/xlink" x="0px" y="0px"
	 viewBox="0 0 88 88" enable-background="new 0 0 88 88" xml:space="preserve">
<path fill="none" d="M42,22.4c0-5.7,5.2-10.1,10.9-10.1h28.5c6,0,10.9,4.9,10.9,11V78L81,61.4h-7.8"/>
<path fill="none" d="M59.7,8.9H28.4c-6,0-10.9,4.9-10.9,11v59.3L29.6,62h30.1c6,0,10.9-4.8,10.9-10.8V19.8
	C70.6,13.8,65.7,8.9,59.7,8.9"/>
<path fill="#E4032E" d="M28.3,43.9v-4.1c0-1.1-0.9-2-2-2s-2,0.9-2,2v4.1c0,1.1,0.9,2,2,2S28.3,45.1,28.3,43.9 M36.5,43.9v-4.1
	c0-1.1-0.9-2-2-2c-1.1,0-2,0.9-2,2v4.1c0,1.1,0.9,2,2,2C35.6,46,36.5,45.1,36.5,43.9 M44.7,43.9v-4.1c0-1.1-0.9-2-2-2
	c-1.1,0-2,0.9-2,2v4.1c0,1.1,0.9,2,2,2C43.8,46,44.7,45.1,44.7,43.9 M78.7,62.6l-8.2-11c-0.4-0.5-1-0.8-1.6-0.8h-6.5V24.9
	c0-6.8-6.1-12.3-13.6-12.3H32.1c0.7-3.8,4.4-6.8,8.7-6.8h28.5c4.6,0,9.5,3.2,9.5,8.2V62.6z M17.5,16.7h31.3c4.6,0,9.5,3.2,9.5,8.2
	v31.3c0,4.9-4.6,9.5-9.5,9.5H18.7c-0.7,0-1.3,0.3-1.7,0.9L9.3,77.8V24.9C9.3,20,12.6,16.7,17.5,16.7 M82.8,68.7V14
	c0-6.8-6.1-12.3-13.6-12.3H40.8c-6.6,0-12.2,4.9-12.8,10.9H17.5c-7.1,0-12.3,5.2-12.3,12.3v59.3c0,0.9,0.6,1.7,1.4,1.9
	c0.2,0.1,0.4,0.1,0.6,0.1c0.7,0,1.3-0.3,1.7-0.9l10.9-15.6h29c7.1,0,13.6-6.5,13.6-13.6v-1.4h5.4l11.3,15.1c0.4,0.5,1,0.8,1.6,0.8
	c0.2,0,0.4,0,0.6-0.1C82.3,70.4,82.8,69.6,82.8,68.7"/>
</svg>
