<?xml version="1.0" encoding="utf-8"?>
<!-- Generator: Adobe Illustrator 18.0.0, SVG Export Plug-In . SVG Version: 6.00 Build 0)  -->
<!DOCTYPE svg PUBLIC "-//W3C//DTD SVG 1.0//EN" "http://www.w3.org/TR/2001/REC-SVG-20010904/DTD/svg10.dtd">
<svg version="1.0" id="Capa_1" xmlns="http://www.w3.org/2000/svg" xmlns:xlink="http://www.w3.org/1999/xlink" x="0px" y="0px"
	 viewBox="0 0 88 88" enable-background="new 0 0 88 88" xml:space="preserve">
<g>
	<path fill="none" d="M69.4,9.6H35.1c-6.6,0-12.2,5.5-12.2,12.1V86l14-18h32.5C76,68,80,62.6,80,56V21.7C80,15.2,76,9.6,69.4,9.6"/>
	<path fill="#009641" d="M27.5,5.8c-5.8,0-9.7,5.6-9.7,10.9V75l9.9-13.8c0.4-0.5,0.9-0.8,1.5-0.8h32.5c5.5,0,9.4-3.9,9.4-9.5V16.7
		c0-5.2-3.6-10.9-9.4-10.9H27.5z M15.9,82.8c-0.2,0-0.4,0-0.6-0.1c-0.8-0.3-1.3-1-1.3-1.8V16.7C14,8.7,20.2,2,27.5,2h34.3
		C69,2,74.9,8.6,74.9,16.7v34.3c0,7.7-5.5,13.3-13.2,13.3H30.3L17.4,82C17.1,82.5,16.5,82.8,15.9,82.8"/>
	<path fill="#3363AC" d="M40.7,35.5c0.1,1.1,0.3,1.9,0.6,2.5c0.4,0.8,1.1,1.3,2,1.3c0.9,0,1.6-0.4,2-1.3c0.3-0.6,0.5-1.4,0.6-2.5
		l0.7-7.9c0.1-0.8,0.1-1.5,0.1-2.2c0-1.3-0.2-2.4-0.6-3.1c-0.3-0.7-1-1.5-2.7-1.5c-1,0-1.9,0.3-2.5,1c-0.6,0.7-0.9,1.6-0.9,2.7
		c0,0.7,0,1.8,0.1,3.3L40.7,35.5z"/>
	<path fill="#3363AC" d="M41,41.2c-0.6,0.6-1,1.4-1,2.3c0,1,0.4,1.9,1,2.5c0.7,0.6,1.4,0.9,2.3,0.9c0.9,0,1.6-0.3,2.3-0.9
		c0.7-0.6,1-1.4,1-2.4c0-0.9-0.3-1.7-1-2.3C44.4,39.9,42.2,39.9,41,41.2"/>
</g>
</svg>
