<?xml version="1.0" encoding="utf-8"?>
<!-- Generator: Adobe Illustrator 18.0.0, SVG Export Plug-In . SVG Version: 6.00 Build 0)  -->
<!DOCTYPE svg PUBLIC "-//W3C//DTD SVG 1.0//EN" "http://www.w3.org/TR/2001/REC-SVG-20010904/DTD/svg10.dtd">
<svg version="1.0" id="Capa_1" xmlns="http://www.w3.org/2000/svg" xmlns:xlink="http://www.w3.org/1999/xlink" x="0px" y="0px"
	 viewBox="0 0 88 88" enable-background="new 0 0 88 88" xml:space="preserve">
<g>
	<g>
		<path fill="#E5007D" d="M44.4,12.6C27.1,12.6,13,26.7,13,44c0,17.3,14.1,31.4,31.4,31.4S75.8,61.3,75.8,44
			C75.8,26.7,61.7,12.6,44.4,12.6z M72.7,42h-8.5C63.2,32,55,24.5,45,24.1v-8.5C60,16.1,71.7,27,72.7,42z M57.3,45h4
			C60.9,53,54,60.5,45,60.9v-4.1c0-0.8-0.7-1.5-1.5-1.5S42,56,42,56.8v4c-8-1-14.1-7.8-14.5-15.8h2.8c0.8,0,1.5-0.7,1.5-1.5
			S31.2,42,30.3,42h-2.7c1-8,7.4-13.9,14.4-14.8v2.6c0,0.8,0.7,1.5,1.5,1.5s1.5-0.7,1.5-1.5v-2.7C54,27.5,60.2,34,61.2,42h-3.9
			c-0.8,0-1.5,0.7-1.5,1.5S56.5,45,57.3,45z M42,15.7v8.5c-9,1-16.4,7.8-17.4,17.8h-8.5C17.2,28,28,16.7,42,15.7z M16,45h8.5
			C24.9,55,33,62.8,42,63.8v8.5C28,71.3,16.5,59,16,45z M45,72.4v-8.5C56,63.4,63.9,55,64.3,45h8.5C72.4,60,60,71.9,45,72.4z"/>
	</g>
	<path fill="#F39200" d="M44.4,37.4c-3.7,0-6.6,3-6.6,6.6s3,6.6,6.6,6.6s6.6-3,6.6-6.6S48.1,37.4,44.4,37.4z M44.4,47.6
		c-2,0-3.6-1.6-3.6-3.6s1.6-3.6,3.6-3.6s3.6,1.6,3.6,3.6S46.4,47.6,44.4,47.6z"/>
</g>
</svg>
