<?xml version="1.0" encoding="utf-8"?>
<!-- Generator: Adobe Illustrator 18.0.0, SVG Export Plug-In . SVG Version: 6.00 Build 0)  -->
<!DOCTYPE svg PUBLIC "-//W3C//DTD SVG 1.1//EN" "http://www.w3.org/Graphics/SVG/1.1/DTD/svg11.dtd">
<svg version="1.1" id="Capa_1" xmlns="http://www.w3.org/2000/svg" xmlns:xlink="http://www.w3.org/1999/xlink" x="0px" y="0px"
	 viewBox="0 0 275 192" enable-background="new 0 0 275 192" xml:space="preserve">
<g>
	<path fill="none" d="M144,134.4v23.8l33.8,27.3v-63.1C177.9,122.4,163.9,134.4,144,134.4"/>
	<path fill="none" d="M144,134.4v23.8l-33.8,27.3v-60C110.2,125.5,124.4,134.4,144,134.4"/>
	<path fill="none" d="M205.1,75.1c0,32.3-26.2,58.5-58.7,58.5c-32.3,0-58.5-26.2-58.5-58.5s26.2-58.7,58.5-58.7
		C179,16.4,205.1,42.5,205.1,75.1"/>
	<path fill="#E5007D" d="M127.2,131.8v20.7c0,1.3,0.7,2.4,1.5,3.3l33.8,27.3c0.9,0.7,1.7,0.9,2.6,0.9c0.7,0,1.3-0.2,1.7-0.4
		c1.5-0.7,2.4-2.2,2.4-3.7V120c-2.6,2-5.5,3.7-8.5,5.2v45.6l-25.3-20.3v-17.7c5.5-0.4,10.5-1.7,14.8-3.3c-5.7,1.7-11.8,2.6-17.9,2.6
		C130.7,132.2,129,132,127.2,131.8"/>
	<path fill="#E5007D" d="M101.7,126.5c5.7,2.4,14.4,5.5,25.3,6.1v17.9l-25.3,20.5V126.5z M93.6,118.5c-0.2,0.4-0.2,0.9-0.2,1.3v60
		c0,1.5,0.9,3.1,2.4,3.7c0.7,0.2,1.3,0.4,1.7,0.4c0.9,0,2-0.2,2.6-0.9l33.8-27.3c1.1-0.9,1.5-2,1.5-3.3V132c-1.1,0-2,0.2-3.1,0.2
		C117.9,132.2,104.3,127,93.6,118.5"/>
	<path fill="#F39200" d="M131.4,92.5c-2.4,0-4.1-2-4.1-4.1V58.3l-3.9,5c-1.3,2-3.9,2.2-5.9,0.9c-2-1.3-2.2-3.9-0.9-5.9l11.3-15.5
		c1.1-1.5,3.1-2.2,4.8-1.5c1.7,0.7,2.8,2.2,2.8,3.9v43C135.5,90.5,133.8,92.5,131.4,92.5"/>
	<path fill="#F39200" d="M144,93.8h-28.1c-2.4,0-4.1-2-4.1-4.1c0-2.4,2-4.1,4.1-4.1H144c2.4,0,4.1,2,4.1,4.1
		C148.4,92.1,146.4,93.8,144,93.8"/>
	<path fill="#E5007D" d="M132.5,15.1c-29.9,0-54.3,24.4-54.3,54.3s24.4,54.3,54.3,54.3s54.3-24.4,54.3-54.3
		C187,39.5,162.6,15.1,132.5,15.1 M132.5,132.2c-34.5,0-62.6-28.1-62.6-62.8S98,6.5,132.5,6.5s62.8,28.1,62.8,62.8
		S167.2,132.2,132.5,132.2"/>
</g>
</svg>
