<?xml version="1.0" encoding="utf-8"?>
<!-- Generator: Adobe Illustrator 18.0.0, SVG Export Plug-In . SVG Version: 6.00 Build 0)  -->
<!DOCTYPE svg PUBLIC "-//W3C//DTD SVG 1.1//EN" "http://www.w3.org/Graphics/SVG/1.1/DTD/svg11.dtd">
<svg version="1.1" id="Capa_1" xmlns="http://www.w3.org/2000/svg" xmlns:xlink="http://www.w3.org/1999/xlink" x="0px" y="0px"
	 viewBox="0 0 88 88" enable-background="new 0 0 88 88" xml:space="preserve">
<g>
	<path fill="none" d="M43.5,52.2c-1.3-1.5-3-2.7-4.4-3.6V21.8c0-1.3-1.6-1.6-2.9-1.6h-8c-1.3,0-2.7,0.3-2.7,1.6V49
		c-4,2.3-7.1,7-7.1,12.3c0,7.7,6.4,13.9,14.1,13.9c1.9,0,3.9-0.4,5.6-1.1"/>
	<path fill="none" d="M67.4,49.2V10.1c0-1.8-1.6-3.4-3.4-3.4H52.4c-1.8,0-3.8,1.5-3.8,3.4v39.6c-5.4,3.4-10.3,10.2-10.3,18
		c0,11.2,9.4,20.3,20.6,20.3s20.5-9.1,20.5-20.3C79.3,59.4,72.8,52.3,67.4,49.2"/>
	<path fill="#E4032E" d="M69.6,63.7c0,9.9-8.6,18.3-18.7,18.3c-10.1,0-18.4-8.2-18.4-18.3c0-7,4.9-13.2,9.7-16.3
		c0.6-0.4,0.9-1,0.9-1.7V35.1h5.4c1.1,0,2-0.9,2-2s-0.9-2-2-2h-5.4V23h5.4c1.1,0,2-0.9,2-2c0-1.1-0.9-2-2-2h-5.4v-5.4h5.4
		c1.1,0,2-0.9,2-2c0-1.1-0.9-2-2-2h-5.4V6.1c0-1,0.7-2,1.1-2h11.6c0.7,0,2.1,1.3,2.1,2v39.1c0,0.7,0.4,1.4,1,1.7
		C64.1,49.9,69.6,56.4,69.6,63.7 M34,49.3c-3.1,3.7-5.6,8.6-5.6,14.4c0,1.7,0.2,3.3,0.5,4.8c-1.3,0.4-2.8,0.7-4.3,0.7
		c-6.6,0-11.9-5.3-11.9-11.9c0-4.2,2.5-8.3,6.4-10.6c0.6-0.4,1-1,1-1.8v-4.4h4c1.1,0,2-0.9,2-2s-0.9-2-2-2h-4v-4h4c1.1,0,2-0.9,2-2
		s-0.9-2-2-2h-4v-2.7h4c1.1,0,2-0.9,2-2c0-1.1-0.9-2-2-2h-4v-3.8c0-0.1,0-0.2,0-0.2h7.9c0.4,0,1.2,0.3,1.5,0.6v26.5
		c0,0.7,0.4,1.4,1,1.7C31.7,47,32.9,48,34,49.3 M73.6,63.7c0-8.4-5.7-15.8-11.6-19.7V6.1C62,3.1,58.9,0,55.9,0H44.3
		c-3,0-5.2,3.2-5.2,6.1v38.5c-0.7,0.5-1.5,1.1-2.2,1.8c-1-1.1-2.1-2.1-3.2-2.9V17.8c0-2.8-3.6-4.3-5.6-4.3h-8c-2.3,0-4,1.8-4,4.3
		v26.1c-4.5,3.1-7.4,8.2-7.4,13.5c0,8.8,7.2,16,16,16c1.9,0,3.8-0.3,5.5-0.9c3.4,8,11.4,13.6,20.7,13.6C63.4,86,73.6,76,73.6,63.7"
		/>
</g>
</svg>
