<?xml version="1.0" encoding="utf-8"?>
<!-- Generator: Adobe Illustrator 18.0.0, SVG Export Plug-In . SVG Version: 6.00 Build 0)  -->
<!DOCTYPE svg PUBLIC "-//W3C//DTD SVG 1.1//EN" "http://www.w3.org/Graphics/SVG/1.1/DTD/svg11.dtd">
<svg version="1.1" id="Capa_1" xmlns="http://www.w3.org/2000/svg" xmlns:xlink="http://www.w3.org/1999/xlink" x="0px" y="0px"
	 viewBox="0 0 88 88" enable-background="new 0 0 88 88" xml:space="preserve">
<g>
	<path fill="none" d="M23,73.7C23,59.5,34.5,48,48.8,48s25.7,11.5,25.7,25.7"/>
	<path fill="none" d="M62.8,33.1c0,7.8-6.3,14.1-14.1,14.1c-7.8,0-14.1-6.3-14.1-14.1S41,19.1,48.8,19.1
		C56.5,19.1,62.8,25.4,62.8,33.1"/>
	<path fill="#FFFFFF" d="M43.3,42.4c-6.6,0-12-5.4-12-12s5.4-12,12-12c6.6,0,12,5.4,12,12S49.9,42.4,43.3,42.4 M51.3,44.4
		c4.8-2.8,8.1-8,8.1-14c0-8.9-7.2-16.1-16.1-16.1c-8.9,0-16.1,7.2-16.1,16.1c0,6,3.3,11.2,8.1,14C23.9,47.8,15.5,58.4,15.5,71
		c0,1.1,0.9,2,2,2c1.1,0,2-0.9,2-2c0-13.1,10.6-23.7,23.7-23.7C56.4,47.3,67,57.9,67,71c0,1.1,0.9,2,2,2s2-0.9,2-2
		C71.1,58.4,62.7,47.8,51.3,44.4"/>
</g>
</svg>
