<?xml version="1.0" encoding="utf-8"?>
<!-- Generator: Adobe Illustrator 18.0.0, SVG Export Plug-In . SVG Version: 6.00 Build 0)  -->
<!DOCTYPE svg PUBLIC "-//W3C//DTD SVG 1.1//EN" "http://www.w3.org/Graphics/SVG/1.1/DTD/svg11.dtd">
<svg version="1.1" id="Capa_1" xmlns="http://www.w3.org/2000/svg" xmlns:xlink="http://www.w3.org/1999/xlink" x="0px" y="0px"
	 viewBox="0 0 88 88" enable-background="new 0 0 88 88" xml:space="preserve">
<g>
	<g>
		<path fill="none" d="M28.4,47.2c-11.6,0-21,8.9-21,21.1H23l16.1-18.2C36,48.3,32.4,47.2,28.4,47.2 M69.1,47.3
			c5.3-1.1,9.3-6.1,9.3-11.7c0-6.4-5.8-11.9-12.2-11.9h-4.8c-2.5-2.7-6.1-4.4-10.1-4.4c-7.5,0-13.6,6-13.9,13.4l-0.5-6
			c-2.1-2.1-5-3.4-8.1-3.4c-6.4,0-11.5,5.2-11.5,11.5s5.2,11.5,11.5,11.5c3.9,0,7.4-2,9.5-5l-0.5-5.1c1.4,6.2,7,10.9,13.6,10.9
			c1.5,0,3-0.3,4.4-0.7v21.8h21.6H88C88,57.5,79.7,48.4,69.1,47.3"/>
		<path fill="none" d="M25.6,73.5c0-14.1,11.4-25.5,25.5-25.5c14.1,0,25.5,11.4,25.5,25.5"/>
		<path fill="#FFFFFF" d="M80.5,62.9h-8.3C69.5,54,62.5,47,53.7,44.4c4.8-2.8,8.1-7.9,8.1-13.9c0-2.7-0.7-5.3-1.9-7.6
			c0.3,0.1,0.6,0.2,0.9,0.2c5.3,0,10.2,4.7,10.2,9.9c0,4.5-3.2,8.3-7.7,9.2c-1,0.2-1.7,1.1-1.6,2.1c0,1,0.8,1.8,1.8,1.9
			C72.5,47.2,79.5,54.2,80.5,62.9 M57.6,30.5c0,6.6-5.3,11.9-11.9,11.9c-6.6,0-11.9-5.3-11.9-11.9s5.3-11.9,11.9-11.9
			C52.3,18.6,57.6,24,57.6,30.5 M33.5,40.8c1.2,1.4,2.7,2.7,4.3,3.6c-1,0.3-2,0.6-2.9,1c0,0-0.1-0.1-0.1-0.1
			c-1.4-0.8-2.7-1.4-4.1-1.9C31.7,42.7,32.7,41.8,33.5,40.8 M29.7,30.5c0,2.4,0.5,4.7,1.5,6.7c-0.1,0.1-0.2,0.2-0.3,0.3
			c-1.8,2.6-4.7,4.1-7.8,4.1c-5.2,0-9.5-4.3-9.5-9.5c0-5.2,4.3-9.5,9.5-9.5c2.5,0,4.9,1,6.7,2.8c0.2,0.2,0.4,0.3,0.6,0.4
			C30,27.3,29.7,28.9,29.7,30.5 M23,46c2.6,0,5.1,0.6,7.6,1.7c-5.6,3.7-9.7,9.3-11.5,15.9c-0.4-0.4-0.9-0.7-1.5-0.7H4.2
			C5.1,53.2,12.9,46,23,46 M69.8,43.6C73,41.2,75,37.3,75,33.1c0-7.4-6.7-13.9-14.3-13.9c-1.1,0-2,0.9-2,2c0,0,0,0,0,0.1
			c-2.9-4-7.6-6.7-13-6.7c-5.7,0-10.7,3-13.6,7.6c-2.5-2.3-5.7-3.5-9-3.5c-7.5,0-13.6,6.1-13.6,13.6c0,4.6,2.3,8.6,5.8,11.1
			C6.2,46.3,0,54.6,0,64.9c0,1.1,0.9,2,2,2h15.6c0.3,0,0.6-0.1,0.9-0.2c-0.2,1.3-0.3,2.7-0.3,4c0,1.1,0.9,2,2,2c1.1,0,2-0.9,2-2
			c0-13,10.5-23.5,23.5-23.5c13,0,23.5,10.5,23.5,23.5c0,1.1,0.9,2,2,2c1.1,0,2-0.9,2-2c0-1.3-0.1-2.6-0.3-3.8h9.6c1.1,0,2-0.9,2-2
			C84.6,55.3,78.6,47,69.8,43.6"/>
	</g>
</g>
</svg>
