<?xml version="1.0" encoding="utf-8"?>
<!-- Generator: Adobe Illustrator 18.0.0, SVG Export Plug-In . SVG Version: 6.00 Build 0)  -->
<!DOCTYPE svg PUBLIC "-//W3C//DTD SVG 1.0//EN" "http://www.w3.org/TR/2001/REC-SVG-20010904/DTD/svg10.dtd">
<svg version="1.0" id="Capa_1" xmlns="http://www.w3.org/2000/svg" xmlns:xlink="http://www.w3.org/1999/xlink" x="0px" y="0px"
	 viewBox="0 0 88 88" enable-background="new 0 0 88 88" xml:space="preserve">
<g>
	<path fill="none" d="M69.5,64.2h10.6c0-10.6-8.1-19.4-18.5-20.6c5.2-1,9.1-5.9,9.1-11.4c0-6.3-5.7-11.7-12-11.7H48.4v43.6H69.5z"/>
	<path fill="none" d="M19.1,69.2c0-13.8,11.2-25,25-25c13.8,0,25,11.2,25,25"/>
	<path fill="none" d="M57.7,29.9c0,7.5-6.1,13.6-13.6,13.6c-7.5,0-13.6-6.1-13.6-13.6s6.1-13.6,13.6-13.6
		C51.6,16.2,57.7,22.3,57.7,29.9"/>
	<path fill="#E5007D" d="M38.8,19.5c-6.4,0-11.7,5.2-11.7,11.7c0,6.4,5.2,11.7,11.7,11.7c6.4,0,11.7-5.2,11.7-11.7
		C50.5,24.7,45.2,19.5,38.8,19.5 M38.8,46.8c-8.6,0-15.6-7-15.6-15.6s7-15.6,15.6-15.6c8.6,0,15.6,7,15.6,15.6S47.4,46.8,38.8,46.8"
		/>
	<path fill="#F39200" d="M74.8,66.8H64.2c-1.1,0-2-0.9-2-2c0-1.1,0.9-2,2-2h8.5c-0.9-8.5-7.8-15.3-16.6-16.3c-1-0.1-1.7-0.9-1.8-1.9
		c0-1,0.6-1.8,1.6-2c4.4-0.9,7.5-4.6,7.5-9c0-5-4.8-9.6-10-9.6c-1.1,0-2-0.9-2-2c0-1.1,0.9-2,2-2c7.4,0,14,6.4,14,13.6
		c0,4.2-1.9,7.9-5.1,10.3c8.6,3.3,14.5,11.4,14.5,20.8C76.8,65.9,75.9,66.8,74.8,66.8"/>
	<path fill="#E5007D" d="M63.7,72.5c-1.1,0-2-0.9-2-2c0-12.7-10.3-23-23-23c-12.7,0-23,10.3-23,23c0,1.1-0.9,2-2,2c-1.1,0-2-0.9-2-2
		c0-14.9,12.1-26.9,26.9-26.9c14.9,0,26.9,12.1,26.9,26.9C65.7,71.6,64.8,72.5,63.7,72.5"/>
</g>
</svg>
