<?xml version="1.0" standalone="no"?>
<!DOCTYPE svg PUBLIC "-//W3C//DTD SVG 1.1//EN" "http://www.w3.org/Graphics/SVG/1.1/DTD/svg11.dtd" >
<svg xmlns="http://www.w3.org/2000/svg">
<metadata>Generated by IcoMoon</metadata>
<defs>
<font id="bonicons" horiz-adv-x="1024">
<font-face units-per-em="1024" ascent="960" descent="-64" />
<missing-glyph horiz-adv-x="1024" />
<glyph unicode="&#x20;" horiz-adv-x="512" d="" />
<glyph unicode="&#xe900;" glyph-name="twitter" d="M981.333 741.333c-34.133-14.933-71.467-25.6-110.933-30.933 39.467 23.467 70.4 61.867 84.267 107.733-37.333-22.4-78.933-38.4-122.667-46.933-35.2 37.333-85.333 60.8-140.8 60.8-106.667 0-193.067-86.4-193.067-194.133 0-14.933 2.133-29.867 5.333-43.733-160 8.533-301.867 85.333-396.8 202.667-17.067-28.8-25.6-61.867-25.6-97.067 0-67.2 34.133-126.933 85.333-161.067-32 1.067-60.8 9.6-87.467 24.533 0-1.067 0-2.133 0-2.133 0-93.867 66.133-172.8 154.667-189.867-16-4.267-33.067-6.4-51.2-6.4-12.8 0-24.533 1.067-36.267 3.2 24.533-76.8 96-133.333 180.267-134.4-66.133-52.267-149.333-83.2-238.933-83.2-16 0-30.933 1.067-45.867 3.2 86.4-57.6 187.733-89.6 296.533-89.6 354.133 0 547.2 295.467 547.2 551.467 0 8.533 0 17.067-1.067 25.6 38.4 26.667 71.467 60.8 97.067 100.267z" />
<glyph unicode="&#xe901;" glyph-name="facebook" d="M585.6-21.333v427.733h145.067l21.333 166.4h-166.4v106.667c0 48 13.867 81.067 83.2 81.067h88.533v149.333c-14.933 3.2-68.267 7.467-129.067 7.467-128 0-216.533-77.867-216.533-220.8v-122.667h-145.067v-166.4h145.067v-428.8h173.867z" />
<glyph unicode="&#xe902;" glyph-name="google" d="M537.6 381.867l-44.8 34.133c-13.867 10.667-32 25.6-32 52.267s18.133 43.733 34.133 59.733c51.2 40.533 103.467 83.2 103.467 173.867 0 92.8-58.667 141.867-87.467 165.333h75.733l81.067 50.133h-242.133c-66.133 0-162.133-16-232.533-73.6-52.267-44.8-78.933-107.733-78.933-164.267 0-96 73.6-192 203.733-192 12.8 0 25.6 1.067 39.467 2.133-6.4-14.933-11.733-26.667-11.733-48 0-38.4 19.2-60.8 37.333-83.2-55.467-4.267-158.933-9.6-234.667-56.533-72.533-42.667-94.933-105.6-94.933-149.333 0-89.6 85.333-173.867 263.467-173.867 211.2 0 323.2 116.267 323.2 231.467 0 84.267-49.067 125.867-102.4 171.733zM376.533 522.667c-105.6 0-153.6 135.467-153.6 217.6 0 32 6.4 65.067 26.667 90.667 19.2 24.533 54.4 40.533 86.4 40.533 101.333 0 154.667-137.6 154.667-226.133 0-22.4-2.133-60.8-30.933-89.6-19.2-19.2-52.267-33.067-83.2-33.067zM377.6 29.867c-131.2 0-216.533 62.933-216.533 149.333 0 87.467 78.933 116.267 105.6 125.867 51.2 17.067 118.4 19.2 129.067 19.2 12.8 0 18.133 0 27.733-1.067 92.8-66.133 133.333-99.2 133.333-162.133 1.067-74.667-61.867-131.2-179.2-131.2zM846.933 523.733v122.667h-60.8v-122.667h-122.667v-60.8h122.667v-122.667h60.8v122.667h123.733v60.8z" />
<glyph unicode="&#xe903;" glyph-name="linkedin" d="M156.8 896c-69.333 0-114.133-44.8-114.133-104.533 0-57.6 43.733-104.533 110.933-104.533h1.067c70.4 0 114.133 46.933 114.133 104.533-1.067 59.733-43.733 104.533-112 104.533zM54.4 604.8h201.6v-604.8h-201.6v604.8zM749.867 618.667c-106.667 0-154.667-58.667-181.333-100.267v85.333h-201.6c2.133-56.533 0-604.8 0-604.8h201.6v338.133c0 18.133 1.067 36.267 6.4 49.067 14.933 36.267 48 73.6 103.467 73.6 72.533 0 102.4-55.467 102.4-136.533v-323.2h200.533v346.667c0 185.6-99.2 272-231.467 272z" />
<glyph unicode="&#xe910;" glyph-name="rss" d="M186.667 259.2c-74.667 0-136.533-60.8-136.533-135.467s60.8-135.467 136.533-135.467c74.667 0 136.533 60.8 136.533 135.467-1.067 74.667-61.867 135.467-136.533 135.467zM42.667 919.467v-155.733c437.333 0 785.067-358.4 785.067-785.067h155.733c0 522.667-407.467 940.8-940.8 940.8zM42.667 628.267v-155.733c277.333 0 493.867-227.2 493.867-493.867h155.733c-1.067 352-276.267 649.6-649.6 649.6z" />
<glyph unicode="&#xe9a5;" glyph-name="home-medium" d="M1022.933 476.8l-83.2 380.8c-2.133 9.6-10.667 17.067-21.333 17.067h-555.733v64c0 11.733-9.6 21.333-21.333 21.333h-149.333c-11.733 0-21.333-9.6-21.333-21.333v-64h-66.133c-9.6 0-19.2-7.467-21.333-17.067l-83.2-384c-1.067-6.4 0-12.8 4.267-18.133 4.267-4.267 10.667-7.467 17.067-7.467h64v-490.667c0-11.733 9.6-21.333 21.333-21.333h810.667c11.733 0 21.333 9.6 21.333 21.333v490.667h64c11.733 0 21.333 9.6 21.333 21.333 0 2.133 0 5.333-1.067 7.467zM213.333 917.333h106.667v-42.667h-106.667v42.667zM608-21.333h-192v184.533c0 51.2 42.667 92.8 96 92.8s96-41.6 96-92.8v-184.533zM896-21.333h-245.333v184.533c0 74.667-61.867 135.467-138.667 135.467s-138.667-60.8-138.667-135.467v-184.533h-245.333v469.333h768v-469.333zM48 490.667l74.667 341.333h779.733l74.667-341.333h-929.067z" />
<glyph unicode="&#xe9a6;" glyph-name="menu-3-medium" d="M21.333 746.667h981.333c11.733 0 21.333 9.6 21.333 21.333s-9.6 21.333-21.333 21.333h-981.333c-11.733 0-21.333-9.6-21.333-21.333s9.6-21.333 21.333-21.333zM1002.667 149.333h-981.333c-11.733 0-21.333-9.6-21.333-21.333s9.6-21.333 21.333-21.333h981.333c11.733 0 21.333 9.6 21.333 21.333s-9.6 21.333-21.333 21.333zM1002.667 469.333h-981.333c-11.733 0-21.333-9.6-21.333-21.333s9.6-21.333 21.333-21.333h981.333c11.733 0 21.333 9.6 21.333 21.333s-9.6 21.333-21.333 21.333z" />
<glyph unicode="&#xe9a7;" glyph-name="menu-4-medium" d="M1002.667 106.667h-981.333c-11.733 0-21.333-9.6-21.333-21.333s9.6-21.333 21.333-21.333h981.333c11.733 0 21.333 9.6 21.333 21.333s-9.6 21.333-21.333 21.333zM21.333 789.333h981.333c11.733 0 21.333 9.6 21.333 21.333s-9.6 21.333-21.333 21.333h-981.333c-11.733 0-21.333-9.6-21.333-21.333s9.6-21.333 21.333-21.333zM1002.667 589.867h-981.333c-11.733 0-21.333-9.6-21.333-21.333s9.6-21.333 21.333-21.333h981.333c11.733 0 21.333 9.6 21.333 21.333s-9.6 21.333-21.333 21.333zM1002.667 348.8h-981.333c-11.733 0-21.333-9.6-21.333-21.333s9.6-21.333 21.333-21.333h981.333c11.733 0 21.333 9.6 21.333 21.333s-9.6 21.333-21.333 21.333z" />
<glyph unicode="&#xe9a8;" glyph-name="menu-4-medium2" d="M32 160c-18.133 0-32-13.867-32-32s13.867-32 32-32 32 13.867 32 32-13.867 32-32 32zM202.667 746.667h800c11.733 0 21.333 9.6 21.333 21.333s-9.6 21.333-21.333 21.333h-800c-11.733 0-21.333-9.6-21.333-21.333s9.6-21.333 21.333-21.333zM32 480c-18.133 0-32-13.867-32-32s13.867-32 32-32 32 13.867 32 32-13.867 32-32 32zM1002.667 469.333h-800c-11.733 0-21.333-9.6-21.333-21.333s9.6-21.333 21.333-21.333h800c11.733 0 21.333 9.6 21.333 21.333s-9.6 21.333-21.333 21.333zM1002.667 149.333h-800c-11.733 0-21.333-9.6-21.333-21.333s9.6-21.333 21.333-21.333h800c11.733 0 21.333 9.6 21.333 21.333s-9.6 21.333-21.333 21.333zM32 800c-18.133 0-32-13.867-32-32s13.867-32 32-32 32 13.867 32 32-13.867 32-32 32z" />
<glyph unicode="&#xe9a9;" glyph-name="layout-medium" d="M1002.667 373.333h-394.667c-11.733 0-21.333-9.6-21.333-21.333v-394.667c0-11.733 9.6-21.333 21.333-21.333h394.667c11.733 0 21.333 9.6 21.333 21.333v394.667c0 11.733-9.6 21.333-21.333 21.333zM981.333-21.333h-352v352h352v-352zM416 373.333h-394.667c-11.733 0-21.333-9.6-21.333-21.333v-394.667c0-11.733 9.6-21.333 21.333-21.333h394.667c11.733 0 21.333 9.6 21.333 21.333v394.667c0 11.733-9.6 21.333-21.333 21.333zM394.667-21.333h-352v352h352v-352zM416 960h-394.667c-11.733 0-21.333-9.6-21.333-21.333v-394.667c0-11.733 9.6-21.333 21.333-21.333h394.667c11.733 0 21.333 9.6 21.333 21.333v394.667c0 11.733-9.6 21.333-21.333 21.333zM394.667 565.333h-352v352h352v-352zM1002.667 960h-394.667c-11.733 0-21.333-9.6-21.333-21.333v-394.667c0-11.733 9.6-21.333 21.333-21.333h394.667c11.733 0 21.333 9.6 21.333 21.333v394.667c0 11.733-9.6 21.333-21.333 21.333zM981.333 565.333h-352v352h352v-352z" />
<glyph unicode="&#xe9aa;" glyph-name="layout-out-medium" d="M430.933 366.933c-8.533 8.533-21.333 8.533-29.867 0l-182.4-182.4-182.4 182.4c-8.533 8.533-21.333 8.533-29.867 0s-8.533-21.333 0-29.867l182.4-182.4-182.4-182.4c-8.533-8.533-8.533-21.333 0-29.867 4.267-4.267 9.6-6.4 14.933-6.4s10.667 2.133 14.933 6.4l182.4 182.4 182.4-182.4c4.267-4.267 9.6-6.4 14.933-6.4s10.667 2.133 14.933 6.4c8.533 8.533 8.533 21.333 0 29.867l-182.4 182.4 182.4 182.4c8.533 8.533 8.533 21.333 0 29.867zM835.2 741.333l182.4 182.4c8.533 8.533 8.533 21.333 0 29.867s-21.333 8.533-29.867 0l-182.4-182.4-182.4 182.4c-8.533 8.533-21.333 8.533-29.867 0s-8.533-21.333 0-29.867l182.4-182.4-182.4-182.4c-8.533-8.533-8.533-21.333 0-29.867 4.267-4.267 9.6-6.4 14.933-6.4s10.667 2.133 14.933 6.4l182.4 182.4 182.4-182.4c4.267-4.267 9.6-6.4 14.933-6.4s10.667 2.133 14.933 6.4c8.533 8.533 8.533 21.333 0 29.867l-182.4 182.4zM1002.667 373.333h-394.667c-11.733 0-21.333-9.6-21.333-21.333v-394.667c0-11.733 9.6-21.333 21.333-21.333h394.667c11.733 0 21.333 9.6 21.333 21.333v394.667c0 11.733-9.6 21.333-21.333 21.333zM981.333-21.333h-352v352h352v-352zM416 960h-394.667c-11.733 0-21.333-9.6-21.333-21.333v-394.667c0-11.733 9.6-21.333 21.333-21.333h394.667c11.733 0 21.333 9.6 21.333 21.333v394.667c0 11.733-9.6 21.333-21.333 21.333zM394.667 565.333h-352v352h352v-352z" />
<glyph unicode="&#xe9ab;" glyph-name="ribbon-medium" d="M832 960h-640c-11.733 0-21.333-9.6-21.333-21.333v-981.333c0-7.467 4.267-14.933 10.667-18.133 6.4-4.267 14.933-3.2 21.333 0l308.267 192 308.267-192c3.2-2.133 7.467-3.2 11.733-3.2 3.2 0 7.467 1.067 10.667 3.2 6.4 4.267 10.667 10.667 10.667 18.133v981.333c1.067 11.733-8.533 21.333-20.267 21.333zM810.667-4.267l-286.933 178.133c-3.2 2.133-7.467 3.2-11.733 3.2s-7.467-1.067-11.733-3.2l-286.933-178.133v921.6h597.333v-921.6z" />
<glyph unicode="&#xe9ac;" glyph-name="ribbon-star-medium" d="M832 960h-640c-11.733 0-21.333-9.6-21.333-21.333v-981.333c0-7.467 4.267-14.933 10.667-18.133 6.4-4.267 14.933-3.2 21.333 0l308.267 192 308.267-192c3.2-2.133 7.467-3.2 11.733-3.2 3.2 0 7.467 1.067 10.667 3.2 6.4 4.267 10.667 10.667 10.667 18.133v981.333c1.067 11.733-8.533 21.333-20.267 21.333zM810.667-4.267l-286.933 178.133c-3.2 2.133-7.467 3.2-11.733 3.2s-7.467-1.067-11.733-3.2l-286.933-178.133v921.6h597.333v-921.6zM397.867 542.933l-19.2-112c-1.067-7.467 2.133-16 8.533-21.333 3.2-3.2 8.533-4.267 12.8-4.267 3.2 0 6.4 1.067 9.6 2.133l102.4 53.333 102.4-53.333c7.467-4.267 16-3.2 22.4 2.133 6.4 4.267 9.6 12.8 8.533 21.333l-19.2 112 82.133 80c5.333 5.333 7.467 13.867 5.333 22.4-2.133 7.467-9.6 13.867-17.067 14.933l-114.133 16-51.2 102.4c-3.2 7.467-10.667 11.733-19.2 11.733s-16-4.267-19.2-11.733l-51.2-102.4-114.133-16c-8.533-1.067-14.933-6.4-17.067-14.933-2.133-7.467 0-16 5.333-22.4l82.133-80zM458.667 634.667c6.4 1.067 12.8 5.333 16 11.733l37.333 73.6 37.333-73.6c3.2-6.4 9.6-10.667 16-11.733l82.133-11.733-59.733-57.6c-5.333-5.333-7.467-11.733-6.4-19.2l13.867-81.067-73.6 38.4c-3.2 2.133-6.4 2.133-9.6 2.133s-6.4-1.067-9.6-2.133l-73.6-38.4 13.867 81.067c1.067 7.467-1.067 13.867-6.4 19.2l-59.733 57.6 82.133 11.733z" />
<glyph unicode="&#xe9ad;" glyph-name="label-medium" d="M1017.6 420.267l-533.333 533.333c-5.333 5.333-11.733 7.467-19.2 5.333l-375.467-71.467c-8.533-2.133-14.933-8.533-17.067-17.067l-72.533-375.467c-1.067-7.467 1.067-13.867 5.333-19.2l534.4-534.4c4.267-4.267 9.6-6.4 14.933-6.4s10.667 2.133 14.933 6.4l446.933 446.933c9.6 9.6 9.6 23.467 1.067 32zM555.733-12.8l-510.933 510.933 67.2 349.867 349.867 67.2 510.933-510.933-417.067-417.067zM256 789.333c-46.933 0-85.333-38.4-85.333-85.333s38.4-85.333 85.333-85.333 85.333 38.4 85.333 85.333-38.4 85.333-85.333 85.333zM256 661.333c-23.467 0-42.667 19.2-42.667 42.667s19.2 42.667 42.667 42.667 42.667-19.2 42.667-42.667-19.2-42.667-42.667-42.667z" />
<glyph unicode="&#xe9ae;" glyph-name="label-lines-medium" d="M339.2 450.133c-8.533 8.533-21.333 8.533-29.867 0s-8.533-21.333 0-29.867l241.067-241.067c4.267-4.267 9.6-6.4 14.933-6.4s10.667 2.133 14.933 6.4c8.533 8.533 8.533 21.333 0 29.867l-241.067 241.067zM341.333 704c0 46.933-38.4 85.333-85.333 85.333s-85.333-38.4-85.333-85.333c0-46.933 38.4-85.333 85.333-85.333s85.333 38.4 85.333 85.333zM256 661.333c-23.467 0-42.667 19.2-42.667 42.667s19.2 42.667 42.667 42.667 42.667-19.2 42.667-42.667c0-23.467-19.2-42.667-42.667-42.667zM1017.6 420.267l-533.333 533.333c-5.333 5.333-11.733 7.467-19.2 5.333l-375.467-71.467c-8.533-2.133-14.933-8.533-17.067-17.067l-72.533-375.467c-1.067-7.467 1.067-13.867 5.333-19.2l534.4-534.4c4.267-4.267 9.6-6.4 14.933-6.4s10.667 2.133 14.933 6.4l446.933 446.933c9.6 9.6 9.6 23.467 1.067 32zM555.733-12.8l-510.933 510.933 67.2 349.867 349.867 67.2 510.933-510.933-417.067-417.067zM761.6 389.333c4.267-4.267 9.6-6.4 14.933-6.4s10.667 2.133 14.933 6.4c8.533 8.533 8.533 21.333 0 29.867l-241.067 242.133c-8.533 8.533-21.333 8.533-29.867 0s-8.533-21.333 0-29.867l241.067-242.133zM445.867 556.8c-8.533 8.533-21.333 8.533-29.867 0s-8.533-21.333 0-29.867l241.067-241.067c4.267-4.267 9.6-6.4 14.933-6.4s10.667 2.133 14.933 6.4c8.533 8.533 8.533 21.333 0 29.867l-241.067 241.067z" />
<glyph unicode="&#xe9af;" glyph-name="dialog-medium" d="M1002.667 874.667h-981.333c-11.733 0-21.333-9.6-21.333-21.333v-665.6c0-11.733 9.6-21.333 21.333-21.333h170.667l106.667-137.6c4.267-5.333 10.667-8.533 17.067-8.533s12.8 3.2 17.067 8.533l106.667 137.6h563.2c11.733 0 21.333 9.6 21.333 21.333v665.6c0 11.733-9.6 21.333-21.333 21.333zM981.333 209.067h-552.533c-6.4 0-12.8-3.2-17.067-8.533l-96-123.733-96 123.733c-4.267 5.333-10.667 8.533-17.067 8.533h-160v622.933h938.667v-622.933z" />
<glyph unicode="&#xe9b0;" glyph-name="dialog-dots-medium" d="M682.667 480c18.133 0 32 13.867 32 32s-13.867 32-32 32-32-13.867-32-32 13.867-32 32-32zM512 480c18.133 0 32 13.867 32 32s-13.867 32-32 32-32-13.867-32-32 13.867-32 32-32zM1002.667 874.667h-981.333c-11.733 0-21.333-9.6-21.333-21.333v-665.6c0-11.733 9.6-21.333 21.333-21.333h170.667l106.667-137.6c4.267-5.333 10.667-8.533 17.067-8.533s12.8 3.2 17.067 8.533l106.667 137.6h563.2c11.733 0 21.333 9.6 21.333 21.333v665.6c0 11.733-9.6 21.333-21.333 21.333zM981.333 209.067h-552.533c-6.4 0-12.8-3.2-17.067-8.533l-96-123.733-96 123.733c-4.267 5.333-10.667 8.533-17.067 8.533h-160v622.933h938.667v-622.933zM341.333 480c18.133 0 32 13.867 32 32s-13.867 32-32 32-32-13.867-32-32 13.867-32 32-32z" />
<glyph unicode="&#xe9b1;" glyph-name="dialog-double-medium" d="M1002.667 960h-810.667c-11.733 0-21.333-9.6-21.333-21.333v-320h-149.333c-11.733 0-21.333-9.6-21.333-21.333v-524.8c0-11.733 9.6-21.333 21.333-21.333h138.667l87.467-106.667c4.267-5.333 9.6-7.467 17.067-7.467s12.8 3.2 17.067 7.467l87.467 106.667h462.933c11.733 0 21.333 9.6 21.333 21.333v320h149.333c11.733 0 21.333 9.6 21.333 21.333v524.8c0 11.733-9.6 21.333-21.333 21.333zM810.667 93.867h-453.333c-6.4 0-12.8-3.2-17.067-7.467l-76.8-94.933-76.8 93.867c-4.267 5.333-9.6 7.467-17.067 7.467h-126.933v483.2h768v-482.133zM981.333 435.2h-128v162.133c0 11.733-9.6 21.333-21.333 21.333h-618.667v298.667h768v-482.133z" />
<glyph unicode="&#xe9b2;" glyph-name="arrow-bd-left-medium" d="M1026.133 89.6c-1.067 5.333-28.8 135.467-117.333 266.667-114.133 170.667-276.267 262.4-469.333 268.8v185.6c0 8.533-5.333 16-12.8 19.2s-17.067 2.133-22.4-3.2l-394.667-344.533c-4.267-4.267-7.467-9.6-7.467-16s2.133-11.733 7.467-16l393.6-357.333c6.4-5.333 14.933-7.467 23.467-3.2 7.467 3.2 12.8 10.667 12.8 19.2v212.267c238.933-1.067 419.2-24.533 547.2-246.4 4.267-6.4 10.667-10.667 18.133-10.667 2.133 0 5.333 0 7.467 1.067 10.667 4.267 16 13.867 13.867 24.533zM418.133 363.733c-11.733 0-21.333-9.6-21.333-21.333v-184.533l-340.267 308.267 340.267 297.6v-158.933c0-11.733 9.6-21.333 21.333-21.333 189.867 0 343.467-84.267 454.4-248.533 29.867-43.733 52.267-87.467 68.267-125.867-135.467 140.8-312.533 154.667-522.667 154.667z" />
<glyph unicode="&#xe9b3;" glyph-name="arrow-bg-right-medium" d="M1019.733 482.133l-394.667 344.533c-6.4 5.333-14.933 6.4-22.4 3.2s-12.8-10.667-12.8-19.2v-185.6c-193.067-6.4-355.2-98.133-469.333-268.8-88.533-131.2-116.267-261.333-117.333-266.667-2.133-10.667 3.2-20.267 12.8-24.533 3.2-1.067 5.333-1.067 7.467-1.067 7.467 0 14.933 4.267 18.133 10.667 128 221.867 308.267 244.267 547.2 246.4v-211.2c0-8.533 5.333-16 12.8-19.2s17.067-2.133 23.467 3.2l393.6 357.333c4.267 4.267 7.467 9.6 7.467 16 0 5.333-2.133 11.733-6.4 14.933zM632.533 157.867v184.533c0 11.733-9.6 21.333-21.333 21.333-210.133 0-387.2-12.8-522.667-154.667 65.067 148.267 215.467 374.4 522.667 374.4 11.733 0 21.333 9.6 21.333 21.333v158.933l340.267-297.6-340.267-308.267z" />
<glyph unicode="&#xe9b4;" glyph-name="folder-medium" d="M1018.667 604.8c-4.267 4.267-9.6 7.467-16 7.467h-64v162.133c0 11.733-9.6 21.333-21.333 21.333h-480l-76.8 67.2c-4.267 3.2-8.533 5.333-13.867 5.333h-240c-11.733 0-21.333-9.6-21.333-21.333v-234.667h-64c-6.4 0-11.733-3.2-16-7.467s-5.333-10.667-5.333-17.067l83.2-554.667c1.067-10.667 10.667-18.133 21.333-18.133h813.867c10.667 0 19.2 7.467 21.333 18.133l83.2 554.667c2.133 6.4 0 11.733-4.267 17.067zM128 825.6h210.133l76.8-67.2c4.267-3.2 8.533-5.333 13.867-5.333h467.2v-140.8h-768v213.333zM900.267 57.6h-776.533l-76.8 512h932.267l-78.933-512z" />
<glyph unicode="&#xe9b5;" glyph-name="folder-up-medium" d="M1018.667 604.8c-4.267 4.267-9.6 7.467-16 7.467h-64v162.133c0 11.733-9.6 21.333-21.333 21.333h-480l-76.8 67.2c-4.267 3.2-8.533 5.333-13.867 5.333h-240c-11.733 0-21.333-9.6-21.333-21.333v-234.667h-64c-6.4 0-11.733-3.2-16-7.467s-5.333-10.667-5.333-17.067l83.2-554.667c1.067-10.667 10.667-18.133 21.333-18.133h813.867c10.667 0 19.2 7.467 21.333 18.133l83.2 554.667c2.133 6.4 0 11.733-4.267 17.067zM128 825.6h210.133l76.8-67.2c4.267-3.2 8.533-5.333 13.867-5.333h467.2v-140.8h-768v213.333zM900.267 57.6h-776.533l-76.8 512h932.267l-78.933-512zM376.533 240l135.467 116.267 135.467-116.267c4.267-3.2 8.533-5.333 13.867-5.333 6.4 0 11.733 2.133 16 7.467 7.467 8.533 6.4 22.4-2.133 29.867l-149.333 128c-7.467 6.4-20.267 6.4-27.733 0l-149.333-128c-8.533-7.467-9.6-21.333-2.133-29.867s21.333-9.6 29.867-2.133z" />
<glyph unicode="&#xe9b6;" glyph-name="folder-down-medium" d="M498.133 218.667c4.267-3.2 8.533-5.333 13.867-5.333s9.6 2.133 13.867 5.333l149.333 128c8.533 7.467 9.6 21.333 2.133 29.867s-21.333 9.6-29.867 2.133l-135.467-116.267-135.467 116.267c-8.533 7.467-22.4 6.4-29.867-2.133s-6.4-22.4 2.133-29.867l149.333-128zM1018.667 604.8c-4.267 4.267-9.6 7.467-16 7.467h-64v162.133c0 11.733-9.6 21.333-21.333 21.333h-480l-76.8 67.2c-4.267 3.2-8.533 5.333-13.867 5.333h-240c-11.733 0-21.333-9.6-21.333-21.333v-234.667h-64c-6.4 0-11.733-3.2-16-7.467s-5.333-10.667-5.333-17.067l83.2-554.667c1.067-10.667 10.667-18.133 21.333-18.133h813.867c10.667 0 19.2 7.467 21.333 18.133l83.2 554.667c2.133 6.4 0 11.733-4.267 17.067zM128 825.6h210.133l76.8-67.2c4.267-3.2 8.533-5.333 13.867-5.333h467.2v-140.8h-768v213.333zM900.267 57.6h-776.533l-76.8 512h932.267l-78.933-512z" />
<glyph unicode="&#xe9b7;" glyph-name="search-medium" d="M885.333 554.667c-11.733 0-21.333-9.6-21.333-21.333 0-147.2-119.467-266.667-266.667-266.667-11.733 0-21.333-9.6-21.333-21.333s9.6-21.333 21.333-21.333c170.667 0 309.333 138.667 309.333 309.333 0 11.733-9.6 21.333-21.333 21.333zM597.333 960c-235.733 0-426.667-190.933-426.667-426.667 0-105.6 38.4-202.667 103.467-277.333-4.267-1.067-8.533-2.133-11.733-6.4l-277.333-277.333c-8.533-8.533-8.533-21.333 0-29.867 4.267-4.267 9.6-6.4 14.933-6.4s10.667 2.133 14.933 6.4l277.333 277.333c3.2 3.2 4.267 6.4 5.333 9.6 77.867-75.733 183.467-122.667 299.733-122.667 235.733 0 426.667 190.933 426.667 426.667s-190.933 426.667-426.667 426.667zM597.333 149.333c-212.267 0-384 171.733-384 384s171.733 384 384 384 384-171.733 384-384-171.733-384-384-384z" />
<glyph unicode="&#xe9b8;" glyph-name="search-more-medium" d="M746.667 554.667h-128v128c0 11.733-9.6 21.333-21.333 21.333s-21.333-9.6-21.333-21.333v-128h-128c-11.733 0-21.333-9.6-21.333-21.333s9.6-21.333 21.333-21.333h128v-128c0-11.733 9.6-21.333 21.333-21.333s21.333 9.6 21.333 21.333v128h128c11.733 0 21.333 9.6 21.333 21.333s-9.6 21.333-21.333 21.333zM597.333 960c-235.733 0-426.667-190.933-426.667-426.667 0-109.867 41.6-210.133 110.933-285.867l-275.2-275.2c-8.533-8.533-8.533-21.333 0-29.867 4.267-4.267 9.6-6.4 14.933-6.4s10.667 2.133 14.933 6.4l275.2 275.2c75.733-69.333 176-110.933 285.867-110.933 235.733 0 426.667 190.933 426.667 426.667s-190.933 426.667-426.667 426.667zM597.333 149.333c-212.267 0-384 171.733-384 384s171.733 384 384 384 384-171.733 384-384-171.733-384-384-384z" />
<glyph unicode="&#xe9b9;" glyph-name="lock-medium" d="M832 626.133h-138.667v152.533c0 48-19.2 93.867-53.333 128s-80 53.333-128 53.333c-48 0-93.867-19.2-128-53.333s-53.333-80-53.333-128v-152.533h-138.667c-11.733 0-21.333-9.6-21.333-21.333v-647.467c0-11.733 9.6-21.333 21.333-21.333h640c11.733 0 21.333 9.6 21.333 21.333v647.467c0 11.733-9.6 21.333-21.333 21.333zM373.333 778.667c0 37.333 14.933 71.467 40.533 98.133 26.667 25.6 60.8 40.533 98.133 40.533s71.467-14.933 98.133-40.533c26.667-26.667 40.533-60.8 40.533-98.133v-152.533h-277.333v152.533zM810.667-21.333h-597.333v604.8h597.333v-604.8zM512 106.667c46.933 0 85.333 38.4 85.333 85.333s-38.4 85.333-85.333 85.333-85.333-38.4-85.333-85.333 38.4-85.333 85.333-85.333zM512 234.667c23.467 0 42.667-19.2 42.667-42.667s-19.2-42.667-42.667-42.667-42.667 19.2-42.667 42.667 19.2 42.667 42.667 42.667z" />
<glyph unicode="&#xe9ba;" glyph-name="lock-open-medium" d="M917.333 626.133h-469.333v152.533c0 48-19.2 93.867-53.333 128s-80 53.333-128 53.333c-48 0-93.867-19.2-128-53.333s-53.333-80-53.333-128v-173.867c0-11.733 9.6-21.333 21.333-21.333s21.333 9.6 21.333 21.333v173.867c0 37.333 14.933 71.467 40.533 98.133 26.667 25.6 60.8 40.533 98.133 40.533s71.467-14.933 98.133-40.533c26.667-26.667 40.533-60.8 40.533-98.133v-152.533h-128c-11.733 0-21.333-9.6-21.333-21.333v-647.467c0-11.733 9.6-21.333 21.333-21.333h640c11.733 0 21.333 9.6 21.333 21.333v647.467c0 11.733-9.6 21.333-21.333 21.333zM896-21.333h-597.333v604.8h597.333v-604.8zM597.333 106.667c46.933 0 85.333 38.4 85.333 85.333s-38.4 85.333-85.333 85.333-85.333-38.4-85.333-85.333 38.4-85.333 85.333-85.333zM597.333 234.667c23.467 0 42.667-19.2 42.667-42.667s-19.2-42.667-42.667-42.667-42.667 19.2-42.667 42.667 19.2 42.667 42.667 42.667z" />
<glyph unicode="&#xe9bb;" glyph-name="key-medium" d="M230.4 231.467c-18.133 0-36.267-7.467-49.067-20.267-26.667-26.667-26.667-71.467 0-98.133 12.8-12.8 30.933-20.267 49.067-20.267s36.267 7.467 49.067 20.267c26.667 26.667 26.667 71.467 0 98.133-13.867 13.867-30.933 20.267-49.067 20.267zM256 136.533c-13.867-13.867-38.4-13.867-53.333 0-14.933 14.933-14.933 38.4 0 53.333 7.467 7.467 16 10.667 26.667 10.667s19.2-4.267 26.667-10.667c14.933-16 14.933-39.467 0-53.333zM1024 753.067l-18.133 166.4c-1.067 9.6-8.533 17.067-18.133 19.2l-160 21.333c-6.4 1.067-12.8-1.067-18.133-6.4l-461.867-460.8c-21.333 5.333-43.733 7.467-66.133 7.467-75.733 0-146.133-28.8-199.467-82.133-109.867-109.867-109.867-289.067 0-398.933 53.333-53.333 123.733-82.133 199.467-82.133s146.133 29.867 199.467 82.133c74.667 74.667 101.333 185.6 68.267 285.867l43.733 43.733c4.267 4.267 6.4 9.6 6.4 14.933v107.733h107.733c10.667 0 20.267 8.533 21.333 19.2l7.467 100.267h108.8c9.6 0 18.133 6.4 20.267 17.067l24.533 105.6 114.133 16c13.867 2.133 21.333 12.8 20.267 23.467zM870.4 754.133c-8.533-1.067-16-7.467-18.133-16l-23.467-103.467h-112c-10.667 0-20.267-8.533-21.333-19.2l-7.467-100.267h-108.8c-11.733 0-21.333-9.6-21.333-21.333v-120.533l-46.933-46.933c-6.4-6.4-7.467-14.933-5.333-22.4 33.067-88.533 11.733-187.733-54.4-253.867-44.8-44.8-105.6-70.4-169.6-70.4s-123.733 24.533-169.6 70.4c-92.8 93.867-92.8 245.333 0 339.2 44.8 44.8 105.6 70.4 169.6 70.4 22.4 0 44.8-3.2 66.133-9.6 7.467-2.133 16 0 21.333 5.333l462.933 460.8 133.333-18.133 13.867-129.067-108.8-14.933z" />
<glyph unicode="&#xe9bc;" glyph-name="config-medium" d="M1015.467 542.933c-1.067 6.4-6.4 12.8-12.8 16-22.4 9.6-44.8 19.2-68.267 27.733-7.467 22.4-16 43.733-26.667 64 10.667 22.4 20.267 44.8 28.8 67.2 2.133 6.4 2.133 13.867-2.133 20.267-36.267 51.2-81.067 96-133.333 132.267-5.333 4.267-12.8 5.333-20.267 2.133-22.4-8.533-44.8-18.133-67.2-27.733-20.267 10.667-41.6 19.2-64 26.667-8.533 22.4-18.133 45.867-27.733 67.2-3.2 6.4-8.533 10.667-16 12.8-61.867 11.733-126.933 11.733-188.8 0-6.4-1.067-12.8-6.4-16-12.8-9.6-22.4-19.2-44.8-27.733-68.267-21.333-6.4-42.667-16-62.933-25.6-22.4 10.667-44.8 20.267-67.2 28.8-6.4 2.133-13.867 2.133-20.267-2.133-52.267-37.333-97.067-82.133-133.333-134.4-4.267-5.333-5.333-12.8-2.133-20.267 8.533-22.4 18.133-44.8 28.8-67.2-10.667-20.267-19.2-41.6-26.667-64-23.467-8.533-46.933-18.133-68.267-27.733-6.4-3.2-10.667-8.533-12.8-16-5.333-29.867-8.533-61.867-8.533-93.867s3.2-64 8.533-94.933c1.067-6.4 6.4-12.8 12.8-16 22.4-9.6 44.8-19.2 68.267-27.733 7.467-22.4 16-43.733 26.667-64-10.667-22.4-20.267-44.8-28.8-67.2-2.133-6.4-2.133-13.867 2.133-20.267 36.267-52.267 81.067-97.067 133.333-133.333 5.333-4.267 12.8-5.333 20.267-2.133 22.4 8.533 44.8 18.133 67.2 28.8 20.267-10.667 41.6-19.2 64-26.667 8.533-23.467 18.133-45.867 27.733-68.267 3.2-6.4 8.533-10.667 16-12.8 29.867-4.267 61.867-7.467 93.867-7.467s62.933 3.2 94.933 8.533c6.4 1.067 12.8 6.4 16 12.8 9.6 22.4 19.2 44.8 27.733 68.267 22.4 7.467 43.733 16 64 26.667 22.4-10.667 44.8-20.267 67.2-28.8 6.4-2.133 13.867-2.133 20.267 2.133 52.267 36.267 98.133 81.067 133.333 133.333 4.267 5.333 5.333 12.8 2.133 20.267-8.533 22.4-18.133 44.8-28.8 67.2 10.667 20.267 19.2 41.6 26.667 64 23.467 8.533 45.867 18.133 68.267 27.733 6.4 3.2 10.667 8.533 12.8 16 4.267 30.933 7.467 61.867 7.467 93.867s-3.2 64-8.533 94.933zM974.933 372.267c-21.333-9.6-42.667-18.133-65.067-25.6-6.4-2.133-11.733-7.467-12.8-13.867-7.467-25.6-18.133-51.2-30.933-75.733-3.2-6.4-3.2-12.8-1.067-19.2 9.6-21.333 19.2-42.667 27.733-64-29.867-41.6-66.133-76.8-106.667-106.667-21.333 8.533-42.667 18.133-64 27.733-6.4 3.2-12.8 2.133-19.2-1.067-24.533-12.8-49.067-23.467-75.733-30.933-6.4-2.133-11.733-6.4-13.867-12.8-7.467-22.4-17.067-43.733-25.6-65.067-50.133-8.533-101.333-8.533-151.467 0-9.6 21.333-18.133 42.667-25.6 65.067-2.133 6.4-7.467 11.733-13.867 12.8-26.667 7.467-51.2 18.133-75.733 30.933-6.4 3.2-12.8 3.2-19.2 1.067-21.333-9.6-42.667-19.2-64-27.733-41.6 29.867-76.8 66.133-106.667 106.667 8.533 21.333 18.133 42.667 27.733 64 3.2 6.4 2.133 12.8-1.067 19.2-12.8 23.467-23.467 49.067-30.933 75.733-2.133 6.4-6.4 11.733-12.8 13.867-22.4 8.533-43.733 17.067-65.067 25.6-4.267 24.533-6.4 50.133-6.4 75.733s2.133 51.2 6.4 75.733c21.333 8.533 42.667 18.133 65.067 25.6 6.4 2.133 11.733 7.467 12.8 13.867 7.467 26.667 18.133 51.2 30.933 75.733 3.2 6.4 3.2 12.8 1.067 19.2-9.6 21.333-19.2 42.667-27.733 64 29.867 41.6 66.133 76.8 106.667 106.667 21.333-8.533 42.667-18.133 64-27.733 6.4-3.2 12.8-2.133 19.2 1.067 24.533 12.8 49.067 23.467 75.733 30.933 6.4 2.133 11.733 6.4 13.867 12.8 7.467 22.4 17.067 43.733 25.6 65.067 50.133 8.533 101.333 8.533 151.467 0 9.6-21.333 18.133-42.667 25.6-65.067 2.133-6.4 7.467-11.733 13.867-12.8 26.667-7.467 51.2-18.133 75.733-30.933 6.4-3.2 12.8-3.2 19.2-1.067 21.333 9.6 42.667 19.2 64 27.733 41.6-29.867 76.8-66.133 106.667-106.667-8.533-21.333-18.133-42.667-27.733-64-3.2-6.4-3.2-12.8 0-19.2 12.8-24.533 23.467-49.067 30.933-75.733 2.133-6.4 6.4-11.733 12.8-13.867 22.4-8.533 43.733-17.067 65.067-25.6 4.267-24.533 6.4-50.133 6.4-75.733 1.067-25.6-1.067-51.2-5.333-75.733zM512 693.333c-135.467 0-245.333-109.867-245.333-245.333s109.867-245.333 245.333-245.333 245.333 109.867 245.333 245.333c0 135.467-109.867 245.333-245.333 245.333zM512 245.333c-112 0-202.667 90.667-202.667 202.667s90.667 202.667 202.667 202.667 202.667-90.667 202.667-202.667c0-112-90.667-202.667-202.667-202.667z" />
<glyph unicode="&#xe9bd;" glyph-name="help-medium" d="M1001.6 599.467c0 0 0 1.067 0 1.067s0 1.067 0 1.067c-51.2 158.933-177.067 284.8-336 334.933 0 0-1.067 0-1.067 0s-1.067 0-1.067 0c-48 16-99.2 23.467-151.467 23.467s-103.467-7.467-151.467-22.4c0 0-1.067 0-1.067 0s-1.067 0-1.067 0c-158.933-51.2-284.8-177.067-334.933-336 0 0 0-1.067 0-1.067s0-1.067 0-1.067c-16-48-23.467-99.2-23.467-151.467s7.467-103.467 22.4-151.467c0 0 0-1.067 0-1.067s0 0 0-1.067c50.133-158.933 176-285.867 334.933-336 0 0 1.067 0 1.067 0s0 0 1.067 0c49.067-13.867 100.267-22.4 152.533-22.4s103.467 8.533 151.467 22.4c0 0 0 0 1.067 0 0 0 1.067 0 1.067 0 158.933 50.133 284.8 176 334.933 336 0 0 0 0 0 1.067 0 0 0 1.067 0 1.067 16 48 23.467 99.2 23.467 151.467s-7.467 103.467-22.4 151.467zM672 889.6c130.133-46.933 234.667-151.467 281.6-281.6l-179.2-55.467c-28.8 72.533-86.4 130.133-157.867 157.867l55.467 179.2zM752 448c0-132.267-107.733-240-240-240s-240 107.733-240 240 107.733 240 240 240 240-107.733 240-240zM512 917.333c41.6 0 81.067-5.333 119.467-14.933l-55.467-179.2c-21.333 4.267-42.667 7.467-64 7.467s-42.667-2.133-62.933-7.467l-56.533 179.2c38.4 9.6 77.867 14.933 119.467 14.933zM352 889.6l55.467-179.2c-72.533-28.8-130.133-86.4-157.867-157.867l-179.2 55.467c48 130.133 151.467 233.6 281.6 281.6zM42.667 448c0 41.6 5.333 81.067 14.933 119.467l179.2-55.467c-4.267-21.333-7.467-42.667-7.467-64s2.133-42.667 7.467-62.933l-179.2-56.533c-9.6 38.4-14.933 77.867-14.933 119.467zM352 6.4c-130.133 48-233.6 151.467-281.6 281.6l179.2 55.467c28.8-72.533 86.4-130.133 157.867-157.867l-55.467-179.2zM512-21.333c-41.6 0-81.067 5.333-119.467 14.933l55.467 179.2c20.267-4.267 41.6-7.467 62.933-7.467s42.667 2.133 62.933 7.467l55.467-179.2c-36.267-9.6-75.733-14.933-117.333-14.933zM672 6.4l-55.467 179.2c72.533 28.8 130.133 86.4 157.867 157.867l179.2-55.467c-48-130.133-151.467-233.6-281.6-281.6zM966.4 328.533l-179.2 55.467c4.267 20.267 7.467 41.6 7.467 62.933s-2.133 42.667-7.467 62.933l179.2 55.467c9.6-36.267 14.933-75.733 14.933-117.333s-5.333-81.067-14.933-119.467z" />
<glyph unicode="&#xe9be;" glyph-name="paperclip-medium" d="M1017.6 599.467c-8.533 8.533-21.333 8.533-29.867 0l-555.733-554.667c0 0 0 0 0 0-88.533-88.533-233.6-88.533-322.133 0-42.667 42.667-67.2 100.267-67.2 161.067s23.467 117.333 67.2 161.067c0 0 0 0 0 0l505.6 504.533c0 0 0 0 0 0 60.8 60.8 158.933 60.8 219.733 0 28.8-28.8 45.867-68.267 45.867-109.867s-16-80-45.867-109.867l-506.667-503.467c-32-32-84.267-32-116.267 0-16 16-24.533 36.267-24.533 58.667s8.533 42.667 24.533 58.667l400 398.933c8.533 8.533 8.533 21.333 0 29.867s-21.333 8.533-29.867 0l-400-400c0 0 0 0 0 0-23.467-23.467-36.267-55.467-36.267-88.533s12.8-65.067 36.267-88.533c24.533-24.533 56.533-36.267 88.533-36.267s64 11.733 88.533 36.267l506.667 505.6c37.333 37.333 57.6 86.4 57.6 139.733 0 52.267-20.267 102.4-57.6 139.733-76.8 76.8-202.667 76.8-279.467 0 0 0 0 0 0 0l-507.733-505.6c-51.2-51.2-78.933-118.4-78.933-190.933s27.733-139.733 78.933-190.933c52.267-52.267 121.6-78.933 190.933-78.933s138.667 26.667 190.933 78.933c0 0 0 0 0 0l555.733 554.667c9.6 8.533 9.6 21.333 1.067 29.867z" />
<glyph unicode="&#xe9bf;" glyph-name="link-medium" d="M462.933 307.2c-9.6-6.4-12.8-19.2-6.4-29.867 25.6-39.467 19.2-91.733-13.867-125.867l-144-142.933c-19.2-19.2-44.8-29.867-71.467-29.867h-1.067c-26.667 0-51.2 10.667-70.4 28.8l-85.333 85.333c-37.333 39.467-37.333 102.4 2.133 141.867l144 144c33.067 33.067 86.4 39.467 125.867 13.867 9.6-6.4 23.467-3.2 29.867 6.4s3.2 23.467-6.4 29.867c-56.533 36.267-131.2 28.8-179.2-19.2l-144-145.067c-55.467-55.467-56.533-146.133-1.067-201.6l85.333-85.333c26.667-26.667 61.867-41.6 100.267-41.6 0 0 0 0 1.067 0 38.4 0 73.6 14.933 101.333 42.667l144 144c48 48 55.467 122.667 19.2 179.2-6.4 9.6-20.267 11.733-29.867 5.333zM347.733 283.733c4.267-4.267 9.6-6.4 14.933-6.4s10.667 2.133 14.933 6.4l298.667 298.667c8.533 8.533 8.533 21.333 0 29.867s-21.333 8.533-29.867 0l-298.667-298.667c-8.533-8.533-8.533-21.333 0-29.867zM982.4 833.067l-85.333 85.333c-55.467 55.467-146.133 55.467-201.6-1.067l-144-144c-48-48-55.467-122.667-19.2-179.2 6.4-9.6 19.2-12.8 29.867-6.4 9.6 6.4 12.8 19.2 6.4 29.867-25.6 39.467-19.2 91.733 13.867 125.867l142.933 144c39.467 39.467 102.4 39.467 141.867 1.067l85.333-85.333c19.2-19.2 28.8-43.733 28.8-70.4s-10.667-52.267-29.867-71.467l-144-144c-33.067-33.067-86.4-39.467-125.867-13.867-9.6 6.4-23.467 3.2-29.867-6.4s-3.2-23.467 6.4-29.867c23.467-14.933 50.133-22.4 76.8-22.4 37.333 0 74.667 13.867 102.4 42.667l144 144c26.667 26.667 41.6 62.933 42.667 101.333 0 37.333-14.933 73.6-41.6 100.267z" />
<glyph unicode="&#xe9c0;" glyph-name="share-medium" d="M814.933 541.867c115.2 0 209.067 93.867 209.067 209.067s-93.867 209.067-209.067 209.067-209.067-93.867-209.067-209.067c0-24.533 4.267-49.067 12.8-70.4l-253.867-121.6c-35.2 54.4-97.067 90.667-166.4 90.667-108.8-1.067-198.4-89.6-198.4-199.467s89.6-198.4 198.4-198.4c67.2 0 125.867 33.067 162.133 84.267l233.6-157.867c-7.467-19.2-11.733-40.533-11.733-62.933 0-98.133 80-178.133 178.133-178.133 98.133-1.067 178.133 78.933 178.133 177.067s-80 178.133-178.133 178.133c-60.8 0-114.133-30.933-146.133-76.8l-232.533 156.8c10.667 23.467 16 50.133 16 77.867 0 24.533-4.267 49.067-12.8 70.4l251.733 121.6c36.267-60.8 102.4-100.267 178.133-100.267zM814.933 917.333c91.733 0 166.4-74.667 166.4-166.4s-74.667-166.4-166.4-166.4-166.4 74.667-166.4 166.4 74.667 166.4 166.4 166.4zM198.4 293.333c-85.333 0-155.733 70.4-155.733 156.8s70.4 155.733 155.733 155.733c59.733 0 112-34.133 138.667-84.267 0 0 0 0 0 0s0 0 0 0c10.667-21.333 17.067-45.867 17.067-71.467 1.067-86.4-69.333-156.8-155.733-156.8zM760.533 249.6c74.667 0 135.467-60.8 135.467-135.467s-60.8-135.467-135.467-135.467c-74.667 0-135.467 60.8-135.467 135.467s60.8 135.467 135.467 135.467z" />
<glyph unicode="&#xe9c1;" glyph-name="download-medium" d="M742.4 217.6l-209.067-209.067v448c0 11.733-9.6 21.333-21.333 21.333s-21.333-9.6-21.333-21.333v-448l-209.067 209.067c-8.533 8.533-21.333 8.533-29.867 0s-8.533-21.333 0-29.867l245.333-245.333c1.067-1.067 2.133-2.133 3.2-2.133 0 0 1.067 0 1.067-1.067 1.067 0 2.133-1.067 2.133-1.067s1.067 0 1.067 0 2.133-1.067 2.133-1.067c1.067 0 3.2 0 4.267 0s3.2 0 4.267 0c1.067 0 2.133 0 2.133 1.067 0 0 1.067 0 1.067 0 1.067 0 2.133 1.067 2.133 1.067s1.067 0 1.067 1.067 2.133 2.133 3.2 2.133l245.333 245.333c8.533 8.533 8.533 21.333 0 29.867-6.4 8.533-19.2 8.533-27.733 0zM819.2 755.2c-16 0-30.933-2.133-45.867-5.333-26.667 121.6-134.4 210.133-261.333 210.133-109.867 0-206.933-66.133-247.467-167.467-12.8 2.133-25.6 3.2-38.4 3.2-124.8 1.067-226.133-100.267-226.133-225.067 0-60.8 23.467-117.333 66.133-160s99.2-66.133 158.933-66.133v0c40.533 0 122.667 0 122.667 0v0c0 0 0 0 0 0 11.733 0 21.333 9.6 21.333 21.333s-9.6 21.333-21.333 21.333c0 0-82.133 0-122.667 0v0c-49.067 0-94.933 19.2-129.067 53.333-35.2 34.133-53.333 81.067-53.333 130.133 0 101.333 82.133 183.467 183.467 183.467 14.933 0 30.933-2.133 46.933-6.4 10.667-3.2 22.4 3.2 25.6 13.867 29.867 92.8 115.2 155.733 213.333 155.733 113.067 0 209.067-84.267 221.867-197.333 1.067-6.4 4.267-11.733 9.6-16 5.333-3.2 12.8-4.267 18.133-2.133 18.133 6.4 37.333 9.6 55.467 9.6 91.733 1.067 164.267-71.467 164.267-161.067s-72.533-162.133-162.133-162.133h-144c-11.733 0-21.333-9.6-21.333-21.333s9.6-21.333 21.333-21.333h142.933c114.133-1.067 205.867 91.733 205.867 204.8s-91.733 204.8-204.8 204.8z" />
<glyph unicode="&#xe9c2;" glyph-name="upload-medium" d="M819.2 755.2c-16 0-30.933-2.133-45.867-5.333-26.667 121.6-134.4 210.133-261.333 210.133-109.867 0-206.933-66.133-247.467-167.467-12.8 2.133-25.6 3.2-38.4 3.2-124.8 1.067-226.133-100.267-226.133-225.067 0-60.8 23.467-117.333 66.133-160s99.2-66.133 158.933-66.133h30.933c11.733 0 21.333 9.6 21.333 21.333s-9.6 21.333-21.333 21.333h-30.933c-49.067 0-94.933 19.2-129.067 53.333-35.2 34.133-53.333 81.067-53.333 130.133 0 101.333 82.133 183.467 183.467 183.467 14.933 0 30.933-2.133 46.933-6.4 10.667-3.2 22.4 3.2 25.6 13.867 29.867 92.8 115.2 155.733 213.333 155.733 113.067 0 209.067-84.267 221.867-197.333 1.067-6.4 4.267-11.733 9.6-16 5.333-3.2 12.8-4.267 18.133-2.133 18.133 6.4 37.333 9.6 55.467 9.6 91.733 1.067 164.267-71.467 164.267-161.067s-72.533-162.133-162.133-162.133h-51.2c-11.733 0-21.333-9.6-21.333-21.333s9.6-21.333 21.333-21.333h51.2c113.067-1.067 204.8 91.733 204.8 204.8s-91.733 204.8-204.8 204.8zM526.933 462.933c-8.533 8.533-22.4 8.533-29.867 0l-245.333-245.333c-8.533-8.533-8.533-21.333 0-29.867s21.333-8.533 29.867 0l209.067 209.067v-439.467c0-11.733 9.6-21.333 21.333-21.333s21.333 9.6 21.333 21.333v439.467l209.067-209.067c4.267-4.267 9.6-6.4 14.933-6.4s10.667 2.133 14.933 6.4c8.533 8.533 8.533 21.333 0 29.867l-245.333 245.333z" />
<glyph unicode="&#xe9c3;" glyph-name="folio-medium" d="M874.667 960h-497.067c-1.067 0-3.2 0-4.267 0 0 0 0 0 0 0-2.133 0-3.2-1.067-5.333-2.133 0 0-1.067 0-1.067-1.067-2.133-1.067-3.2-2.133-4.267-3.2 0 0 0 0 0 0l-228.267-229.333c0 0 0 0 0 0-1.067-1.067-2.133-3.2-3.2-4.267 0 0 0-1.067-1.067-1.067-1.067-2.133-1.067-3.2-2.133-5.333 0 0 0 0 0 0 0-1.067 0-2.133 0-4.267v-752c0-11.733 9.6-21.333 21.333-21.333h725.333c11.733 0 21.333 9.6 21.333 21.333v981.333c0 11.733-9.6 21.333-21.333 21.333zM356.267 886.4v-156.8h-155.733l155.733 156.8zM853.333-21.333h-682.667v709.333h206.933c11.733 0 21.333 9.6 21.333 21.333v208h454.4v-938.667z" />
<glyph unicode="&#xe9c4;" glyph-name="folio-lines-medium" d="M746.667 149.333h-469.333c-11.733 0-21.333-9.6-21.333-21.333s9.6-21.333 21.333-21.333h469.333c11.733 0 21.333 9.6 21.333 21.333s-9.6 21.333-21.333 21.333zM746.667 298.667h-469.333c-11.733 0-21.333-9.6-21.333-21.333s9.6-21.333 21.333-21.333h469.333c11.733 0 21.333 9.6 21.333 21.333s-9.6 21.333-21.333 21.333zM746.667 448h-469.333c-11.733 0-21.333-9.6-21.333-21.333s9.6-21.333 21.333-21.333h469.333c11.733 0 21.333 9.6 21.333 21.333s-9.6 21.333-21.333 21.333zM874.667 960h-497.067c-1.067 0-3.2 0-4.267 0 0 0 0 0 0 0-2.133 0-3.2-1.067-5.333-2.133 0 0-1.067 0-1.067-1.067-2.133-1.067-3.2-2.133-4.267-3.2 0 0 0 0 0 0l-228.267-229.333c0 0 0 0 0 0-1.067-1.067-2.133-3.2-3.2-4.267 0 0 0-1.067-1.067-1.067-1.067-2.133-1.067-3.2-2.133-5.333 0 0 0 0 0 0 0-1.067 0-2.133 0-4.267v-752c0-11.733 9.6-21.333 21.333-21.333h725.333c11.733 0 21.333 9.6 21.333 21.333v981.333c0 11.733-9.6 21.333-21.333 21.333zM356.267 886.4v-156.8h-155.733l155.733 156.8zM853.333-21.333h-682.667v709.333h206.933c11.733 0 21.333 9.6 21.333 21.333v208h454.4v-938.667zM256 576c0-11.733 9.6-21.333 21.333-21.333h469.333c11.733 0 21.333 9.6 21.333 21.333s-9.6 21.333-21.333 21.333h-469.333c-11.733 0-21.333-9.6-21.333-21.333z" />
<glyph unicode="&#xe9c5;" glyph-name="basket-medium" d="M657.067 36.267c0 0 1.067 0 1.067 0 11.733 0 20.267 8.533 21.333 20.267l24.533 469.333c1.067 11.733-8.533 21.333-20.267 22.4s-21.333-8.533-22.4-20.267l-24.533-469.333c-1.067-11.733 7.467-22.4 20.267-22.4zM365.867 36.267c0 0 1.067 0 1.067 0 11.733 1.067 20.267 10.667 20.267 22.4l-24.533 469.333c-1.067 11.733-10.667 20.267-22.4 20.267-11.733-1.067-20.267-10.667-20.267-22.4l24.533-469.333c1.067-11.733 10.667-20.267 21.333-20.267zM938.667 620.8l-20.267 170.667c-1.067 10.667-10.667 19.2-21.333 19.2h-219.733c-8.533 84.267-78.933 149.333-165.333 149.333s-156.8-65.067-165.333-149.333h-219.733c-10.667 0-20.267-8.533-21.333-19.2l-20.267-170.667c-1.067-6.4 1.067-11.733 5.333-17.067 4.267-4.267 9.6-6.4 16-6.4h62.933l40.533-641.067c1.067-11.733 9.6-20.267 21.333-20.267h561.067c11.733 0 20.267 8.533 21.333 20.267l40.533 641.067h62.933c6.4 0 11.733 2.133 16 7.467 4.267 4.267 6.4 10.667 5.333 16zM512 917.333c61.867 0 114.133-46.933 122.667-106.667h-245.333c8.533 59.733 60.8 106.667 122.667 106.667zM772.267-21.333h-520.533l-39.467 618.667h600.533l-40.533-618.667zM131.2 640l16 128h731.733l16-128h-763.733zM512 36.267c11.733 0 21.333 9.6 21.333 21.333v469.333c0 11.733-9.6 21.333-21.333 21.333s-21.333-9.6-21.333-21.333v-469.333c0-11.733 9.6-21.333 21.333-21.333z" />
<glyph unicode="&#xe9c6;" glyph-name="pencil-medium" d="M1017.6 701.867l-251.733 251.733c-8.533 8.533-21.333 8.533-29.867 0l-640-640c-3.2-3.2-4.267-6.4-5.333-9.6l-89.6-341.333c-2.133-7.467 0-14.933 5.333-20.267 4.267-4.267 9.6-6.4 14.933-6.4 2.133 0 3.2 0 5.333 1.067l341.333 89.6c3.2 1.067 7.467 3.2 9.6 5.333l640 640c8.533 8.533 8.533 21.333 0 29.867zM350.933 66.133l-231.467-60.8-51.2 51.2 60.8 231.467 474.667 474.667 96-96-474.667-475.733c-8.533-8.533-8.533-21.333 0-29.867 4.267-4.267 9.6-6.4 14.933-6.4s10.667 2.133 14.933 6.4l474.667 474.667 96-96-474.667-473.6zM855.467 570.667l-220.8 220.8 116.267 117.333 221.867-221.867-117.333-116.267z" />
<glyph unicode="&#xe9c7;" glyph-name="pen-medium" d="M992 702.933c0 1.067 0 1.067 0 2.133s0 1.067 0 2.133 0 1.067-1.067 2.133c0 0 0 0 0 1.067-1.067 2.133-2.133 4.267-4.267 6.4l-23.467 23.467-154.667 153.6c0 0 0 0 0 0l-58.667 59.733c0 0 0 0 0 0s0 0 0 0-1.067 1.067-1.067 1.067c-1.067 0-1.067 1.067-2.133 1.067s-1.067 1.067-2.133 1.067c-1.067 0-1.067 1.067-2.133 1.067s-1.067 0-2.133 1.067c-1.067 0-1.067 0-2.133 1.067-1.067 0-1.067 0-2.133 0s-2.133 0-2.133 0c0 0-1.067 0-1.067 0-1.067 0-2.133 0-3.2 0 0 0-1.067 0-1.067 0-1.067 0-2.133 0-3.2-1.067 0 0-1.067 0-1.067-1.067-1.067 0-2.133-1.067-2.133-1.067s-1.067-1.067-1.067-1.067c-1.067 0-1.067-1.067-2.133-1.067 0 0 0 0 0 0s0 0 0 0l-386.133-388.267c-8.533-8.533-8.533-21.333 0-29.867 4.267-4.267 9.6-6.4 14.933-6.4s10.667 2.133 14.933 6.4l371.2 372.267 28.8-28.8-617.6-621.867c-2.133-2.133-3.2-4.267-4.267-7.467l-98.133-240c-3.2-7.467-1.067-17.067 4.267-23.467l3.2-3.2-11.733-12.8c-8.533-8.533-8.533-21.333 0-29.867 4.267-3.2 9.6-5.333 14.933-5.333s10.667 2.133 14.933 6.4l11.733 11.733 3.2-3.2c4.267-4.267 9.6-6.4 14.933-6.4 3.2 0 5.333 0 8.533 2.133l238.933 99.2c2.133 1.067 5.333 3.2 7.467 4.267l632.533 635.733c0 0 1.067 1.067 1.067 2.133s1.067 1.067 1.067 2.133c0 1.067 1.067 1.067 1.067 2.133s1.067 1.067 1.067 2.133c0 1.067 0 1.067 1.067 2.133 0 1.067 0 1.067 1.067 2.133 0 1.067 0 1.067 0 2.133s0 1.067 0 2.133c0-1.067 0-1.067 0 0zM326.4 83.2l-222.933-91.733-16 17.067 91.733 222.933 510.933 514.133 147.2-148.267-510.933-514.133zM867.2 627.2l-147.2 148.267 72.533 73.6 147.2-148.267-72.533-73.6z" />
<glyph unicode="&#xe9c8;" glyph-name="briefcase-medium" d="M1002.667 725.333h-321.067c-10.667 84.267-82.133 149.333-169.6 149.333s-158.933-65.067-169.6-149.333h-321.067c-11.733 0-21.333-9.6-21.333-21.333v-661.333c0-11.733 9.6-21.333 21.333-21.333h981.333c11.733 0 21.333 9.6 21.333 21.333v661.333c0 11.733-9.6 21.333-21.333 21.333zM512 832c62.933 0 116.267-45.867 125.867-106.667h-251.733c9.6 60.8 62.933 106.667 125.867 106.667zM362.667 682.667c0 0 0 0 0 0s0 0 0 0h298.667c0 0 0 0 0 0s0 0 0 0h293.333c-14.933-24.533-32-46.933-50.133-69.333-25.6-29.867-53.333-57.6-83.2-82.133s-61.867-44.8-94.933-61.867c-33.067-17.067-68.267-29.867-104.533-38.4-9.6-2.133-20.267-4.267-29.867-6.4-9.6 37.333-41.6 64-81.067 64s-72.533-27.733-81.067-64c-10.667 2.133-20.267 4.267-29.867 6.4-35.2 8.533-70.4 21.333-104.533 38.4-33.067 17.067-65.067 37.333-94.933 61.867s-57.6 52.267-83.2 82.133c-18.133 21.333-34.133 44.8-50.133 69.333h295.467zM553.6 404.267c0-23.467-18.133-42.667-41.6-42.667s-41.6 19.2-41.6 42.667 18.133 42.667 41.6 42.667 41.6-19.2 41.6-42.667zM981.333 64h-938.667v581.333c13.867-20.267 27.733-40.533 43.733-58.667 26.667-32 56.533-61.867 88.533-87.467s66.133-48 102.4-67.2c36.267-18.133 74.667-33.067 113.067-42.667 13.867-3.2 27.733-5.333 40.533-8.533 9.6-36.267 42.667-61.867 81.067-61.867s71.467 26.667 81.067 61.867c13.867 2.133 27.733 4.267 40.533 8.533 38.4 9.6 76.8 23.467 113.067 42.667 35.2 18.133 70.4 40.533 102.4 67.2 32 25.6 61.867 55.467 88.533 87.467 14.933 18.133 29.867 38.4 43.733 58.667v-581.333z" />
<glyph unicode="&#xe9c9;" glyph-name="micro-medium" d="M508.8 311.467c11.733 0 21.333 9.6 21.333 21.333v480c0 11.733-9.6 21.333-21.333 21.333s-21.333-9.6-21.333-21.333v-480c0-11.733 9.6-21.333 21.333-21.333zM508.8 186.667c137.6 0 248.533 109.867 248.533 245.333v282.667c0 135.467-112 245.333-248.533 245.333s-249.6-109.867-249.6-245.333v-282.667c0-135.467 112-245.333 249.6-245.333zM390.4 453.333h-88.533v88.533h88.533c11.733 0 21.333 9.6 21.333 21.333s-9.6 21.333-21.333 21.333h-88.533v98.133h88.533c11.733 0 21.333 9.6 21.333 21.333s-9.6 21.333-21.333 21.333h-87.467c5.333 106.667 96 192 205.867 192s199.467-85.333 205.867-192h-87.467c-11.733 0-21.333-9.6-21.333-21.333s9.6-21.333 21.333-21.333h87.467v-99.2h-88.533c-11.733 0-21.333-9.6-21.333-21.333s9.6-21.333 21.333-21.333h88.533v-88.533h-88.533c-11.733 0-21.333-9.6-21.333-21.333s9.6-21.333 21.333-21.333h87.467c-10.667-101.333-98.133-181.333-204.8-181.333s-194.133 80-204.8 181.333h87.467c11.733 0 21.333 9.6 21.333 21.333s-9.6 22.4-22.4 22.4zM860.8 406.4c0 11.733-9.6 21.333-21.333 21.333s-21.333-9.6-21.333-21.333c0-161.067-138.667-292.267-309.333-292.267 0 0 0 0 0 0s0 0 0 0c-170.667 0-309.333 131.2-309.333 292.267 0 11.733-9.6 21.333-21.333 21.333s-21.333-9.6-21.333-21.333c0-178.133 146.133-323.2 330.667-333.867v-93.867h-171.733c-11.733 0-21.333-9.6-21.333-21.333s9.6-21.333 21.333-21.333h385.067c11.733 0 21.333 9.6 21.333 21.333s-9.6 21.333-21.333 21.333h-170.667v93.867c183.467 10.667 330.667 155.733 330.667 333.867z" />
<glyph unicode="&#xe9ca;" glyph-name="music-medium" d="M935.467 939.733c0 1.067 0 1.067 0 2.133s0 1.067 0 2.133c0 0 0 1.067 0 1.067s0 1.067 0 1.067-1.067 1.067-1.067 2.133c0 1.067-1.067 1.067-1.067 2.133s-1.067 1.067-1.067 2.133c0 0-1.067 1.067-1.067 1.067s-1.067 1.067-1.067 1.067c0 0-1.067 1.067-1.067 1.067-1.067 0-1.067 1.067-2.133 1.067 0 0-1.067 1.067-2.133 1.067s-1.067 1.067-2.133 1.067c-1.067 0-1.067 0-2.133 1.067-1.067 0-1.067 0-2.133 0s-1.067 0-2.133 0c0 0-1.067 0-1.067 0s-1.067 0-1.067 0-1.067 0-2.133 0-1.067 0-2.133 0c0 0-1.067 0-1.067 0l-554.667-170.667c0 0-1.067 0-1.067 0-1.067 0-1.067-1.067-2.133-1.067s-1.067-1.067-2.133-1.067c-1.067 0-1.067-1.067-2.133-1.067s-1.067-1.067-2.133-1.067c0 0-1.067-1.067-1.067-1.067s-1.067-1.067-1.067-2.133c0-1.067-1.067-1.067-1.067-2.133s-1.067-1.067-1.067-2.133c0-1.067-1.067-1.067-1.067-2.133s0-1.067-1.067-2.133c0-1.067 0-1.067 0-2.133s0-1.067 0-2.133c0 0 0-1.067 0-1.067v-578.133c-26.667 27.733-65.067 44.8-106.667 44.8-82.133 0-149.333-67.2-149.333-149.333s67.2-149.333 149.333-149.333 149.333 67.2 149.333 149.333v421.333l512 157.867v-304c-26.667 27.733-65.067 44.8-106.667 44.8-82.133 0-149.333-67.2-149.333-149.333s67.2-149.333 149.333-149.333 149.333 67.2 149.333 149.333v683.733c0-1.067 0 0 0 0zM231.467-21.333c-58.667 0-106.667 48-106.667 106.667s48 106.667 106.667 106.667 106.667-48 106.667-106.667-48-106.667-106.667-106.667zM786.133 149.333c-58.667 0-106.667 48-106.667 106.667s48 106.667 106.667 106.667 106.667-48 106.667-106.667-48-106.667-106.667-106.667zM892.8 709.333l-512-157.867v200.533l512 157.867v-200.533z" />
<glyph unicode="&#xe9cb;" glyph-name="quotes-medium" d="M418.133 874.667h-396.8c-11.733 0-21.333-9.6-21.333-21.333v-405.333c0-11.733 9.6-21.333 21.333-21.333h374.4c-5.333-94.933-43.733-182.4-109.867-250.667-70.4-72.533-164.267-112-264.533-112-11.733 0-21.333-9.6-21.333-21.333s9.6-21.333 21.333-21.333c112 0 216.533 44.8 295.467 124.8 78.933 81.067 122.667 187.733 122.667 301.867v405.333c0 11.733-9.6 21.333-21.333 21.333zM396.8 469.333h-354.133v362.667h354.133v-362.667zM1002.667 874.667h-396.8c-11.733 0-21.333-9.6-21.333-21.333v-405.333c0-11.733 9.6-21.333 21.333-21.333h374.4c-5.333-94.933-43.733-182.4-109.867-250.667-70.4-72.533-164.267-112-264.533-112-11.733 0-21.333-9.6-21.333-21.333s9.6-21.333 21.333-21.333c112 0 216.533 44.8 295.467 124.8 78.933 81.067 122.667 187.733 122.667 301.867v405.333c0 11.733-9.6 21.333-21.333 21.333zM981.333 469.333h-354.133v362.667h354.133v-362.667z" />
<glyph unicode="&#xe9cc;" glyph-name="clock-medium" d="M780.8 316.8l-216.533 125.867c0 2.133 1.067 4.267 1.067 5.333 0 21.333-12.8 40.533-32 49.067v174.933c0 11.733-9.6 21.333-21.333 21.333s-21.333-9.6-21.333-21.333v-174.933c-19.2-8.533-32-26.667-32-49.067 0-29.867 23.467-53.333 53.333-53.333 11.733 0 22.4 4.267 32 10.667l216.533-124.8c3.2-2.133 7.467-3.2 10.667-3.2 7.467 0 14.933 4.267 18.133 10.667 5.333 10.667 2.133 23.467-8.533 28.8zM512 960c-282.667 0-512-229.333-512-512s229.333-512 512-512 512 229.333 512 512-229.333 512-512 512zM512-21.333c-259.2 0-469.333 210.133-469.333 469.333s210.133 469.333 469.333 469.333 469.333-210.133 469.333-469.333-210.133-469.333-469.333-469.333z" />
<glyph unicode="&#xe9cd;" glyph-name="compass-medium" d="M875.733 807.467c-1.067 1.067-1.067 2.133-2.133 2.133-1.067 1.067-2.133 1.067-2.133 2.133-92.8 91.733-219.733 148.267-359.467 148.267s-266.667-56.533-359.467-148.267c-1.067-1.067-2.133-1.067-2.133-2.133-1.067-1.067-1.067-2.133-2.133-2.133-91.733-92.8-148.267-219.733-148.267-359.467s56.533-266.667 148.267-359.467c1.067-1.067 1.067-2.133 2.133-2.133 1.067-1.067 2.133-1.067 2.133-2.133 92.8-91.733 219.733-148.267 359.467-148.267s266.667 56.533 359.467 148.267c1.067 1.067 2.133 1.067 2.133 2.133 1.067 1.067 1.067 2.133 2.133 2.133 91.733 92.8 148.267 219.733 148.267 359.467s-56.533 266.667-148.267 359.467zM858.667 131.2l-74.667 74.667c-8.533 8.533-21.333 8.533-29.867 0s-8.533-21.333 0-29.867l74.667-74.667c-78.933-71.467-181.333-117.333-295.467-122.667v106.667c0 11.733-9.6 21.333-21.333 21.333s-21.333-9.6-21.333-21.333v-105.6c-113.067 5.333-216.533 50.133-295.467 122.667l74.667 74.667c8.533 8.533 8.533 21.333 0 29.867s-21.333 8.533-29.867 0l-74.667-74.667c-71.467 78.933-117.333 181.333-122.667 295.467h106.667c11.733 0 21.333 9.6 21.333 21.333s-9.6 21.333-21.333 21.333h-105.6c5.333 113.067 50.133 216.533 122.667 295.467l74.667-74.667c4.267-4.267 9.6-6.4 14.933-6.4s10.667 2.133 14.933 6.4c8.533 8.533 8.533 21.333 0 29.867l-74.667 74.667c78.933 71.467 181.333 117.333 295.467 122.667v-107.733c0-11.733 9.6-21.333 21.333-21.333s21.333 9.6 21.333 21.333v105.6c113.067-5.333 216.533-50.133 295.467-122.667l-74.667-74.667c-8.533-8.533-8.533-21.333 0-29.867 2.133-4.267 7.467-6.4 12.8-6.4s10.667 2.133 14.933 6.4l74.667 74.667c71.467-78.933 117.333-181.333 122.667-295.467h-105.6c-11.733 0-21.333-9.6-21.333-21.333s9.6-21.333 21.333-21.333h105.6c-4.267-112-50.133-215.467-121.6-294.4zM673.067 637.867l-229.333-110.933c-4.267-2.133-7.467-5.333-9.6-9.6l-112-230.4c-4.267-8.533-2.133-18.133 4.267-24.533 4.267-4.267 9.6-6.4 14.933-6.4 3.2 0 6.4 1.067 9.6 2.133l230.4 110.933c4.267 2.133 7.467 5.333 9.6 9.6l110.933 230.4c4.267 8.533 2.133 18.133-4.267 24.533s-16 8.533-24.533 4.267zM387.2 323.2l76.8 157.867 81.067-81.067-157.867-76.8z" />
<glyph unicode="&#xe9ce;" glyph-name="map-medium" d="M1012.267 957.867c-7.467 3.2-16 2.133-22.4-3.2l-314.667-256-313.6 256c-1.067 1.067-3.2 2.133-4.267 2.133 0 0 0 0 0 0s0 0-1.067 0c-1.067 1.067-3.2 1.067-4.267 1.067 0 0-1.067 0-1.067 0-2.133 0-3.2 0-5.333 0 0 0-1.067 0-1.067 0-1.067 0-3.2-1.067-4.267-1.067 0 0-1.067 0-1.067 0-2.133-1.067-3.2-2.133-4.267-3.2 0 0 0 0 0 0l-327.467-265.6c-4.267-4.267-7.467-10.667-7.467-17.067v-713.6c0-8.533 4.267-16 11.733-19.2 3.2-1.067 6.4-2.133 9.6-2.133 5.333 0 9.6 2.133 13.867 5.333l313.6 257.067 313.6-257.067c0 0 0 0 0 0s1.067 0 1.067-1.067 2.133-1.067 2.133-2.133c0 0 1.067 0 1.067-1.067 1.067 0 2.133-1.067 3.2-1.067 0 0 1.067 0 1.067 0 1.067 0 3.2 0 4.267 0v0c0 0 0 0 0 0 1.067 0 3.2 0 4.267 0 0 0 1.067 0 1.067 0 1.067 0 2.133 1.067 3.2 1.067 0 0 0 0 1.067 0 0 0 0 0 0 0 1.067 1.067 3.2 1.067 4.267 2.133l327.467 267.733c5.333 4.267 7.467 9.6 7.467 16v715.733c0 8.533-4.267 16-11.733 19.2zM327.467 234.667l-284.8-232.533v659.2l284.8 232.533v-659.2zM653.867 2.133l-283.733 232.533v659.2l283.733-232.533v-659.2zM981.333 234.667l-284.8-232.533v659.2l284.8 232.533v-659.2z" />
<glyph unicode="&#xe9cf;" glyph-name="indication-medium" d="M512 832c-212.267 0-384-171.733-384-384s171.733-384 384-384 384 171.733 384 384-171.733 384-384 384zM533.333 107.733v180.267c0 11.733-9.6 21.333-21.333 21.333s-21.333-9.6-21.333-21.333v-180.267c-171.733 10.667-308.267 148.267-318.933 318.933h180.267c11.733 0 21.333 9.6 21.333 21.333s-9.6 21.333-21.333 21.333h-180.267c10.667 171.733 148.267 308.267 318.933 318.933v-180.267c0-11.733 9.6-21.333 21.333-21.333s21.333 9.6 21.333 21.333v180.267c171.733-10.667 308.267-148.267 318.933-318.933h-180.267c-11.733 0-21.333-9.6-21.333-21.333s9.6-21.333 21.333-21.333h180.267c-10.667-171.733-147.2-308.267-318.933-318.933z" />
<glyph unicode="&#xe9d0;" glyph-name="location-medium" d="M512 960c-187.733 0-341.333-153.6-341.333-341.333 0-334.933 312.533-662.4 326.4-676.267 4.267-4.267 9.6-6.4 14.933-6.4s11.733 2.133 14.933 6.4c13.867 13.867 326.4 340.267 326.4 676.267 0 187.733-153.6 341.333-341.333 341.333zM512-10.667c-62.933 70.4-298.667 352-298.667 629.333 0 164.267 134.4 298.667 298.667 298.667s298.667-134.4 298.667-298.667c0-277.333-235.733-558.933-298.667-629.333zM512 780.8c-90.667 0-165.333-74.667-165.333-165.333s74.667-165.333 165.333-165.333 165.333 74.667 165.333 165.333-74.667 165.333-165.333 165.333zM512 492.8c-67.2 0-122.667 55.467-122.667 122.667s55.467 122.667 122.667 122.667 122.667-55.467 122.667-122.667-55.467-122.667-122.667-122.667z" />
<glyph unicode="&#xe9d1;" glyph-name="flag-medium" d="M106.667 960c-11.733 0-21.333-9.6-21.333-21.333v-981.333c0-11.733 9.6-21.333 21.333-21.333s21.333 9.6 21.333 21.333v981.333c0 11.733-9.6 21.333-21.333 21.333zM933.333 394.667l-156.8 220.8 158.933 221.867c4.267 6.4 5.333 14.933 1.067 22.4-3.2 7.467-10.667 11.733-19.2 11.733h-682.667c-11.733 0-21.333-9.6-21.333-21.333v-469.333c0-11.733 9.6-21.333 21.333-21.333h682.667c0 0 0 0 0 0 11.733 0 21.333 9.6 21.333 21.333 0 5.333-2.133 10.667-5.333 13.867zM256 402.133v426.667h619.733l-142.933-201.6c-5.333-7.467-5.333-17.067 0-24.533l142.933-200.533h-619.733z" />
<glyph unicode="&#xe9d2;" glyph-name="hand-up-medium" d="M938.667 384c0 35.2-17.067 66.133-43.733 85.333 26.667 19.2 43.733 50.133 43.733 85.333 0 58.667-49.067 106.667-108.8 106.667h-268.8c25.6 38.4 54.4 87.467 72.533 117.333l1.067 2.133c34.133 57.6 33.067 110.933-1.067 147.2-19.2 21.333-44.8 32-71.467 32s-53.333-11.733-74.667-32c-3.2-3.2-355.2-354.133-395.733-394.667-4.267-3.2-6.4-9.6-6.4-14.933v-427.733c0-6.4 3.2-12.8 8.533-17.067l172.8-133.333c3.2-3.2 8.533-4.267 12.8-4.267h549.333c28.8 0 56.533 10.667 76.8 30.933s32 46.933 32 75.733c0 35.2-17.067 66.133-43.733 85.333 26.667 19.2 43.733 50.133 43.733 85.333s-17.067 66.133-43.733 85.333c27.733 20.267 44.8 51.2 44.8 85.333zM829.867 320c-11.733 0-21.333-9.6-21.333-21.333s9.6-21.333 21.333-21.333c36.267 0 66.133-28.8 66.133-64s-29.867-64-66.133-64c-11.733 0-21.333-9.6-21.333-21.333s9.6-21.333 21.333-21.333c36.267 0 66.133-28.8 66.133-64 0-17.067-6.4-33.067-19.2-44.8-12.8-12.8-29.867-19.2-46.933-19.2h-542.933l-158.933 122.667v408.533c50.133 50.133 384 382.933 389.333 387.2 12.8 12.8 28.8 20.267 44.8 20.267 14.933 0 28.8-6.4 40.533-18.133 28.8-30.933 6.4-76.8-4.267-96l-1.067-2.133c-23.467-39.467-66.133-112-93.867-147.2-5.333-6.4-6.4-14.933-2.133-22.4 3.2-7.467 10.667-11.733 19.2-11.733h309.333c36.267 0 66.133-28.8 66.133-64s-29.867-64-66.133-64c-11.733 0-21.333-9.6-21.333-21.333s9.6-21.333 21.333-21.333c36.267 0 66.133-28.8 66.133-64 0-36.267-29.867-65.067-66.133-65.067z" />
<glyph unicode="&#xe9d3;" glyph-name="hand-down-medium" d="M930.133 822.4l-172.8 133.333c-4.267 3.2-8.533 4.267-13.867 4.267h-549.333c-59.733 0-108.8-48-108.8-106.667 0-35.2 17.067-66.133 43.733-85.333-26.667-19.2-43.733-51.2-43.733-85.333 0-35.2 17.067-66.133 43.733-85.333-26.667-20.267-43.733-51.2-43.733-85.333 0-35.2 17.067-66.133 43.733-85.333-26.667-19.2-43.733-50.133-43.733-85.333 0-58.667 49.067-106.667 108.8-106.667h268.8c-25.6-38.4-54.4-88.533-72.533-118.4l-1.067-2.133c-34.133-57.6-33.067-110.933 1.067-147.2 19.2-20.267 44.8-30.933 71.467-30.933 0 0 0 0 0 0 26.667 0 53.333 11.733 74.667 32 3.2 3.2 355.2 354.133 395.733 394.667 4.267 4.267 6.4 9.6 6.4 14.933v427.733c0 6.4-3.2 12.8-8.533 17.067zM896 386.133c-50.133-50.133-382.933-381.867-389.333-387.2-12.8-12.8-29.867-20.267-44.8-20.267s-28.8 6.4-40.533 18.133c-28.8 30.933-6.4 76.8 4.267 96l1.067 2.133c23.467 39.467 66.133 112 93.867 148.267 5.333 6.4 6.4 14.933 2.133 22.4-3.2 7.467-10.667 11.733-19.2 11.733h-309.333c-36.267 0-66.133 28.8-66.133 64s29.867 64 66.133 64c11.733 0 21.333 9.6 21.333 21.333s-9.6 21.333-21.333 21.333c-36.267 0-66.133 28.8-66.133 64s29.867 64 66.133 64c11.733 0 21.333 9.6 21.333 21.333s-9.6 21.333-21.333 21.333c-36.267 0-66.133 28.8-66.133 64s29.867 64 66.133 64c11.733 0 21.333 9.6 21.333 21.333s-9.6 21.333-21.333 21.333c-36.267 0-66.133 28.8-66.133 64s29.867 64 66.133 64h541.867l160-122.667v-408.533z" />
<glyph unicode="&#xe9d4;" glyph-name="heart-medium" d="M741.333 917.333c-91.733 0-177.067-43.733-229.333-117.333-52.267 73.6-137.6 117.333-229.333 117.333-155.733 0-282.667-125.867-282.667-280.533 0-167.467 87.467-334.933 252.8-482.133 123.733-110.933 245.333-170.667 249.6-173.867 3.2-1.067 6.4-2.133 9.6-2.133s6.4 1.067 9.6 2.133c5.333 2.133 126.933 62.933 249.6 173.867 165.333 147.2 252.8 314.667 252.8 482.133 0 154.667-126.933 280.533-282.667 280.533zM512 24.533c-67.2 35.2-469.333 265.6-469.333 612.267 0 131.2 107.733 237.867 240 237.867 88.533 0 168.533-48 211.2-124.8 4.267-6.4 10.667-10.667 19.2-10.667s14.933 4.267 19.2 10.667c40.533 76.8 121.6 124.8 209.067 124.8 132.267 0 240-106.667 240-237.867 0-346.667-402.133-577.067-469.333-612.267z" />
<glyph unicode="&#xe9d5;" glyph-name="heart-half-medium" d="M125.867 689.067c-8.533 8.533-21.333 8.533-29.867 0s-8.533-21.333 0-29.867l404.267-404.267c4.267-4.267 9.6-6.4 14.933-6.4s10.667 2.133 14.933 6.4c8.533 8.533 8.533 21.333 0 29.867l-404.267 404.267zM157.867 486.4c-8.533 8.533-21.333 8.533-29.867 0s-8.533-21.333 0-29.867l372.267-372.267c4.267-4.267 9.6-6.4 14.933-6.4s10.667 2.133 14.933 6.4c8.533 8.533 8.533 21.333 0 29.867l-372.267 372.267zM333.867 822.4c-8.533 8.533-21.333 8.533-29.867 0s-8.533-21.333 0-29.867l196.267-196.267c4.267-4.267 9.6-6.4 14.933-6.4s10.667 2.133 14.933 6.4c8.533 8.533 8.533 21.333 0 29.867l-196.267 196.267zM192 791.467c-8.533 8.533-21.333 8.533-29.867 0s-8.533-21.333 0-29.867l337.067-337.067c4.267-4.267 9.6-6.4 14.933-6.4s10.667 2.133 14.933 6.4c8.533 8.533 8.533 21.333 0 29.867l-337.067 337.067zM741.333 917.333c-91.733 0-177.067-43.733-229.333-117.333-52.267 73.6-137.6 117.333-229.333 117.333-155.733 0-282.667-125.867-282.667-280.533 0-167.467 87.467-334.933 252.8-482.133 123.733-110.933 245.333-170.667 249.6-173.867 3.2-1.067 6.4-2.133 9.6-2.133s6.4 1.067 9.6 2.133c5.333 2.133 126.933 62.933 249.6 173.867 165.333 147.2 252.8 314.667 252.8 482.133 0 154.667-126.933 280.533-282.667 280.533zM512 24.533c-67.2 35.2-469.333 265.6-469.333 612.267 0 131.2 107.733 237.867 240 237.867 88.533 0 168.533-48 211.2-124.8 4.267-6.4 10.667-10.667 19.2-10.667s14.933 4.267 19.2 10.667c40.533 76.8 121.6 124.8 209.067 124.8 132.267 0 240-106.667 240-237.867 0-346.667-402.133-577.067-469.333-612.267z" />
<glyph unicode="&#xe9d6;" glyph-name="heart-full-medium" d="M121.6 682.667c-8.533 8.533-21.333 8.533-29.867 0s-8.533-21.333 0-29.867l505.6-504.533c4.267-4.267 9.6-6.4 14.933-6.4s10.667 2.133 14.933 6.4c8.533 8.533 8.533 21.333 0 29.867l-505.6 504.533zM889.6 689.067c4.267-4.267 9.6-6.4 14.933-6.4s10.667 2.133 14.933 6.4c8.533 8.533 8.533 21.333 0 29.867l-94.933 94.933c-8.533 8.533-21.333 8.533-29.867 0s-8.533-21.333 0-29.867l94.933-94.933zM161.067 477.867c-8.533 8.533-21.333 8.533-29.867 0s-8.533-21.333 0-29.867l366.933-365.867c3.2-5.333 8.533-7.467 13.867-7.467s10.667 2.133 14.933 6.4c8.533 8.533 8.533 21.333 0 29.867l-365.867 366.933zM183.467 786.133c-8.533 8.533-21.333 8.533-29.867 0s-8.533-21.333 0-29.867l536.533-535.467c4.267-4.267 9.6-6.4 14.933-6.4s10.667 2.133 14.933 6.4c8.533 8.533 8.533 21.333 0 29.867l-536.533 535.467zM920.533 550.4l-253.867 253.867c-8.533 8.533-21.333 8.533-29.867 0s-8.533-21.333 0-29.867l253.867-253.867c4.267-4.267 9.6-6.4 14.933-6.4s10.667 2.133 14.933 6.4c8.533 8.533 8.533 22.4 0 29.867zM741.333 917.333c-91.733 0-177.067-43.733-229.333-117.333-52.267 73.6-137.6 117.333-229.333 117.333-155.733 0-282.667-125.867-282.667-280.533 0-167.467 87.467-334.933 252.8-482.133 123.733-110.933 245.333-170.667 249.6-173.867 3.2-1.067 6.4-2.133 9.6-2.133s6.4 1.067 9.6 2.133c5.333 2.133 126.933 62.933 249.6 173.867 165.333 147.2 252.8 314.667 252.8 482.133 0 154.667-126.933 280.533-282.667 280.533zM512 24.533c-67.2 35.2-469.333 264.533-469.333 612.267 0 131.2 107.733 237.867 240 237.867 88.533 0 168.533-48 211.2-124.8 4.267-6.4 10.667-10.667 19.2-10.667s14.933 4.267 19.2 10.667c40.533 76.8 121.6 124.8 209.067 124.8 132.267 0 240-106.667 240-237.867 0-346.667-402.133-577.067-469.333-612.267zM310.4 827.733c-8.533 8.533-21.333 8.533-29.867 0s-8.533-21.333 0-29.867l492.8-491.733c4.267-4.267 9.6-6.4 14.933-6.4s10.667 2.133 14.933 6.4c8.533 8.533 8.533 21.333 0 29.867l-492.8 491.733zM589.867 715.733c-8.533 8.533-21.333 8.533-29.867 0s-8.533-21.333 0-29.867l282.667-281.6c4.267-4.267 9.6-6.4 14.933-6.4s10.667 2.133 14.933 6.4c8.533 8.533 8.533 21.333 0 29.867l-282.667 281.6z" />
<glyph unicode="&#xe9d7;" glyph-name="star-medium" d="M1022.933 563.2c-3.2 8.533-10.667 14.933-20.267 14.933l-359.467 1.067-110.933 333.867c-3.2 8.533-10.667 14.933-20.267 14.933s-17.067-6.4-20.267-14.933l-110.933-334.933h-359.467c-9.6 0-17.067-6.4-20.267-14.933s0-18.133 7.467-23.467l290.133-208-109.867-336c-3.2-8.533 0-18.133 7.467-23.467s17.067-5.333 24.533 0l291.2 206.933 291.2-206.933c3.2-2.133 8.533-4.267 12.8-4.267s8.533 1.067 12.8 4.267c7.467 5.333 10.667 14.933 7.467 23.467l-110.933 336 290.133 208c7.467 4.267 10.667 13.867 7.467 23.467zM688 357.333c-7.467-5.333-10.667-14.933-7.467-24.533l94.933-288-250.667 178.133c-3.2 2.133-8.533 4.267-12.8 4.267s-8.533-1.067-12.8-4.267l-249.6-178.133 94.933 288c3.2 8.533 0 18.133-7.467 24.533l-249.6 178.133h308.267c9.6 0 17.067 6.4 20.267 14.933l96 289.067 96-289.067c3.2-8.533 10.667-14.933 20.267-14.933h308.267l-248.533-178.133z" />
<glyph unicode="&#xe9d8;" glyph-name="star-half-medium" d="M1022.933 563.2c-3.2 8.533-10.667 14.933-20.267 14.933l-359.467 1.067-110.933 333.867c-3.2 8.533-10.667 14.933-20.267 14.933s-17.067-6.4-20.267-14.933l-110.933-334.933h-359.467c-9.6 0-17.067-6.4-20.267-14.933s0-18.133 7.467-23.467l290.133-208-109.867-336c-3.2-8.533 0-18.133 7.467-23.467s17.067-5.333 24.533 0l291.2 206.933 291.2-206.933c3.2-2.133 8.533-4.267 12.8-4.267s8.533 1.067 12.8 4.267c7.467 5.333 10.667 14.933 7.467 23.467l-110.933 336 290.133 208c7.467 4.267 10.667 13.867 7.467 23.467zM87.467 535.467h69.333l177.067-176-246.4 176zM249.6 44.8l57.6 174.933 77.867-77.867-135.467-97.067zM420.267 166.4l-98.133 98.133 22.4 68.267c2.133 6.4 1.067 12.8-2.133 18.133l140.8-139.733-62.933-44.8zM688 357.333c-7.467-5.333-10.667-14.933-7.467-24.533l94.933-288-229.333 162.133-328.533 328.533h106.667l172.8-172.8c4.267-4.267 9.6-6.4 14.933-6.4s10.667 2.133 14.933 6.4c8.533 8.533 8.533 21.333 0 29.867l-142.933 142.933h11.733c9.6 0 17.067 6.4 20.267 14.933l14.933 44.8 66.133-66.133c4.267-4.267 9.6-6.4 14.933-6.4s10.667 2.133 14.933 6.4c8.533 8.533 8.533 21.333 0 29.867l-81.067 81.067 26.667 80 24.533-24.533c4.267-4.267 9.6-6.4 14.933-6.4s10.667 2.133 14.933 6.4c8.533 8.533 8.533 21.333 0 29.867l-39.467 39.467 24.533 73.6 96-289.067c3.2-8.533 10.667-14.933 20.267-14.933h308.267l-248.533-177.067z" />
<glyph unicode="&#xe9d9;" glyph-name="star-full-medium" d="M1022.933 563.2c-3.2 8.533-10.667 14.933-20.267 14.933l-359.467 1.067-110.933 333.867c-3.2 8.533-10.667 14.933-20.267 14.933s-17.067-6.4-20.267-14.933l-110.933-334.933h-359.467c-9.6 0-17.067-6.4-20.267-14.933s0-18.133 7.467-23.467l290.133-208-109.867-336c-3.2-8.533 0-18.133 7.467-23.467 4.267-3.2 8.533-4.267 12.8-4.267s8.533 1.067 12.8 4.267l290.133 206.933 291.2-206.933c7.467-5.333 18.133-5.333 24.533 0 7.467 5.333 10.667 14.933 7.467 23.467l-109.867 336 290.133 208c7.467 4.267 10.667 13.867 7.467 23.467zM512 839.467l49.067-146.133-72.533 72.533 23.467 73.6zM395.733 535.467c9.6 0 17.067 6.4 20.267 14.933l14.933 44.8 248.533-248.533c-1.067-4.267-2.133-9.6 0-13.867l45.867-137.6-341.333 340.267h11.733zM87.467 535.467h69.333l177.067-176-246.4 176zM249.6 44.8l57.6 174.933 77.867-77.867-135.467-97.067zM420.267 166.4l-98.133 98.133 22.4 68.267c2.133 6.4 1.067 12.8-2.133 18.133l140.8-139.733-62.933-44.8zM755.2 105.6l20.267-60.8-240 169.6c-1.067 3.2-2.133 5.333-5.333 7.467l-312.533 313.6h106.667l430.933-429.867zM712.533 374.4l-266.667 265.6 26.667 80 118.4-117.333 17.067-52.267c3.2-8.533 10.667-14.933 20.267-14.933h29.867l116.267-116.267-61.867-44.8zM809.6 443.733l-91.733 90.667h217.6l-125.867-90.667z" />
<glyph unicode="&#xe9da;" glyph-name="rss-medium" d="M106.667 637.867c-11.733 0-21.333-9.6-21.333-21.333s9.6-21.333 21.333-21.333c147.2 0 285.867-57.6 390.4-162.133s162.133-243.2 162.133-390.4c0-11.733 9.6-21.333 21.333-21.333s21.333 9.6 21.333 21.333c0 158.933-61.867 308.267-173.867 420.267-113.067 113.067-262.4 174.933-421.333 174.933zM106.667 400c-11.733 0-21.333-9.6-21.333-21.333s9.6-21.333 21.333-21.333c84.267 0 163.2-33.067 222.933-91.733 59.733-59.733 91.733-138.667 91.733-222.933 0-11.733 9.6-21.333 21.333-21.333s21.333 9.6 21.333 21.333c0 96-37.333 185.6-104.533 252.8s-156.8 104.533-252.8 104.533zM695.467 631.467c-157.867 156.8-366.933 243.2-588.8 243.2-11.733 0-21.333-9.6-21.333-21.333s9.6-21.333 21.333-21.333c211.2 0 408.533-82.133 557.867-231.467s231.467-346.667 231.467-557.867c0-11.733 9.6-21.333 21.333-21.333s21.333 9.6 21.333 21.333c0 221.867-86.4 430.933-243.2 588.8z" />
<glyph unicode="&#xe9db;" glyph-name="diamond-medium" d="M1018.667 596.267l-165.333 247.467c0 0 0 0 0 0-1.067 1.067-2.133 2.133-3.2 3.2 0 0 0 0 0 0-1.067 1.067-2.133 2.133-3.2 2.133 0 0 0 0 0 0s-1.067 0-1.067 1.067c-1.067 0-2.133 1.067-3.2 1.067 0 0-1.067 0-1.067 0-1.067 0-2.133 0-3.2 0 0 0-1.067 0-1.067 0h-648.533c0 0-1.067 0-1.067 0-1.067 0-2.133 0-3.2 0 0 0-1.067 0-1.067 0-1.067 0-2.133-1.067-3.2-1.067 0 0-1.067 0-1.067-1.067 0 0 0 0 0 0-1.067-1.067-2.133-2.133-3.2-2.133 0 0 0 0 0 0-1.067-1.067-2.133-2.133-3.2-3.2 0 0 0 0 0 0l-169.6-249.6c0 0 0 0 0-1.067-1.067-1.067-1.067-2.133-2.133-3.2 0 0 0-1.067 0-1.067-1.067-2.133-1.067-3.2-1.067-5.333 0 0 0 0 0-1.067s0-3.2 0-4.267c0 0 0-1.067 0-1.067 0-1.067 1.067-3.2 1.067-4.267 0 0 0 0 0-1.067 0 0 0 0 0 0 1.067-1.067 1.067-2.133 2.133-4.267l490.667-561.067c1.067-1.067 2.133-2.133 3.2-3.2 0 0 0 0 0 0 1.067-1.067 3.2-2.133 5.333-2.133 0 0 1.067 0 1.067 0 4.267-1.067 6.4-1.067 8.533-1.067s4.267 0 6.4 1.067c0 0 1.067 0 1.067 0 2.133 1.067 3.2 1.067 5.333 2.133 0 0 0 0 0 0 1.067 1.067 2.133 2.133 3.2 3.2l489.6 560c4.267 4.267 6.4 9.6 6.4 16 0 5.333-2.133 10.667-5.333 13.867zM798.933 810.667l-110.933-188.8-134.4 188.8h245.333zM648.533 603.733h-273.067l136.533 192 136.533-192zM470.4 810.667l-134.4-188.8-110.933 188.8h245.333zM186.667 791.467l109.867-187.733h-235.733l125.867 187.733zM68.267 561.067h250.667l141.867-449.067-392.533 449.067zM512 91.733l-148.267 469.333h296.533l-148.267-469.333zM563.2 112l141.867 449.067h250.667l-392.533-449.067zM726.4 603.733l109.867 187.733 125.867-187.733h-235.733z" />
<glyph unicode="&#xe9dc;" glyph-name="face-smile-medium" d="M309.333 565.333c18.133 0 32 13.867 32 32s-13.867 32-32 32-32-13.867-32-32c0-18.133 13.867-32 32-32zM714.667 565.333c18.133 0 32 13.867 32 32s-13.867 32-32 32-32-13.867-32-32c0-18.133 13.867-32 32-32zM740.267 304c-9.6-7.467-19.2-14.933-28.8-21.333s-20.267-12.8-30.933-18.133c-10.667-5.333-21.333-10.667-32-14.933s-22.4-8.533-33.067-11.733c-10.667-3.2-22.4-6.4-34.133-8.533s-22.4-4.267-34.133-5.333c-23.467-2.133-46.933-2.133-69.333 0-11.733 1.067-23.467 3.2-34.133 5.333-11.733 2.133-22.4 5.333-34.133 8.533-10.667 3.2-22.4 7.467-33.067 11.733s-21.333 9.6-32 14.933c-10.667 5.333-21.333 11.733-30.933 18.133s-20.267 13.867-28.8 21.333c-9.6 7.467-22.4 6.4-29.867-3.2s-6.4-22.4 3.2-29.867c10.667-8.533 21.333-16 33.067-23.467 10.667-7.467 22.4-13.867 34.133-20.267s23.467-11.733 36.267-16c11.733-5.333 24.533-9.6 37.333-12.8s25.6-6.4 38.4-9.6c12.8-2.133 25.6-4.267 38.4-5.333s25.6-2.133 38.4-2.133 25.6 1.067 38.4 2.133c12.8 1.067 25.6 3.2 38.4 5.333s25.6 5.333 38.4 9.6c12.8 3.2 24.533 7.467 37.333 12.8 11.733 5.333 24.533 10.667 36.267 16 11.733 6.4 23.467 12.8 34.133 20.267 11.733 7.467 22.4 14.933 33.067 23.467 9.6 7.467 10.667 21.333 3.2 29.867-10.667 9.6-23.467 10.667-33.067 3.2zM512 960c-282.667 0-512-229.333-512-512s229.333-512 512-512 512 229.333 512 512-229.333 512-512 512zM512-21.333c-259.2 0-469.333 210.133-469.333 469.333s210.133 469.333 469.333 469.333 469.333-210.133 469.333-469.333-210.133-469.333-469.333-469.333z" />
<glyph unicode="&#xe9dd;" glyph-name="face-sad-medium" d="M309.333 565.333c18.133 0 32 13.867 32 32s-13.867 32-32 32-32-13.867-32-32c0-18.133 13.867-32 32-32zM714.667 565.333c18.133 0 32 13.867 32 32s-13.867 32-32 32-32-13.867-32-32c0-18.133 13.867-32 32-32zM771.2 240c-10.667 8.533-21.333 16-33.067 23.467-10.667 7.467-22.4 13.867-34.133 20.267s-23.467 11.733-36.267 16c-11.733 5.333-24.533 9.6-37.333 12.8s-25.6 6.4-38.4 9.6c-12.8 2.133-25.6 4.267-38.4 5.333-25.6 2.133-52.267 2.133-77.867 0-12.8-1.067-25.6-3.2-38.4-5.333s-25.6-5.333-38.4-9.6c-12.8-3.2-24.533-7.467-37.333-12.8-11.733-5.333-24.533-10.667-36.267-16-11.733-6.4-23.467-12.8-34.133-20.267-11.733-7.467-22.4-14.933-33.067-23.467-9.6-7.467-10.667-21.333-3.2-29.867s21.333-10.667 29.867-3.2c9.6 7.467 19.2 14.933 28.8 21.333s20.267 12.8 30.933 18.133c10.667 5.333 21.333 10.667 32 14.933s22.4 8.533 33.067 11.733c10.667 3.2 22.4 6.4 34.133 8.533s23.467 4.267 34.133 5.333c23.467 2.133 46.933 2.133 69.333 0 11.733-1.067 23.467-3.2 34.133-5.333 11.733-2.133 22.4-5.333 34.133-8.533s22.4-7.467 33.067-11.733c10.667-4.267 21.333-9.6 32-14.933s21.333-11.733 30.933-18.133c9.6-6.4 20.267-13.867 28.8-21.333 4.267-3.2 8.533-4.267 13.867-4.267 6.4 0 12.8 3.2 17.067 7.467 10.667 9.6 8.533 22.4 0 29.867zM512 960c-282.667 0-512-229.333-512-512s229.333-512 512-512 512 229.333 512 512-229.333 512-512 512zM512-21.333c-259.2 0-469.333 210.133-469.333 469.333s210.133 469.333 469.333 469.333 469.333-210.133 469.333-469.333-210.133-469.333-469.333-469.333z" />
<glyph unicode="&#xe9de;" glyph-name="check-medium" d="M1018.667 781.867c-7.467 8.533-21.333 9.6-29.867 2.133l-709.333-626.133-242.133 279.467c-7.467 8.533-21.333 9.6-29.867 2.133s-9.6-21.333-2.133-29.867l256-295.467c3.2-4.267 8.533-6.4 14.933-7.467 0 0 1.067 0 1.067 0 5.333 0 10.667 2.133 13.867 5.333l725.333 640c9.6 7.467 9.6 21.333 2.133 29.867z" />
<glyph unicode="&#xe9df;" glyph-name="font-up-medium" d="M450.133 925.867c0 0 0 0 0 0-1.067 1.067-1.067 2.133-2.133 3.2 0 1.067-1.067 1.067-1.067 2.133 0 0-1.067 1.067-1.067 1.067-1.067 1.067-1.067 1.067-2.133 2.133 0 0-1.067 1.067-1.067 1.067-3.2 1.067-5.333 2.133-8.533 3.2 0 0-1.067 0-1.067 0-1.067 0-2.133 0-2.133 0-1.067 0-1.067 0-2.133 0s-2.133 0-2.133 0-2.133-1.067-3.2-1.067c0 0 0 0-1.067 0 0 0 0 0 0 0-1.067-1.067-2.133-1.067-3.2-2.133 0 0-1.067-1.067-1.067-1.067-1.067 0-1.067-1.067-2.133-2.133 0 0-1.067-1.067-1.067-1.067 0-1.067-1.067-1.067-1.067-2.133-1.067-1.067-1.067-2.133-2.133-3.2 0 0 0 0 0 0l-387.2-938.667c-4.267-10.667 1.067-23.467 11.733-27.733 1.067-2.133 3.2-2.133 6.4-2.133 8.533 0 16 5.333 19.2 12.8l123.733 299.733h488.533l123.733-299.733c3.2-8.533 11.733-12.8 19.2-12.8 3.2 0 5.333 0 8.533 2.133 10.667 4.267 16 17.067 11.733 27.733l-387.2 938.667zM203.733 312.533l226.133 549.333 226.133-548.267h-452.267zM981.333 795.733h-121.6v121.6c0 11.733-9.6 21.333-21.333 21.333s-21.333-9.6-21.333-21.333v-121.6h-121.6c-11.733 0-21.333-9.6-21.333-21.333s9.6-21.333 21.333-21.333h121.6v-121.6c0-11.733 9.6-21.333 21.333-21.333s21.333 9.6 21.333 21.333v121.6h121.6c11.733 0 21.333 9.6 21.333 21.333s-9.6 21.333-21.333 21.333z" />
<glyph unicode="&#xe9e0;" glyph-name="font-down-medium" d="M981.333 795.733h-285.867c-11.733 0-21.333-9.6-21.333-21.333s9.6-21.333 21.333-21.333h285.867c11.733 0 21.333 9.6 21.333 21.333s-9.6 21.333-21.333 21.333zM450.133 925.867c0 0 0 0 0 0-1.067 1.067-1.067 2.133-2.133 3.2 0 1.067-1.067 1.067-1.067 2.133s-1.067 1.067-1.067 1.067c-1.067 1.067-1.067 1.067-2.133 2.133 0 0-1.067 1.067-1.067 1.067-1.067 1.067-2.133 1.067-4.267 2.133v0c0 0 0 0 0 0-1.067 0-2.133 1.067-4.267 1.067-1.067 0-1.067 0-2.133 0s-2.133 0-2.133 0-1.067 0-2.133 0c0 0-1.067 0-1.067 0-1.067 0-2.133-1.067-3.2-1.067 0 0-1.067 0-1.067 0s0 0 0 0c-1.067 0-2.133-1.067-3.2-2.133-1.067 0-1.067-1.067-1.067-1.067-1.067 0-1.067-1.067-2.133-1.067-1.067-1.067-1.067-1.067-1.067-2.133 0 0-1.067-1.067-1.067-1.067-1.067-1.067-1.067-2.133-2.133-3.2 0 0 0 0 0 0l-387.2-938.667c-4.267-10.667 1.067-23.467 11.733-27.733 1.067-3.2 3.2-3.2 6.4-3.2 8.533 0 16 5.333 19.2 12.8l123.733 299.733h488.533l123.733-299.733c3.2-8.533 11.733-12.8 19.2-12.8 3.2 0 5.333 0 8.533 2.133 10.667 4.267 16 17.067 11.733 27.733l-387.2 938.667zM203.733 312.533l226.133 549.333 226.133-548.267h-452.267z" />
<glyph unicode="&#xe9e1;" glyph-name="phone-medium" d="M960 913.067c-17.067 17.067-37.333 30.933-59.733 41.6l-6.4 3.2c-8.533 4.267-18.133 2.133-24.533-4.267l-256-256c-6.4-6.4-8.533-16-4.267-24.533l3.2-6.4c10.667-22.4 24.533-42.667 41.6-59.733 29.867-29.867 67.2-50.133 107.733-58.667-36.267-69.333-87.467-137.6-150.4-200.533-62.933-61.867-131.2-114.133-200.533-150.4-8.533 40.533-28.8 77.867-58.667 107.733-17.067 17.067-37.333 30.933-59.733 41.6l-6.4 3.2c-8.533 4.267-18.133 2.133-24.533-4.267l-256-256c-5.333-5.333-7.467-14.933-3.2-23.467l3.2-6.4c10.667-22.4 24.533-42.667 41.6-59.733 19.2-19.2 75.733-64 180.267-64 107.733 0 283.733 49.067 516.267 280.533 156.8 157.867 248.533 307.2 274.133 445.867 26.667 151.467-37.333 230.4-57.6 250.667zM974.933 669.867c-22.4-129.067-110.933-272-262.4-422.4-221.867-221.867-386.133-268.8-485.333-268.8-88.533 0-134.4 36.267-149.333 51.2-11.733 11.733-22.4 25.6-29.867 41.6l233.6 233.6c14.933-8.533 28.8-18.133 40.533-29.867 29.867-29.867 48-68.267 50.133-110.933 0-7.467 4.267-13.867 10.667-17.067s13.867-4.267 20.267-1.067c82.133 38.4 164.267 98.133 238.933 172.8s133.333 156.8 171.733 238.933c3.2 6.4 2.133 13.867-1.067 20.267s-9.6 9.6-17.067 10.667c-41.6 3.2-81.067 20.267-110.933 50.133-11.733 11.733-22.4 25.6-29.867 40.533l233.6 233.6c14.933-8.533 28.8-18.133 40.533-29.867 17.067-17.067 70.4-82.133 45.867-213.333z" />
<glyph unicode="&#xe9e2;" glyph-name="screen-medium" d="M1002.667 874.667h-981.333c-11.733 0-21.333-9.6-21.333-21.333v-554.667c0-11.733 9.6-21.333 21.333-21.333h329.6l-30.933-231.467c-1.067-6.4 1.067-11.733 5.333-17.067 4.267-4.267 9.6-7.467 16-7.467h341.333c6.4 0 11.733 2.133 16 7.467 4.267 4.267 6.4 10.667 5.333 17.067l-30.933 231.467h329.6c11.733 0 21.333 9.6 21.333 21.333v554.667c0 11.733-9.6 21.333-21.333 21.333zM365.867 64l28.8 213.333h234.667l28.8-213.333h-292.267zM981.333 320h-938.667v512h938.667v-512z" />
<glyph unicode="&#xe9e3;" glyph-name="laptop-medium" d="M1002.667 746.667h-981.333c-11.733 0-21.333-9.6-21.333-21.333v-426.667c0-11.733 9.6-21.333 21.333-21.333h981.333c11.733 0 21.333 9.6 21.333 21.333v426.667c0 11.733-9.6 21.333-21.333 21.333zM981.333 320h-938.667v384h938.667v-384zM1001.6 192h-979.2c-11.733 0-21.333-9.6-21.333-21.333s9.6-21.333 21.333-21.333h979.2c11.733 0 21.333 9.6 21.333 21.333s-9.6 21.333-21.333 21.333z" />
<glyph unicode="&#xe9e4;" glyph-name="tablet-medium" d="M480 744.533h64c11.733 0 21.333 9.6 21.333 21.333s-9.6 21.333-21.333 21.333h-64c-11.733 0-21.333-9.6-21.333-21.333s9.6-21.333 21.333-21.333zM512 168.533c-18.133 0-32-13.867-32-32s13.867-32 32-32 32 13.867 32 32c0 17.067-13.867 32-32 32zM832 874.667h-640c-11.733 0-21.333-9.6-21.333-21.333v-810.667c0-11.733 9.6-21.333 21.333-21.333h640c11.733 0 21.333 9.6 21.333 21.333v810.667c0 11.733-9.6 21.333-21.333 21.333zM810.667 64h-597.333v768h597.333v-768z" />
<glyph unicode="&#xe9e5;" glyph-name="mobile-phone-medium" d="M480 701.867h64c11.733 0 21.333 9.6 21.333 21.333s-9.6 21.333-21.333 21.333h-64c-11.733 0-21.333-9.6-21.333-21.333s9.6-21.333 21.333-21.333zM512 211.2c-18.133 0-32-13.867-32-32s13.867-32 32-32c18.133 0 32 13.867 32 32 0 17.067-13.867 32-32 32zM746.667 832h-469.333c-11.733 0-21.333-9.6-21.333-21.333v-725.333c0-11.733 9.6-21.333 21.333-21.333h469.333c11.733 0 21.333 9.6 21.333 21.333v725.333c0 11.733-9.6 21.333-21.333 21.333zM725.333 106.667h-426.667v682.667h426.667v-682.667z" />
<glyph unicode="&#xe9e6;" glyph-name="photo-camera-medium" d="M512 629.333c-117.333 0-213.333-96-213.333-213.333s96-213.333 213.333-213.333 213.333 96 213.333 213.333c0 117.333-96 213.333-213.333 213.333zM512 245.333c-93.867 0-170.667 76.8-170.667 170.667s76.8 170.667 170.667 170.667 170.667-76.8 170.667-170.667c0-93.867-76.8-170.667-170.667-170.667zM1002.667 685.867h-257.067l-36.267 89.6c-3.2 8.533-10.667 12.8-20.267 12.8h-354.133c-8.533 0-16-5.333-20.267-12.8l-36.267-89.6h-257.067c-11.733 0-21.333-9.6-21.333-21.333v-536.533c0-11.733 9.6-21.333 21.333-21.333h981.333c11.733 0 21.333 9.6 21.333 21.333v536.533c0 11.733-9.6 21.333-21.333 21.333zM981.333 149.333h-938.667v493.867h249.6c8.533 0 16 5.333 20.267 12.8l36.267 89.6h326.4l36.267-89.6c3.2-8.533 10.667-12.8 20.267-12.8h249.6v-493.867z" />
<glyph unicode="&#xe9e7;" glyph-name="video-camera-medium" d="M1015.467 669.867c-5.333 4.267-11.733 5.333-18.133 4.267l-144-36.267v87.467c0 11.733-9.6 21.333-21.333 21.333h-810.667c-11.733 0-21.333-9.6-21.333-21.333v-554.667c0-11.733 9.6-21.333 21.333-21.333h810.667c11.733 0 21.333 9.6 21.333 21.333v87.467l144-35.2c2.133 0 3.2-1.067 5.333-1.067 4.267 0 9.6 1.067 12.8 4.267 5.333 4.267 8.533 10.667 8.533 17.067v409.6c0 6.4-3.2 12.8-8.533 17.067zM810.667 192h-768v512h768v-512zM981.333 269.867l-128 32v292.267l128 32v-356.267z" />
<glyph unicode="&#xe9e8;" glyph-name="picture-medium" d="M1002.667 960h-981.333c-11.733 0-21.333-9.6-21.333-21.333v-981.333c0-11.733 9.6-21.333 21.333-21.333h981.333c11.733 0 21.333 9.6 21.333 21.333v981.333c0 11.733-9.6 21.333-21.333 21.333zM981.333-21.333h-938.667v197.333h938.667v-197.333zM981.333 218.667h-938.667v698.667h938.667v-698.667zM234.667 320h554.667c0 0 0 0 0 0 11.733 0 21.333 9.6 21.333 21.333 0 5.333-2.133 9.6-4.267 12.8l-276.267 467.2c-4.267 6.4-10.667 10.667-18.133 10.667s-14.933-4.267-18.133-10.667l-277.333-469.333c-4.267-6.4-4.267-14.933 0-21.333 3.2-6.4 10.667-10.667 18.133-10.667zM512 769.067l91.733-154.667-33.067-23.467-45.867 33.067c-7.467 5.333-18.133 5.333-25.6 0l-45.867-33.067-33.067 23.467 91.733 154.667zM398.933 577.067l41.6-30.933c4.267-3.2 8.533-4.267 12.8-4.267s8.533 1.067 12.8 4.267l45.867 33.067 45.867-33.067c7.467-5.333 18.133-5.333 25.6 0l41.6 30.933 126.933-214.4h-480l126.933 214.4z" />
<glyph unicode="&#xe9e9;" glyph-name="mail-medium" d="M1024 130.133v637.867c0 0 0 0 0 1.067 0 0 0 1.067 0 1.067 0 2.133 0 3.2-1.067 5.333 0 0 0 0 0 1.067 0 0 0 0 0 0-1.067 2.133-2.133 3.2-3.2 5.333 0 0 0 1.067-1.067 1.067-1.067 1.067-2.133 2.133-4.267 3.2 0 0 0 0 0 0-1.067 1.067-3.2 2.133-5.333 2.133 0 0-1.067 0-1.067 0-1.067 1.067-3.2 1.067-5.333 1.067h-981.333c-2.133 0-4.267 0-5.333-1.067 0 0-1.067 0-1.067 0-2.133-1.067-3.2-1.067-5.333-2.133 0 0 0 0 0 0-1.067-1.067-3.2-2.133-4.267-3.2 0 0-1.067-1.067-1.067-1.067-1.067-1.067-2.133-3.2-3.2-5.333 0 0 0 0 0 0s0 0 0-1.067c0-2.133-1.067-4.267-1.067-5.333 0 0 0-1.067 0-1.067s0 0 0-1.067v-640c0 0 0-1.067 0-1.067s0-1.067 0-1.067c0-2.133 1.067-3.2 1.067-5.333 0 0 0 0 0 0s0 0 0 0c1.067-2.133 2.133-3.2 3.2-5.333 0 0 1.067-1.067 1.067-1.067 1.067-1.067 2.133-3.2 4.267-3.2 0 0 0 0 0 0 1.067-1.067 3.2-2.133 5.333-2.133 0 0 1.067 0 1.067 0 1.067-2.133 3.2-2.133 5.333-2.133h981.333c0 0 0 0 0 0 11.733 0 21.333 9.6 21.333 21.333 0 1.067 0 1.067 0 2.133zM945.067 746.667l-433.067-376.533-433.067 376.533h866.133zM42.667 721.067l298.667-259.2-298.667-283.733v542.933zM74.667 149.333l298.667 284.8 124.8-108.8c4.267-3.2 8.533-5.333 13.867-5.333s9.6 2.133 13.867 5.333l124.8 108.8 298.667-284.8h-874.667zM981.333 178.133l-298.667 283.733 298.667 259.2v-542.933z" />
<glyph unicode="&#xe9ea;" glyph-name="eye-medium" d="M1024 450.133c0 1.067 0 1.067 0 2.133s0 1.067-1.067 2.133c0 1.067 0 1.067-1.067 2.133 0 1.067-1.067 1.067-1.067 2.133s-1.067 1.067-1.067 2.133c0 0 0 0 0 0-134.4 190.933-315.733 296.533-507.733 296.533s-373.333-105.6-507.733-296.533c0 0 0 0 0 0 0-1.067-1.067-1.067-1.067-2.133s-1.067-1.067-1.067-2.133c0-1.067 0-1.067-1.067-2.133 0-1.067 0-1.067-1.067-2.133 0-1.067 0-1.067 0-2.133s0-1.067 0-2.133 0-1.067 0-2.133 0-1.067 0-2.133 0-1.067 0-2.133 0-1.067 1.067-2.133c0-1.067 1.067-1.067 1.067-2.133s1.067-1.067 1.067-2.133c0 0 0 0 0 0 135.467-190.933 316.8-296.533 508.8-296.533s373.333 105.6 507.733 296.533c0 0 0 0 0 0 0 1.067 1.067 1.067 1.067 2.133s1.067 1.067 1.067 2.133c0 1.067 0 1.067 1.067 2.133 0 1.067 0 1.067 0 2.133s0 1.067 0 2.133 0 1.067 0 2.133 1.067 1.067 1.067 2.133zM512 181.333c-173.867 0-338.133 94.933-464 266.667 125.867 171.733 290.133 266.667 464 266.667s338.133-94.933 464-266.667c-125.867-171.733-290.133-266.667-464-266.667zM512 640c-105.6 0-192-86.4-192-192s86.4-192 192-192 192 86.4 192 192-86.4 192-192 192zM512 298.667c-82.133 0-149.333 67.2-149.333 149.333s67.2 149.333 149.333 149.333 149.333-67.2 149.333-149.333-67.2-149.333-149.333-149.333z" />
<glyph unicode="&#xe9eb;" glyph-name="battery-medium" d="M1005.867 640h-106.667v42.667c0 11.733-9.6 21.333-21.333 21.333h-853.333c-11.733 0-21.333-9.6-21.333-21.333v-469.333c0-11.733 9.6-21.333 21.333-21.333h853.333c11.733 0 21.333 9.6 21.333 21.333v42.667h106.667c11.733 0 21.333 9.6 21.333 21.333v341.333c0 11.733-9.6 21.333-21.333 21.333zM856.533 234.667h-810.667v426.667h810.667v-426.667zM984.533 298.667h-85.333v298.667h85.333v-298.667z" />
<glyph unicode="&#xe9ec;" glyph-name="battery-half-medium" d="M368 298.667c11.733 0 21.333 9.6 21.333 21.333v256c0 11.733-9.6 21.333-21.333 21.333s-21.333-9.6-21.333-21.333v-256c0-11.733 9.6-21.333 21.333-21.333zM1005.867 640h-106.667v42.667c0 11.733-9.6 21.333-21.333 21.333h-853.333c-11.733 0-21.333-9.6-21.333-21.333v-469.333c0-11.733 9.6-21.333 21.333-21.333h853.333c11.733 0 21.333 9.6 21.333 21.333v42.667h106.667c11.733 0 21.333 9.6 21.333 21.333v341.333c0 11.733-9.6 21.333-21.333 21.333zM856.533 234.667h-810.667v426.667h810.667v-426.667zM984.533 298.667h-85.333v298.667h85.333v-298.667zM202.667 298.667c11.733 0 21.333 9.6 21.333 21.333v256c0 11.733-9.6 21.333-21.333 21.333s-21.333-9.6-21.333-21.333v-256c0-11.733 9.6-21.333 21.333-21.333z" />
<glyph unicode="&#xe9ed;" glyph-name="battery-full-medium" d="M534.4 298.667c11.733 0 21.333 9.6 21.333 21.333v256c0 11.733-9.6 21.333-21.333 21.333s-21.333-9.6-21.333-21.333v-256c0-11.733 9.6-21.333 21.333-21.333zM368 298.667c11.733 0 21.333 9.6 21.333 21.333v256c0 11.733-9.6 21.333-21.333 21.333s-21.333-9.6-21.333-21.333v-256c0-11.733 9.6-21.333 21.333-21.333zM700.8 298.667c11.733 0 21.333 9.6 21.333 21.333v256c0 11.733-9.6 21.333-21.333 21.333s-21.333-9.6-21.333-21.333v-256c0-11.733 9.6-21.333 21.333-21.333zM202.667 298.667c11.733 0 21.333 9.6 21.333 21.333v256c0 11.733-9.6 21.333-21.333 21.333s-21.333-9.6-21.333-21.333v-256c0-11.733 9.6-21.333 21.333-21.333zM1005.867 640h-106.667v42.667c0 11.733-9.6 21.333-21.333 21.333h-853.333c-11.733 0-21.333-9.6-21.333-21.333v-469.333c0-11.733 9.6-21.333 21.333-21.333h853.333c11.733 0 21.333 9.6 21.333 21.333v42.667h106.667c11.733 0 21.333 9.6 21.333 21.333v341.333c0 11.733-9.6 21.333-21.333 21.333zM856.533 234.667h-810.667v426.667h810.667v-426.667zM984.533 298.667h-85.333v298.667h85.333v-298.667z" />
<glyph unicode="&#xe9ee;" glyph-name="sound-off-medium" d="M883.2 789.333l134.4 134.4c8.533 8.533 8.533 21.333 0 29.867s-21.333 8.533-29.867 0l-134.4-134.4-134.4 134.4c-8.533 8.533-21.333 8.533-29.867 0s-8.533-21.333 0-29.867l134.4-134.4-134.4-134.4c-8.533-8.533-8.533-21.333 0-29.867 4.267-4.267 9.6-6.4 14.933-6.4s10.667 2.133 14.933 6.4l134.4 134.4 134.4-134.4c4.267-4.267 9.6-6.4 14.933-6.4s10.667 2.133 14.933 6.4c8.533 8.533 8.533 21.333 0 29.867l-134.4 134.4zM234.667 868.267c-5.333 5.333-12.8 7.467-20.267 5.333s-12.8-7.467-14.933-14.933l-128-473.6c-98.133-102.4-93.867-266.667 8.533-370.133 53.333-53.333 122.667-80 190.933-80 65.067 0 129.067 23.467 178.133 70.4l473.6 128c7.467 2.133 12.8 7.467 14.933 14.933s0 14.933-5.333 20.267l-697.6 699.733zM109.867 45.867c-82.133 82.133-89.6 212.267-19.2 297.6l316.8-316.8c-85.333-70.4-214.4-62.933-297.6 19.2zM445.867 50.133l-331.733 331.733 116.267 430.933 645.333-645.333-429.867-117.333z" />
<glyph unicode="&#xe9ef;" glyph-name="sound-medium" d="M597.333 680.533c39.467 0 75.733-14.933 103.467-42.667s42.667-65.067 42.667-103.467c0-11.733 9.6-21.333 21.333-21.333s21.333 9.6 21.333 21.333c0 50.133-19.2 98.133-55.467 134.4s-83.2 55.467-134.4 55.467c-11.733 0-21.333-9.6-21.333-21.333s10.667-22.4 22.4-22.4zM597.333 798.933c70.4 0 137.6-27.733 187.733-77.867s77.867-116.267 77.867-187.733c0-11.733 9.6-21.333 21.333-21.333s21.333 9.6 21.333 21.333c0 82.133-32 160-90.667 217.6-57.6 58.667-135.467 90.667-217.6 90.667-11.733 0-21.333-9.6-21.333-21.333s9.6-21.333 21.333-21.333zM899.2 835.2c-81.067 80-187.733 124.8-301.867 124.8-11.733 0-21.333-9.6-21.333-21.333s9.6-21.333 21.333-21.333c102.4 0 199.467-39.467 272-112s112-169.6 112-272c0-11.733 9.6-21.333 21.333-21.333s21.333 9.6 21.333 21.333c0 114.133-44.8 220.8-124.8 301.867zM234.667 868.267c-5.333 5.333-12.8 7.467-20.267 5.333s-12.8-7.467-14.933-14.933l-128-473.6c-98.133-102.4-93.867-266.667 8.533-370.133 53.333-53.333 122.667-80 190.933-80 65.067 0 129.067 23.467 178.133 70.4l473.6 128c7.467 2.133 12.8 7.467 14.933 14.933s0 14.933-5.333 20.267l-697.6 699.733zM109.867 45.867c-82.133 82.133-89.6 212.267-19.2 297.6l316.8-316.8c-85.333-70.4-214.4-62.933-297.6 19.2zM445.867 50.133l-331.733 331.733 116.267 430.933 645.333-645.333-429.867-117.333z" />
<glyph unicode="&#xe9f0;" glyph-name="cup-medium" d="M917.333 960h-810.667c-11.733 0-21.333-9.6-21.333-21.333v-316.8c0-108.8 60.8-196.267 169.6-249.6 25.6-149.333 173.867-204.8 230.4-220.8-22.4-78.933-87.467-162.133-173.867-172.8-10.667-1.067-19.2-11.733-18.133-22.4 1.067-11.733 9.6-20.267 21.333-20.267h394.667c0 0 0 0 0 0 11.733 0 21.333 9.6 21.333 21.333s-8.533 20.267-19.2 21.333c-85.333 11.733-150.4 93.867-173.867 172.8 56.533 16 205.867 71.467 230.4 220.8 109.867 53.333 170.667 140.8 170.667 249.6v316.8c0 11.733-9.6 21.333-21.333 21.333zM251.733 422.4c-61.867 35.2-123.733 96-123.733 199.467v295.467h123.733v-494.933zM605.867-21.333h-187.733c37.333 27.733 71.467 67.2 93.867 117.333 22.4-50.133 56.533-89.6 93.867-117.333zM729.6 417.067c0-174.933-187.733-221.867-217.6-228.267-13.867 3.2-61.867 14.933-109.867 44.8-71.467 43.733-107.733 105.6-107.733 183.467v500.267h435.2v-500.267zM896 621.867c0-103.467-61.867-164.267-123.733-199.467v494.933h123.733v-295.467z" />
<glyph unicode="&#xe9f1;" glyph-name="award-medium" d="M752 572.8c0 132.267-107.733 241.067-240 241.067s-240-107.733-240-241.067c0-132.267 107.733-241.067 240-241.067s240 108.8 240 241.067zM512 375.467c-108.8 0-197.333 88.533-197.333 198.4 0 108.8 88.533 198.4 197.333 198.4s197.333-89.6 197.333-199.467c0-108.8-88.533-197.333-197.333-197.333zM935.467 115.2l-125.867 216.533c33.067 21.333 58.667 51.2 73.6 87.467 20.267 50.133 19.2 105.6-3.2 153.6 22.4 49.067 24.533 104.533 3.2 153.6-20.267 50.133-60.8 88.533-110.933 106.667-18.133 50.133-56.533 90.667-105.6 110.933-46.933 19.2-99.2 19.2-146.133 0-2.133-1.067-5.333-2.133-7.467-3.2-48 22.4-104.533 23.467-153.6 3.2-50.133-20.267-87.467-60.8-105.6-110.933-3.2-1.067-5.333-2.133-8.533-3.2-46.933-19.2-83.2-56.533-103.467-103.467-20.267-50.133-19.2-105.6 3.2-153.6-22.4-49.067-24.533-104.533-3.2-153.6 14.933-36.267 40.533-67.2 73.6-87.467l-126.933-216.533c-3.2-6.4-4.267-13.867-1.067-20.267s9.6-10.667 17.067-11.733l160-14.933 107.733-124.8c4.267-4.267 9.6-7.467 16-7.467 1.067 0 2.133 0 3.2 0 7.467 1.067 13.867 6.4 16 12.8l100.267 253.867c1.067 1.067 3.2 1.067 4.267 2.133 1.067-1.067 3.2-1.067 4.267-2.133l99.2-253.867c3.2-7.467 8.533-11.733 16-12.8 1.067 0 2.133 0 3.2 0 6.4 0 11.733 2.133 16 7.467l107.733 124.8 160 14.933c7.467 1.067 13.867 5.333 17.067 11.733 4.267 6.4 4.267 13.867 0 20.267zM381.867-2.133l-89.6 104.533c-4.267 4.267-9.6 6.4-14.933 7.467l-135.467 12.8 110.933 189.867c18.133-50.133 56.533-89.6 105.6-110.933 23.467-9.6 48-14.933 72.533-14.933 8.533 0 17.067 1.067 24.533 2.133l-73.6-190.933zM501.333 247.467c-4.267-2.133-8.533-4.267-13.867-6.4-36.267-14.933-76.8-14.933-113.067 0-41.6 17.067-72.533 52.267-85.333 94.933-2.133 6.4-7.467 12.8-13.867 13.867-42.667 12.8-77.867 43.733-94.933 85.333s-14.933 88.533 6.4 128c3.2 6.4 3.2 13.867 0 20.267-21.333 39.467-23.467 86.4-6.4 128 14.933 36.267 43.733 65.067 80 80 5.333 2.133 9.6 4.267 14.933 5.333 6.4 2.133 12.8 7.467 13.867 13.867 12.8 43.733 43.733 77.867 85.333 94.933 18.133 7.467 37.333 11.733 56.533 11.733 24.533 0 49.067-6.4 70.4-18.133 6.4-3.2 14.933-3.2 21.333 0 4.267 2.133 9.6 4.267 13.867 6.4 36.267 14.933 76.8 14.933 113.067 0 41.6-17.067 72.533-52.267 85.333-94.933 2.133-6.4 7.467-12.8 13.867-13.867 42.667-12.8 77.867-43.733 94.933-85.333s14.933-87.467-6.4-128c-3.2-6.4-3.2-13.867 0-20.267 21.333-39.467 23.467-86.4 6.4-128-14.933-36.267-43.733-65.067-80-80-5.333-2.133-9.6-4.267-14.933-5.333-6.4-2.133-12.8-7.467-13.867-13.867-12.8-43.733-43.733-77.867-85.333-94.933-40.533-17.067-88.533-13.867-126.933 6.4-6.4 3.2-14.933 3.2-21.333 0zM746.667 109.867c-5.333 0-10.667-3.2-13.867-7.467l-89.6-104.533-74.667 190.933c33.067-4.267 67.2 0 98.133 12.8 49.067 20.267 87.467 60.8 105.6 110.933l110.933-189.867-136.533-12.8z" />
<glyph unicode="&#xe9f2;" glyph-name="cart-medium" d="M256 202.667c-73.6 0-133.333-59.733-133.333-133.333s59.733-133.333 133.333-133.333 133.333 59.733 133.333 133.333-59.733 133.333-133.333 133.333zM256-21.333c-50.133 0-90.667 40.533-90.667 90.667s40.533 90.667 90.667 90.667 90.667-40.533 90.667-90.667-40.533-90.667-90.667-90.667zM597.333 202.667c-73.6 0-133.333-59.733-133.333-133.333s59.733-133.333 133.333-133.333 133.333 59.733 133.333 133.333-59.733 133.333-133.333 133.333zM597.333-21.333c-50.133 0-90.667 40.533-90.667 90.667s40.533 90.667 90.667 90.667 90.667-40.533 90.667-90.667-40.533-90.667-90.667-90.667zM1024 940.8c-1.067 11.733-11.733 20.267-23.467 19.2l-141.867-14.933c0 0-1.067 0-1.067 0-1.067 0-1.067 0-2.133 0s-1.067 0-2.133-1.067c-1.067 0-1.067 0-2.133-1.067-1.067 0-1.067-1.067-2.133-1.067 0 0-1.067-1.067-1.067-1.067-1.067 0-1.067-1.067-2.133-1.067 0 0-1.067-1.067-1.067-1.067 0-1.067-1.067-1.067-1.067-2.133 0 0-1.067-1.067-1.067-1.067 0-1.067-1.067-1.067-1.067-2.133s0-1.067-1.067-2.133c0-1.067 0-1.067-1.067-2.133 0 0 0-1.067 0-1.067l-22.4-133.333-187.733-19.2c0 0 0 0 0 0l-406.4-41.6c0 0 0 0 0 0s0 0 0 0l-203.733-21.333c0 0-1.067 0-1.067 0s-1.067 0-1.067 0c0 0-1.067 0-1.067 0-1.067 0-1.067 0-2.133-1.067-1.067 0-1.067 0-2.133-1.067-1.067 0-1.067-1.067-2.133-1.067s-1.067-1.067-2.133-1.067c-1.067 0-1.067-1.067-1.067-1.067s-1.067-1.067-1.067-1.067c0 0-1.067-1.067-1.067-1.067 0-1.067-1.067-1.067-1.067-2.133s-1.067-1.067-1.067-2.133c0-1.067-1.067-1.067-1.067-2.133s0-1.067-1.067-2.133c0-1.067 0-1.067 0-2.133 0 0 0-1.067 0-1.067 0-1.067 0-1.067 0-2.133 0 0 0-1.067 0-1.067s0-1.067 0-1.067c0 0 0-1.067 0-1.067l83.2-392.533c0 0 0 0 0 0v0c0-1.067 1.067-2.133 1.067-4.267 0 0 0-1.067 0-1.067 0-1.067 1.067-2.133 1.067-2.133s0-1.067 1.067-1.067c0-1.067 1.067-1.067 2.133-2.133 0 0 1.067-1.067 1.067-1.067 1.067-1.067 1.067-1.067 2.133-1.067 0 0 1.067-1.067 1.067-1.067 1.067 0 1.067-1.067 2.133-1.067 0 0 1.067 0 1.067-1.067 1.067 0 2.133-1.067 2.133-1.067s1.067 0 1.067 0 2.133 0 4.267 0c0 0 0 0 0 0h647.467c0 0 0 0 0 0 1.067 0 3.2 0 4.267 0 0 0 1.067 0 1.067 0 1.067 0 2.133 0 2.133 1.067 0 0 1.067 0 1.067 1.067 1.067 0 1.067 1.067 2.133 1.067 0 0 1.067 1.067 1.067 1.067 1.067 0 1.067 1.067 2.133 1.067 0 0 1.067 1.067 1.067 1.067 1.067 1.067 1.067 1.067 1.067 2.133 0 0 1.067 1.067 1.067 1.067 0 1.067 1.067 1.067 1.067 2.133 0 0 0 1.067 1.067 1.067 0 1.067 0 1.067 1.067 2.133 0 1.067 0 1.067 0 2.133 0 0 0 0 0 0l83.2 475.733c0 0 0 0 0 0s0 0 0 0l22.4 133.333 128 12.8c11.733 1.067 20.267 11.733 19.2 23.467zM122.667 320l-74.667 353.067 158.933 16 36.267-369.067h-120.533zM407.467 320h-121.6l-37.333 373.333 158.933 16v-389.333zM570.667 320h-120.533v393.6l157.867 16-37.333-409.6zM733.867 320h-120.533l38.4 414.933 157.867 16-75.733-430.933z" />
<glyph unicode="&#xe9f3;" glyph-name="card-medium" d="M917.333 789.333h-810.667c-58.667 0-106.667-48-106.667-106.667v-469.333c0-58.667 48-106.667 106.667-106.667h810.667c58.667 0 106.667 48 106.667 106.667v469.333c0 58.667-48 106.667-106.667 106.667zM981.333 213.333c0-35.2-28.8-64-64-64h-810.667c-35.2 0-64 28.8-64 64v305.067h938.667v-305.067zM981.333 561.067h-938.667v121.6c0 35.2 28.8 64 64 64h810.667c35.2 0 64-28.8 64-64v-121.6z" />
<glyph unicode="&#xe9f4;" glyph-name="info-medium" d="M512 584.533c-11.733 0-21.333-9.6-21.333-21.333v-396.8c0-11.733 9.6-21.333 21.333-21.333s21.333 9.6 21.333 21.333v396.8c0 11.733-9.6 21.333-21.333 21.333zM512 960c-282.667 0-512-229.333-512-512s229.333-512 512-512 512 229.333 512 512-229.333 512-512 512zM512-21.333c-259.2 0-469.333 210.133-469.333 469.333s210.133 469.333 469.333 469.333 469.333-210.133 469.333-469.333-210.133-469.333-469.333-469.333zM512 757.333c-18.133 0-32-13.867-32-32s13.867-32 32-32c18.133 0 32 13.867 32 32s-13.867 32-32 32z" />
<glyph unicode="&#xe9f5;" glyph-name="loop-medium" d="M750.933 707.2c-11.733 0-21.333-9.6-21.333-21.333s9.6-21.333 21.333-21.333c80 0 145.067-64 145.067-144v-144c0-78.933-65.067-144-145.067-144h-293.333l75.733 42.667c10.667 5.333 13.867 19.2 8.533 28.8-5.333 10.667-19.2 13.867-28.8 8.533l-145.067-82.133c0 0 0 0 0 0-1.067-1.067-3.2-2.133-4.267-3.2 0 0 0 0 0 0-1.067-1.067-2.133-2.133-3.2-4.267 0 0 0-1.067-1.067-1.067-1.067-1.067-1.067-2.133-1.067-3.2 0 0 0-1.067 0-1.067 0-2.133-1.067-3.2-1.067-5.333s0-3.2 1.067-5.333c0 0 0-1.067 0-1.067 0-1.067 1.067-2.133 1.067-3.2 0 0 0-1.067 1.067-1.067 1.067-1.067 2.133-3.2 3.2-4.267 0 0 0 0 0 0 1.067-1.067 2.133-2.133 4.267-3.2 0 0 0 0 0 0l144-84.267c3.2-2.133 7.467-3.2 10.667-3.2 7.467 0 14.933 4.267 18.133 10.667 5.333 10.667 2.133 23.467-8.533 28.8l-75.733 42.667h293.333c103.467 0 187.733 83.2 187.733 186.667v145.067c1.067 102.4-83.2 186.667-186.667 186.667zM273.067 231.467c-80 0-145.067 64-145.067 144v145.067c0 78.933 65.067 144 145.067 144h293.333l-75.733-42.667c-10.667-5.333-13.867-19.2-8.533-28.8 4.267-6.4 10.667-10.667 18.133-10.667 3.2 0 7.467 1.067 10.667 3.2l145.067 82.133c0 0 0 0 0 0 1.067 1.067 3.2 2.133 4.267 3.2 0 0 0 0 0 0 1.067 1.067 2.133 2.133 3.2 4.267 0 0 0 1.067 1.067 1.067 1.067 1.067 1.067 2.133 1.067 3.2 0 0 0 1.067 0 1.067 0 2.133 1.067 3.2 1.067 5.333s0 3.2-1.067 5.333c0 0 0 1.067 0 1.067 0 1.067-1.067 2.133-1.067 3.2 0 0 0 1.067-1.067 1.067-1.067 1.067-2.133 3.2-3.2 4.267 0 0 0 0 0 0-1.067 1.067-2.133 2.133-4.267 3.2 0 0 0 0 0 0l-144 82.133c-10.667 5.333-23.467 2.133-28.8-8.533s-2.133-23.467 8.533-28.8l75.733-42.667h-294.4c-103.467 1.067-187.733-83.2-187.733-185.6v-144c0-102.4 84.267-186.667 187.733-186.667 11.733 0 21.333 9.6 21.333 21.333s-9.6 20.267-21.333 20.267z" />
<glyph unicode="&#xe9f6;" glyph-name="random-medium" d="M109.867 664.533h177.067l121.6-146.133c4.267-5.333 10.667-7.467 16-7.467s9.6 2.133 13.867 5.333c8.533 7.467 10.667 21.333 3.2 29.867l-128 153.6c-4.267 5.333-9.6 7.467-16 7.467h-187.733c-11.733 0-21.333-9.6-21.333-21.333s8.533-21.333 21.333-21.333zM939.733 216.533c0 1.067-1.067 2.133-1.067 3.2 0 0 0 1.067-1.067 1.067-1.067 1.067-2.133 3.2-3.2 4.267 0 0 0 0 0 0-1.067 1.067-2.133 2.133-4.267 3.2 0 0 0 0 0 0l-145.067 82.133c-10.667 5.333-23.467 2.133-28.8-8.533s-2.133-23.467 8.533-28.8l75.733-42.667h-138.667l-121.6 147.2c-7.467 8.533-21.333 10.667-29.867 3.2s-10.667-21.333-3.2-29.867l128-153.6c4.267-5.333 9.6-7.467 16-7.467h148.267l-75.733-42.667c-10.667-5.333-13.867-19.2-8.533-28.8 4.267-6.4 10.667-10.667 18.133-10.667 3.2 0 7.467 1.067 10.667 3.2l146.133 81.067c0 0 0 0 0 0 1.067 1.067 3.2 2.133 4.267 3.2 0 0 0 0 0 0 1.067 1.067 2.133 2.133 3.2 4.267 0 0 0 1.067 1.067 1.067 1.067 1.067 1.067 2.133 1.067 3.2 0 0 0 1.067 0 1.067 0 2.133 1.067 3.2 1.067 5.333s0 3.2-1.067 5.333c1.067 1.067 1.067 1.067 0 1.067zM839.467 664.533l-75.733-42.667c-10.667-5.333-13.867-19.2-8.533-28.8 4.267-6.4 10.667-10.667 18.133-10.667 3.2 0 7.467 1.067 10.667 3.2l145.067 82.133c0 0 0 0 0 0 1.067 1.067 3.2 2.133 4.267 3.2 0 0 0 0 0 0 1.067 1.067 2.133 2.133 3.2 4.267 0 0 0 1.067 1.067 1.067 1.067 1.067 1.067 2.133 1.067 3.2 0 0 0 1.067 0 1.067 0 2.133 1.067 3.2 1.067 5.333s0 3.2-1.067 5.333c0 0 0 1.067 0 1.067 0 1.067-1.067 2.133-1.067 3.2 0 0 0 1.067-1.067 1.067-1.067 1.067-2.133 3.2-3.2 4.267 0 0 0 0 0 0-1.067 1.067-2.133 2.133-4.267 3.2 0 0 0 0 0 0l-145.067 82.133c-10.667 5.333-23.467 2.133-28.8-8.533s-2.133-23.467 8.533-28.8l75.733-42.667h-148.267c-6.4 0-12.8-3.2-16-7.467l-388.267-467.2h-177.067c-11.733 0-21.333-9.6-21.333-21.333s9.6-21.333 21.333-21.333h186.667c6.4 0 12.8 3.2 16 7.467l388.267 467.2h138.667z" />
<glyph unicode="&#xe9f7;" glyph-name="play-medium" d="M842.667 466.133l-554.667 320c-6.4 4.267-14.933 4.267-21.333 0s-10.667-10.667-10.667-18.133v-640c0-7.467 4.267-14.933 10.667-18.133 3.2-2.133 7.467-3.2 10.667-3.2s7.467 1.067 10.667 3.2l554.667 320c6.4 4.267 10.667 10.667 10.667 18.133s-4.267 14.933-10.667 18.133zM298.667 165.333v565.333l490.667-282.667-490.667-282.667z" />
<glyph unicode="&#xe9f8;" glyph-name="pause-medium" d="M277.333 789.333c-11.733 0-21.333-9.6-21.333-21.333v-640c0-11.733 9.6-21.333 21.333-21.333s21.333 9.6 21.333 21.333v640c0 11.733-9.6 21.333-21.333 21.333zM746.667 789.333c-11.733 0-21.333-9.6-21.333-21.333v-640c0-11.733 9.6-21.333 21.333-21.333s21.333 9.6 21.333 21.333v640c0 11.733-9.6 21.333-21.333 21.333z" />
<glyph unicode="&#xe9f9;" glyph-name="prev-medium" d="M1013.333 787.2c-6.4 4.267-14.933 3.2-21.333-1.067l-458.667-298.667v280.533c0 7.467-4.267 14.933-10.667 19.2s-14.933 3.2-21.333-1.067l-490.667-320c-7.467-4.267-10.667-10.667-10.667-18.133s3.2-13.867 9.6-18.133l490.667-320c3.2-2.133 7.467-3.2 11.733-3.2 3.2 0 7.467 1.067 10.667 2.133 6.4 3.2 10.667 10.667 10.667 19.2v280.533l457.6-298.667c3.2-2.133 7.467-3.2 11.733-3.2 3.2 0 7.467 1.067 10.667 2.133 6.4 3.2 10.667 10.667 10.667 19.2v640c0 7.467-4.267 14.933-10.667 19.2zM490.667 167.467l-429.867 280.533 429.867 280.533v-561.067zM981.333 167.467l-429.867 280.533 429.867 280.533v-561.067z" />
<glyph unicode="&#xe9fa;" glyph-name="start-medium" d="M231.467 789.333c-11.733 0-21.333-9.6-21.333-21.333v-640c0-11.733 9.6-21.333 21.333-21.333s21.333 9.6 21.333 21.333v640c0 11.733-9.6 21.333-21.333 21.333zM800 142.933l-316.8 305.067 316.8 305.067c8.533 8.533 8.533 21.333 1.067 29.867-8.533 8.533-21.333 8.533-29.867 1.067l-332.8-320c-4.267-4.267-6.4-9.6-6.4-14.933s2.133-11.733 6.4-14.933l332.8-320c4.267-4.267 9.6-6.4 14.933-6.4s10.667 2.133 14.933 6.4c8.533 7.467 7.467 21.333-1.067 28.8z" />
<glyph unicode="&#xe9fb;" glyph-name="db-arrow-left-medium" d="M434.133 782.933c-8.533 8.533-21.333 8.533-29.867 1.067l-337.067-320c-4.267-4.267-6.4-9.6-6.4-14.933s2.133-11.733 6.4-14.933l337.067-320c4.267-4.267 9.6-6.4 14.933-6.4s11.733 2.133 14.933 6.4c8.533 8.533 7.467 22.4-1.067 29.867l-320 304 320 304c8.533 8.533 8.533 22.4 1.067 30.933zM586.667 448l320 304c8.533 8.533 8.533 21.333 1.067 29.867-8.533 8.533-21.333 8.533-29.867 1.067l-337.067-320c-4.267-4.267-6.4-9.6-6.4-14.933s2.133-11.733 6.4-14.933l337.067-320c4.267-4.267 9.6-6.4 14.933-6.4s11.733 2.133 14.933 6.4c8.533 8.533 7.467 22.4-1.067 29.867l-320 305.067z" />
<glyph unicode="&#xe9fc;" glyph-name="db-arrow-right-medium" d="M142.933 782.933c-8.533 8.533-22.4 7.467-29.867-1.067-8.533-8.533-7.467-22.4 1.067-29.867l320-305.067-320-304c-8.533-8.533-8.533-21.333-1.067-29.867 4.267-4.267 9.6-6.4 16-6.4 5.333 0 10.667 2.133 14.933 6.4l337.067 320c4.267 4.267 6.4 9.6 6.4 14.933s-2.133 11.733-6.4 14.933l-338.133 320zM953.6 462.933l-337.067 320c-8.533 8.533-22.4 7.467-29.867-1.067-8.533-8.533-7.467-22.4 1.067-29.867l320-305.067-320-304c-8.533-8.533-8.533-21.333-1.067-29.867 4.267-4.267 9.6-6.4 16-6.4 5.333 0 10.667 2.133 14.933 6.4l337.067 320c4.267 4.267 6.4 9.6 6.4 14.933-1.067 5.333-3.2 11.733-7.467 14.933z" />
<glyph unicode="&#xe9fd;" glyph-name="end-medium" d="M249.6 782.933c-8.533 8.533-22.4 7.467-29.867-1.067-8.533-8.533-7.467-22.4 1.067-29.867l315.733-304-316.8-305.067c-8.533-8.533-8.533-21.333-1.067-29.867 5.333-4.267 10.667-6.4 16-6.4s10.667 2.133 14.933 6.4l332.8 320c4.267 4.267 6.4 9.6 6.4 14.933s-2.133 11.733-6.4 14.933l-332.8 320zM789.333 789.333c-11.733 0-21.333-9.6-21.333-21.333v-640c0-11.733 9.6-21.333 21.333-21.333s21.333 9.6 21.333 21.333v640c0 11.733-9.6 21.333-21.333 21.333z" />
<glyph unicode="&#xe9fe;" glyph-name="next-medium" d="M1014.4 466.133l-490.667 320c-6.4 4.267-14.933 4.267-21.333 1.067s-10.667-10.667-10.667-19.2v-280.533l-457.6 298.667c-6.4 4.267-14.933 4.267-21.333 1.067s-10.667-10.667-10.667-19.2v-640c0-7.467 4.267-14.933 10.667-19.2 1.067-1.067 5.333-2.133 8.533-2.133 4.267 0 8.533 1.067 11.733 3.2l457.6 298.667v-280.533c0-7.467 4.267-14.933 10.667-19.2 3.2-2.133 6.4-2.133 10.667-2.133s8.533 1.067 11.733 3.2l490.667 320c6.4 4.267 9.6 10.667 9.6 18.133s-3.2 13.867-9.6 18.133zM42.667 167.467v561.067l429.867-280.533-429.867-280.533zM533.333 167.467v561.067l429.867-280.533-429.867-280.533z" />
</font>
</defs>
</svg>
