<?xml version="1.0" encoding="utf-8"?>
<!-- Generator: Adobe Illustrator 18.0.0, SVG Export Plug-In . SVG Version: 6.00 Build 0)  -->
<!DOCTYPE svg PUBLIC "-//W3C//DTD SVG 1.1//EN" "http://www.w3.org/Graphics/SVG/1.1/DTD/svg11.dtd">
<svg version="1.1" id="Capa_1" xmlns="http://www.w3.org/2000/svg" xmlns:xlink="http://www.w3.org/1999/xlink" x="0px" y="0px"
	 viewBox="0 0 100 40" enable-background="new 0 0 100 40" xml:space="preserve">
<g>
	<g>
		<g opacity="0.4">
			<g>
				<path fill="#E4032E" d="M50.7,34.2h-1.8v-1.8H48v4.5h0.8v-2h1.8v2h0.8v-4.5h-0.8V34.2z M57.1,36.9h0.8v-4.5h-0.8V36.9z
					 M74.4,34.5v0.7h0.9v1c-0.1,0.1-0.2,0.1-0.3,0.1c-0.1,0-0.2,0.1-0.4,0.1c-0.5,0-0.8-0.1-1-0.4c-0.2-0.3-0.3-0.7-0.3-1.2
					c0-0.3,0-0.5,0.1-0.7c0.1-0.2,0.2-0.4,0.3-0.5c0.1-0.1,0.3-0.2,0.4-0.3c0.2-0.1,0.3-0.1,0.6-0.1c0.2,0,0.4,0,0.5,0.1
					c0.1,0.1,0.3,0.2,0.4,0.3l0.4-0.5c-0.1-0.1-0.2-0.1-0.2-0.2c-0.1-0.1-0.2-0.1-0.3-0.2c-0.1-0.1-0.2-0.1-0.4-0.1
					c-0.1,0-0.3,0-0.4,0c-0.3,0-0.6,0.1-0.9,0.2c-0.3,0.1-0.5,0.3-0.7,0.5c-0.2,0.2-0.3,0.5-0.5,0.7c-0.1,0.3-0.2,0.6-0.2,1
					c0,0.4,0.1,0.7,0.2,1c0.1,0.3,0.3,0.5,0.4,0.7c0.2,0.2,0.4,0.3,0.7,0.5c0.3,0.1,0.5,0.2,0.8,0.2c0.3,0,0.6-0.1,0.9-0.2
					c0.3-0.1,0.5-0.2,0.6-0.4v-2H74.4z M66.2,34.4c0,0.3,0,0.5,0,0.8c0,0.3,0,0.5,0.1,0.8h0l-0.5-1l-1.4-2.6h-0.8v4.5h0.8v-2
					c0-0.3,0-0.5,0-0.8c0-0.3,0-0.5-0.1-0.8h0l0.5,1l1.4,2.6H67v-4.5h-0.8V34.4z M41.9,36.2c-0.1,0.1-0.3,0.1-0.5,0.1
					c-0.4,0-0.7-0.1-0.9-0.4c-0.2-0.3-0.3-0.7-0.3-1.2c0-0.3,0-0.5,0.1-0.7c0.1-0.2,0.1-0.4,0.3-0.5c0.1-0.1,0.2-0.2,0.4-0.3
					c0.2-0.1,0.3-0.1,0.5-0.1c0.2,0,0.3,0,0.5,0.1c0.1,0.1,0.3,0.2,0.4,0.3l0.5-0.5c-0.1-0.2-0.3-0.3-0.5-0.4
					c-0.2-0.1-0.5-0.2-0.7-0.2c-0.3,0-0.6,0.1-0.8,0.2c-0.3,0.1-0.5,0.3-0.7,0.5c-0.2,0.2-0.3,0.5-0.4,0.7c-0.1,0.3-0.2,0.6-0.2,1
					c0,0.4,0.1,0.7,0.2,1c0.1,0.3,0.3,0.5,0.4,0.7c0.2,0.2,0.4,0.3,0.7,0.5c0.2,0.1,0.5,0.2,0.8,0.2c0.3,0,0.5-0.1,0.8-0.2
					c0.2-0.1,0.4-0.3,0.6-0.5l-0.5-0.5C42.2,36,42.1,36.1,41.9,36.2 M16.3,36.2c-0.1,0.1-0.3,0.1-0.5,0.1c-0.4,0-0.7-0.1-0.9-0.4
					c-0.2-0.3-0.3-0.7-0.3-1.2c0-0.3,0-0.5,0.1-0.7c0.1-0.2,0.1-0.4,0.3-0.5c0.1-0.1,0.2-0.2,0.4-0.3c0.2-0.1,0.3-0.1,0.5-0.1
					c0.2,0,0.3,0,0.5,0.1c0.1,0.1,0.3,0.2,0.4,0.3l0.5-0.5c-0.1-0.2-0.3-0.3-0.5-0.4c-0.2-0.1-0.5-0.2-0.7-0.2
					c-0.3,0-0.6,0.1-0.8,0.2c-0.3,0.1-0.5,0.3-0.7,0.5c-0.2,0.2-0.3,0.5-0.4,0.7c-0.1,0.3-0.2,0.6-0.2,1c0,0.4,0.1,0.7,0.2,1
					c0.1,0.3,0.3,0.5,0.4,0.7c0.2,0.2,0.4,0.3,0.7,0.5c0.2,0.1,0.5,0.2,0.8,0.2c0.3,0,0.5-0.1,0.8-0.2c0.2-0.1,0.4-0.3,0.6-0.5
					l-0.5-0.5C16.6,36,16.5,36.1,16.3,36.2 M25,35.3c-0.1,0.2-0.1,0.4-0.2,0.5c-0.1,0.1-0.2,0.3-0.4,0.3c-0.1,0.1-0.3,0.1-0.5,0.1
					c-0.2,0-0.3,0-0.5-0.1c-0.1-0.1-0.3-0.2-0.4-0.3c-0.1-0.1-0.2-0.3-0.2-0.5c-0.1-0.2-0.1-0.4-0.1-0.7c0-0.5,0.1-0.9,0.3-1.2
					c0.2-0.3,0.5-0.4,0.9-0.4c0.4,0,0.6,0.1,0.9,0.4c0.2,0.3,0.3,0.7,0.3,1.2C25.1,34.9,25.1,35.1,25,35.3 M25.4,32.9
					c-0.2-0.2-0.4-0.4-0.6-0.5c-0.2-0.1-0.5-0.2-0.8-0.2c-0.3,0-0.6,0.1-0.8,0.2c-0.2,0.1-0.5,0.3-0.6,0.5s-0.3,0.4-0.4,0.7
					c-0.1,0.3-0.1,0.6-0.1,1c0,0.4,0,0.7,0.1,1s0.2,0.5,0.4,0.7c0.2,0.2,0.4,0.4,0.6,0.5c0.2,0.1,0.5,0.2,0.8,0.2
					c0.3,0,0.6-0.1,0.8-0.2c0.2-0.1,0.5-0.3,0.6-0.5c0.2-0.2,0.3-0.5,0.4-0.7s0.1-0.6,0.1-1c0-0.4,0-0.7-0.1-1
					C25.7,33.4,25.6,33.1,25.4,32.9 M32,35.1l0.2-0.6c0.1-0.2,0.1-0.5,0.2-0.7c0.1-0.3,0.1-0.5,0.2-0.8h0c0.1,0.2,0.1,0.5,0.2,0.8
					c0.1,0.3,0.1,0.5,0.2,0.7l0.2,0.6H32z M32.2,32.4l-1.5,4.5h0.8l0.4-1.2h1.5l0.4,1.2h0.8l-1.5-4.5H32.2z"/>
			</g>
		</g>
		<defs>
			<filter id="Adobe_OpacityMaskFilter" filterUnits="userSpaceOnUse" x="1" y="3" width="97.9" height="24.2">
				<feFlood  style="flood-color:white;flood-opacity:1" result="back"/>
				<feBlend  in="SourceGraphic" in2="back" mode="normal"/>
			</filter>
		</defs>
		<mask maskUnits="userSpaceOnUse" x="1" y="3" width="97.9" height="24.2" id="SVGID_1_">
			<g filter="url(#Adobe_OpacityMaskFilter)">
				
					<linearGradient id="SVGID_2_" gradientUnits="userSpaceOnUse" x1="0.9919" y1="40.9637" x2="1.9919" y2="40.9637" gradientTransform="matrix(99.1216 -17.4778 -17.4778 -99.1216 618.9078 4106.314)">
					<stop  offset="0" style="stop-color:#4D4D4D"/>
					<stop  offset="5.000000e-02" style="stop-color:#4D4D4D"/>
					<stop  offset="0.1779" style="stop-color:#757575"/>
					<stop  offset="0.3517" style="stop-color:#A6A6A6"/>
					<stop  offset="0.5164" style="stop-color:#CDCDCD"/>
					<stop  offset="0.6674" style="stop-color:#E8E8E8"/>
					<stop  offset="0.8001" style="stop-color:#F9F9F9"/>
					<stop  offset="0.9" style="stop-color:#FFFFFF"/>
					<stop  offset="0.909" style="stop-color:#FFFFFF"/>
					<stop  offset="1" style="stop-color:#FFFFFF"/>
				</linearGradient>
				<polygon fill="url(#SVGID_2_)" points="-6.8,1.2 97,-17.1 106.8,38.8 3,57.1 				"/>
			</g>
		</mask>
		<g mask="url(#SVGID_1_)">
			<g>
				<path fill="#E4032E" d="M67.8,23.9c-0.3,0-0.5-0.1-0.5-0.6c0-1.5,2.7-5.9,2.7-9c0-2.1-1.5-3.4-3.5-3.4c-2.6,0-5.3,1.8-7.6,6.9
					l-0.3-0.1c0.5-1.8,0.5-2.8,0.5-3.7c0-2.1-1.2-3.2-2.7-3.2c-2.7,0-4.5,2.1-6.1,5.9l1.8,0.7c0.9-2,1.6-3.2,2.1-3.2
					c0.3,0,0.6,0.2,0.1,2.1l-2.8,10.5h5.5c2.8-11.1,5.1-12.1,6.2-12.1c0.6,0,1,0.3,1,0.9c0,1.8-2.2,5.6-2.2,8.3
					c0,1.8,1.2,3.2,3.5,3.2c2.8,0,4.9-2.2,6.2-5.8l-1.8-0.7C68.9,23.4,68.3,23.9,67.8,23.9 M95.9,3c-1.7,0-3.1,1.4-3.1,3.1
					c0,1.7,1.4,3.1,3.1,3.1S99,7.9,99,6.1C99,4.4,97.6,3,95.9,3 M78.5,18.7c0.5-2.7,1.9-5.5,3.8-5.5c0.8,0,1.3,0.6,1.3,1.7
					C83.6,16.5,82.5,18.5,78.5,18.7 M88.5,14.9c0-2.4-2-4.1-5.6-4.1c-6,0-10.2,4.9-10.2,10c0,3.9,2.7,6.3,7,6.3
					c3.6,0,5.9-1.8,7.7-3.9l-1.5-1.4c-1.6,1.8-3,2.4-4.3,2.4c-1.6,0-3.2-0.8-3.2-3.8C85.6,20.4,88.5,18,88.5,14.9 M10.2,10.9
					c-3.6,0-7.2,1.8-7.2,5.3c0,2.4,2.1,3.5,4.4,4.6c1.4,0.7,2.9,1.3,2.9,2.6c0,1.1-0.7,1.9-2.4,1.9c-1.2,0-1.9-0.3-2.3-0.5
					c0.5-0.6,0.7-1.3,0.7-1.9c0-1.1-0.8-2.3-2.6-2.3c-1.5,0-2.6,1-2.6,2.6c0,2.3,2.9,4,7.2,4c3.8,0,7.3-1.6,7.3-5.2
					c0-2.4-2-3.4-3.7-4.3c-2-1.1-3.7-1.7-3.7-3c0-1,0.8-1.9,2.4-1.9c0.8,0,1.4,0.2,1.7,0.4c-0.4,0.4-0.6,1-0.6,1.8
					c0,1,0.8,2.2,2.7,2.2c1.4,0,2.5-1,2.5-2.5C16.8,12.7,14.2,10.9,10.2,10.9 M33.3,23.9c-0.3,0-0.5-0.1-0.5-0.6
					c0-1.5,2.7-5.9,2.7-9c0-2.1-1.5-3.4-3.5-3.4c-2.6,0-5.2,1.8-7.6,6.9l-0.3-0.1L28.4,4h-7.8l-0.8,3h2.2l-5.3,19.8h5.5
					c3-11.1,5.3-12.1,6.5-12.1c0.6,0,1,0.3,1,0.9c0,1.8-2.2,5.6-2.2,8.3c0,1.8,1.2,3.2,3.5,3.2c2.8,0,4.9-2.2,6.2-5.8l-1.8-0.7
					C34.5,23.4,33.9,23.9,33.3,23.9 M45.6,23.9c-0.3,0-0.5-0.1-0.5-0.6c0-1.6,2.7-6.6,2.7-9.4c0-1.8-1.4-3-3.3-3
					c-2.8,0-4.8,2.1-6.3,5.9l1.8,0.7c0.9-2,1.6-3.2,2.1-3.2c0.2,0,0.5,0.1,0.5,0.6c0,1.4-2.7,6.6-2.7,9c0,2.1,1.5,3.4,3.7,3.4
					c2.8,0,4.9-2.2,6.2-5.8l-1.8-0.7C46.7,23.4,46.1,23.9,45.6,23.9"/>
			</g>
		</g>
	</g>
</g>
</svg>
